<svg xmlns="http://www.w3.org/2000/svg" width="550" height="550" version="1.0" viewBox="0 0 412.5 412.5"><path fill="#4a4b67" d="M163.281 70.715s25.61 19.687 34.266 31.3c8.652 11.618-37.23 10.825-37.23 10.825l-7.637-17.887-.227-15.473ZM210.16 204.844s2.695 1.488 10.89-2.778c8.2-4.265 24.055-7.125 26.137-11.148 2.797-5.41-10.558-11.652-10.558-11.652l-12.625 1.476-8.856 6.067s-7.187 12.285-4.988 18.035m0 0"/><path fill="#f8a24d" d="M201.094 22.625s1.644 11.379 9.515 16.902 5.41-11.566 5.41-11.566Zm0 0"/><path fill="#4a4b67" d="M149 374.89c-.547 8.137-56.094 9.52-55.547 1.383.29-20.386-2.348-58.015-2.058-78.402-6.204 19.969-8.582 55.473-14.786 75.477-.515 10.355-53.875 6.047-53.363-4.34 2.844-7.055 16.582-132.863 29.574-171.863h.774c30.824-.063 66.219 7.527 83.93 32.707 2.25 3.183 3.374 6.914 4.019 10.804.508 3.02 1.05 9.961 1.156 12.606 2.094 28.035 3.758 49.972 3.953 65.383.227 16.433 3.344 39.847 2.348 56.246m0 0"/><path fill="#ffbd64" d="M334.156 402.707v-37.008H311.66v37.008c0 4.871 22.496 4.871 22.496 0m0 0"/><path fill="#f8a24d" d="M317.594 365.7v40.28c-3.387-.539-5.93-1.628-5.93-3.27V365.7Zm0 0"/><path fill="#ffbd64" d="M50.078 404.11v-37.008H27.586v37.007c0 4.868 22.492 4.868 22.492 0m0 0"/><path fill="#f8a24d" d="M33.516 367.098v40.28c-3.383-.538-5.93-1.628-5.93-3.269v-37.011Zm0 0"/><path fill="#ffbd64" d="M411.21 342.523v-37.007H388.72v37.007c0 4.872 22.492 4.872 22.492 0m0 0"/><path fill="#f8a24d" d="M394.648 305.516v40.277c-3.382-.535-5.93-1.625-5.93-3.266v-37.011Zm0 0"/><path fill="#ffbd64" d="M112.969 390.96v-37.007H90.477v37.008c0 4.867 22.492 4.867 22.492 0m0 0"/><path fill="#f8a24d" d="M96.406 353.95v40.28c-3.383-.539-5.93-1.625-5.93-3.265v-37.016Zm0 0"/><path fill="#dacfcd" d="M411.355 309.563c.02.382-.125.769-.472 1.05l-75.899 63.059c-.23.2-.53.3-.832.3H27.324c-.707 0-1.187-.511-1.285-1.093l-.008-12.07h.008c.098.586.578 1.097 1.285 1.097h306.828c.301 0 .602-.105.832-.3l75.899-63.063c.262-.215.406-.492.453-.773Zm0 0"/><path fill="#e8ddd9" d="m410.883 298.543-75.899 63.062c-.23.196-.53.301-.832.301H27.324c-.707 0-1.187-.511-1.285-1.097h-.008a1.28 1.28 0 0 1 .453-1.227l75.895-63.059c.234-.191.531-.3.84-.3h306.824c1.234 0 1.77 1.554.84 2.32m0 0"/><path fill="#997458" d="m317.77 359.262-.004-.008c-.211.57-.754 1.023-1.383 1.023-6.926-.011-30.746-.027-36.828 0-.86 0-1.547-.59-1.707-1.449l-17.055-91.77c-.242-1.292.797-2.628 2.094-2.69l1.605-.083 15.957 85.89c.164.86.852 1.45 1.715 1.438 6.078-.02 29.899 0 36.82.012.547 0 1.028-.344 1.278-.805Zm0 0"/><path fill="#b59473" d="M318.984 351.625c-6.921-.012-30.742-.031-36.82-.012-.863.012-1.55-.578-1.715-1.437-3.512-18.899 8.926 48.015-17.054-91.77-.239-1.3.8-2.636 2.097-2.703l30.117-1.48c.852-.04 1.563.488 1.77 1.324 2.703 10.855 20.008 81.746 23.047 94.207.219.867-.504 1.871-1.442 1.871m0 0"/><path fill="#997458" d="M277.734 302.637a281 281 0 0 1-7.64-12.89c-.254-.458.437-.864.703-.392a285 285 0 0 0 7.613 12.856c1.664 2.644 3.11 3.418 4.817 2.523 1.859-.953 3.484-3.543 4.976-7.921 4.473-13.133 6.93-26.536 7.11-38.75.007-.536.812-.524.804.015-.18 12.293-2.652 25.781-7.156 38.992-1.559 4.586-3.313 7.328-5.363 8.383-2.516 1.285-4.368-.422-5.864-2.816m0 0"/><path fill="#997458" d="M278.492 292.508c-5.316-9.988-8.8-21.762-10.36-34.992-.058-.516.735-.649.802-.098 1.543 13.133 5 24.809 10.265 34.71.742 1.392 1.41 2.259 2.403 2.259 1.753 0 3.613-2.586 4.363-4.227.96-2.098 1.305-4.25 1.62-6.64a400 400 0 0 0 2.59-25.922c.044-.493.837-.508.805.05a401 401 0 0 1-2.597 25.977c-.328 2.457-.684 4.672-1.692 6.867-.984 2.164-2.941 4.551-4.906 4.695-1.652.079-2.512-1.21-3.293-2.68m0 0"/><path fill="#997458" d="M279.402 276.91c-.902-.789-.68-.687-5.93-19.117-.148-.52.626-.715.77-.219 5.156 18.082 5.012 18.133 5.692 18.735.37.324 1.062.378 1.714-.274 1.422-1.43 1.075-2.765 2.98-20.004.056-.566.852-.418.798.082-1.875 16.809-1.477 18.75-3.207 20.485-.957.968-2.145.914-2.817.312M283.91 321.36c-4.055 0-5.433-4.465-8.605-5.356-.504-.137-.309-.902.215-.774 2.14.602 3.48 2.528 5.074 3.915 1.3 1.132 3.347 2.164 5.71.664 2.923-1.864 4.739-6.485 5.856-9.801 3.715-11.074 6.32-22.149 7.735-32.918.074-.524.863-.422.796.105-1.421 10.817-4.039 21.946-7.773 33.07-1.5 4.462-4.281 11.094-9.008 11.094M317.68 348.55a93.5 93.5 0 0 1-15.371-10.917c-2.778-2.418-5.84-5.399-7.028-10.153-2.976-11.921 6.117-29.386 6.766-42.757.008-.223.21-.36.422-.383.222.012.39.2.383.418-.649 13.398-9.704 30.851-6.793 42.527 1.136 4.531 4.093 7.402 6.777 9.746a93.4 93.4 0 0 0 15.238 10.824c.469.262.055.965-.394.696m0 0"/><path fill="#997458" d="M300.305 320.836c-.461-7.957 2.257-17.309 4.652-25.566.148-.5.922-.29.773.226-2.382 8.192-5.078 17.477-4.62 25.297.546 9.473 6.234 15.844 13.886 15.398h.024c.515 0 .539.778.02.805-8.81.442-14.208-7.078-14.735-16.16m0 0"/><path fill="#997458" d="M310.559 328.691c-4.715-3.578-6.137-12.226-3.45-21.03.145-.513.926-.278.766.234-2.59 8.488-1.285 16.777 3.168 20.156.43.324-.066.969-.484.64M298.121 351.016c-1.32-13.461-9.043-22.778-19.672-23.743-.558-.046-.414-.894.074-.796 11.032.996 19.04 10.597 20.399 24.457.05.535-.75.613-.8.082m0 0"/><path fill="#997458" d="M288.148 348.023c.41-6.582-2.336-11.734-6.828-12.812-.53-.125-.308-.926.188-.781 4.883 1.175 7.875 6.656 7.445 13.644-.031.528-.832.488-.805-.05M285.309 350.867c.652-3.535-.52-6.508-2.79-7.078-.527-.129-.3-.926.196-.777 2.695.672 4.117 4.035 3.387 8-.106.527-.891.375-.793-.145M288.387 321.926c-.133-.508.636-.735.777-.203.04.16.11.183.168.199.32.039.883-.223 1.324-.79.977-1.265 1.196-2.827 2.59-7.96.145-.516.914-.3.781.207-1.418 5.187-1.672 6.863-2.738 8.246-.95 1.23-2.578 1.57-2.902.3M301.27 349.453c.289-1.629.386-5.36 2.566-5.36 1.176.305-.484-.843 6.93 5 .425.333-.086.962-.496.637-6.32-4.968-5.993-4.812-6.387-4.832h-.04c-1.413 0-1.558 3.36-1.78 4.692-.094.535-.88.383-.793-.137M246.746 325.11c.113 3.734-.027 13.226.707 21.046 0 0-.441 5.86-.594 7.281-.082.758-1.097 1.32-2.129 1.297l-119.69-2.144c-1.853-.043-3.08-2.133-2.767-4.277l.512-5.75 9.121-22.063c.254-.633 1.117-1.059 2.172-1.047 13.504.094 97.317 4.235 110.652 4.336.825 0 1.993.617 2.016 1.32m0 0"/><path fill="#b59473" d="M246.535 317.438c.149 4.894.727 23.48.918 28.718.035.762-.656 1.262-1.687 1.239l-111.852-2.52-8.324-.184c-1.852-.043-3.192-1.312-2.711-2.554l11.906-28.594c.25-.633 1.113-1.055 2.172-1.047 13.504.094 94.223 3.52 107.559 3.621.828.004 1.996.621 2.02 1.32m0 0"/><path fill="#273454" d="M142.855 250.727c-.101.058-.199.113-.304.164-14.54 8.078-31.91 10.972-48.29 8.03-14.011-2.519-27.491-9.151-41.706-8.37-4.453.242-9.492 1.71-11.29 5.789-.234.535-.738 1.082-1.343 1.605 1.062-6.437 2.152-12.77 3.262-18.847 1.21-1.34 2.742-2.282 4.57-2.512 2.445-.316 4.836.742 7.105 1.707 26.985 11.402 58.38 11.855 87.68 12.426.106 0 .211.008.316.008M133.414 234.55c-17.719 2.708-35.894.415-52.355-5.937-4.72-1.828-22.985-10.035-31.86-18.52 1.2-4.921 2.406-9.292 3.614-12.948.253 0 .511 0 .765-.008 4.844 1.746 9.442 6.183 13.684 8.441 4.535 2.422 8.718 5.367 13.14 7.797 5.489 3.016 12.102 4.836 17.934 7.164 6.73 2.688 20.187 8.063 26.918 10.75 1.824.727 6.277 3.543 8.16 3.262m0 0"/><path fill="#98a0ff" d="M142.7 253.262c-27.485 5.117-56.481 2.574-81.938-8.907-3.563-1.636-8.09-4.539-11.219-6.851-3.316-2.45-4.434-3.691-5.625-4.887 1.445-6.004 7.387-10.547 8.422-16.789 10.113 13.82 27.152 21.692 44.101 24.54 14.852 2.476 30.055 1.609 45.102.288.52 3.098 1.082 10.723 1.156 12.606m0 0"/><path fill="#6f7ff0" d="M70.488 231.48c-2.347 1.739-11.863 9.106-13.968 10.625a85 85 0 0 1-6.989-4.613c.715-3.879 2.633-7.71 6.004-9.597 1.961-1.094 3.969-1.98 6.02-2.461a61.5 61.5 0 0 0 8.933 6.046m0 0"/><path fill="#fec3a5" d="M211.477 191.367q11.08 18.077 22.156 36.153c5.672 9.25 13.449 17.94 17.258 28.152.843 2.27 1.222 4.676 2.02 6.941 1.66 4.707 8.609 2.727 12.472 2.79 10.195.163 18.969 7.042 28.012 11.16.886.406 1.808.82 2.789.835.976.012 2.03-.48 2.363-1.402.555-1.535-1.063-2.922-2.465-3.762-4.664-2.789-9.328-5.582-13.988-8.37 7.168 2.69 14.383 5.906 21.574 8.292 2.187.727 5.254 1.106 6.195-1.004 1.02-2.277-1.754-4.332-4.047-5.308-5.34-2.262-10.98-4.102-16.007-6.91 5.406 1.316 10.816 2.636 16.222 3.953 1.692.414 3.926.601 4.735-.942.535-1.02.058-2.336-.793-3.11-1.196-1.089-1.168-.882-21.688-7.241 3.965.633 7.926 1.27 11.89 1.902 1.372.219 3.13.258 3.755-.984.925-1.828-1.078-3.117-3-3.848-10.567-4.035-9.743-3.785-26.727-6.11-4.219-.574-5.035-2.273-6.902-6.113-10.656-21.87-21.328-43.859-31.485-65.863"/><path fill="#fec3a5" d="M253.688 261.887a16.6 16.6 0 0 0 2.324 9.883c.785 1.3 2.254 2.632 3.633 1.996.964-.442 1.3-1.618 1.53-2.653 1.044-4.703 2.083-9.41 3.126-14.113M257.441 68.828c.036 6.836-3.628 13.36-8.46 18.117-2.04 1.996-2.829 5.102-2.954 7.953-.047 1.165-.004 2.422-.707 3.356-.754.996-2.18 1.273-3.398 1.004-1.219-.278-2.281-.996-3.313-1.707-5.464 4.129-12.566 7.847-19.382 8.441-3.864.332-7.395-.738-10.864-2.312-3.312-1.5-5.562-4.903-7.996-7.57-.512.507-2.137 2.464-5.554 5.59a82 82 0 0 1-9.79 7.722c-12.574-7.86-22.109-20.54-24.707-35.149 8.29-2.914 16.098-7.16 23.133-12.421 11.293-8.454 21.348-25.735 33.25-31.575 17.953-8.804 40.356 4.38 41.61 27.078.21 3.91-.88 7.625-.868 11.473m0 0"/><path fill="#fec3a5" d="M230.04 49.172c-1.407-1.121-4.665-1.606-6.911-2.063-.828-.168-1.586.094-2.024.703-1.906 2.66-4.082 5.418-5.398 8.477-.945 2.207-3.664 3.848-4.191 6.238-.38 1.711-.118 3.36.367 5.274.308 1.207 1.234 2.285 2.41 2.804 3.168 1.395 6.086 2.754 8.312.11 2.762-3.281 5.32-7.078 7.778-10.63.77-1.105 2.492-2.55 2.48-4.081-.011-1.418-1.554-5.82-2.824-6.832m0 0"/><path fill="#fcaa86" d="M222.395 65.203c-1.364 1.7-4.399 2.297-5.633 1.504-2.133-1.367-.989-5.95 1.336-6.937 3.386-1.438 6.441 2.757 4.297 5.433m0 0"/><path fill="#ff9b78" d="M219.023 66.535c-1.046-.176-2.054-.816-2.699-1.707-1.789-2.453.125-5.61 1.043-7.125.54-.976 1.508-2.742 4.899-5.16.82-.582 1.734-1.14 2.879-1.3 2.476-.38 4.917 1.558 4.527 3.948-.285 1.692-2.059 2.426-2.758 1.188a1.2 1.2 0 0 1 .461-1.64c-.055 0-.086-.337-.309-.587-.41-.457-1.082-.597-1.586-.523-.597.086-1.16.41-1.82.879-2.937 2.094-3.719 3.52-4.05 4.129-.008.015-.169.3-.18.316-.7 1.152-2 3.3-1.157 4.457.274.383.723.672 1.145.742.66.11 1.102.73.992 1.391a1.21 1.21 0 0 1-1.387.992m0 0"/><path fill="#4a4b67" d="M216.734 55.617c1.516-1.195 2.692-2.797 4.305-3.953 1.746-1.258 3.887-2.187 6.016-1.86 2.129.325 4.093 2.262 3.843 4.403-.105.887-.55 1.688-.988 2.465a184 184 0 0 1-9.168 14.664c-.972 1.402-.601 3.871 1.512 2.367 1.309-.933 1.324-3.02 2.672-3.914 1.113-.738 2.742-.348 3.785-1.184.809-.648.969-1.793 1.219-2.8.922-3.72 5.828-5.489 8.824-3.235 4.41 3.317 10.832 4.965 16.258 3.524 2.343-.621 3.332-4.133 3.898-6.278 3.762-14.316-9.348-28.66-24.82-31.367-23.797-4.164-36.332 16.356-51.05 33.707 3.944-1.562 9.003-1.883 13.245-1.824 4.75.066 9.512-.645 14.043-2.078 2.012-.637 4.738-1.32 6.406-2.637m0 0"/><path fill="#98a0ff" d="M226.129 37.418c-6.95-.137-12.29 1.758-17.156-3.207-2.575-2.945-11.723 5.062-9.149 8.008 9.645 8.226 21.613 7.574 34.04 5.086-2.083-3.707-4.794-6.817-7.735-9.887m0 0"/><path fill="#ffbd64" d="M211.828 20.8c14.98-16.859 41.211-17.628 57.152-1.667 7.543 7.555 11.797 18.285 11.48 28.957-.097 3.176-1.585 6.773-4.495 8.039-1.414 8.152-5.824 15.832-12.172 21.133q1.141 6.603 2.281 13.207c.219 1.254.082 4.918-1.96 3.043-1.583-1.45-2.954-4.336-4.09-6.176-1.31-2.117-2.165-4.613-3.364-6.809-8.258-15.09-20.418-27.55-32.355-39.746-6.707-6.855-23.211-18.156-23.211-18.156s5.554-3.605 6.32-3.414c1.613.402 2.797 1.187 4.414 1.59m0 0"/><path fill="#b59473" d="M72.191 173.613c4.84-3.3 7.996-10.023 10.993-14.867 11.773-19.023 19.351-40.434 24.925-61.902.657-2.516 3.946-28.117 4.704-28.207 11.316-1.375 29.222-.91 40.562.39 1.035.121 9.652.633 9.906 1.688.106.43-.418 15.676 3.906 21.07 3.606 4.496 9.235 8.988 14.262 11.785 5.098 2.836 12.274 2.856 16.098-1.554 1.258-1.454 26.277 32.093 28.176 35.07a256 256 0 0 1 9.304 15.773c1.985 3.66 3.98 9.391 7.137 12.188 1.05.933 2.484 1.512 3.125 2.762 1.012 1.976-.523 4.316-.367 6.527.219 3.125 3.375 4.918 4.883 7.46 1.246 2.106 1.047 4.884-.371 7.052-.559.851-2.004 2.402-3.38 3.332.712-3.082 1.516-4.801-.472-6.188-2.371-1.656-5.305-.683-8.152-.207-11.508 1.926-25.477 10.399-27.27 19.059-2.086.242-4.531-3.664-4.125-5.727.403-2.062 1.024-4.644-.652-5.914-.914-.687-2.164-.64-3.274-.926-2.187-.554-3.71-2.734-3.918-4.922-.296-3.144.957-3.468-.714-6.566-2.372-4.445-5.36-7.766-8.368-11.71-13.214 18.206-14.664 19.741-15.527 23.081-.539 2.086-.437 4.3-1 6.38-1.215 4.503-6.293 4.573-8.797 8.081-1.324 1.86-1.7 4.219-2.707 6.266-2.926 5.945-14.683 12.726-21.543 20.722-27.644 5.465-51.957-5.648-75.527-20.617-2.02-1.285-3.813-2.894-5.746-4.219-4.867-3.343-14.555-7.808-6.07-13.285 1.05-.68 2.038-1.82 1.777-3.043-.336-1.554-2.383-2.09-3.117-3.5-.567-1.082-.204-2.46.558-3.414 2.153-2.687 13.164-6.73 20.781-11.918m0 0"/><path fill="#b59473" d="M67.133 113.84c-1.063 4.008-2.16 8.062-5.684 10.719-3.215 2.425-8.281 3.668-8.73 7.664-.262 2.32 1.336 4.511 1.218 6.84-.246 4.94-6.03 6.613-8.671 9.875-7.871 9.73-3.703 23.746 7.289 28.074-4.2-9.23-1.356-19.274 3.437-22.91 4.516-3.426 11.64-.946 16.59.316 6.457 1.644 12.785 3.996 18.465 7.527 4.89 3.04 9.39-1.195 12.18-5.011 6.187-8.465 9.55-19.223 12.578-29.141 1.375-4.508 2.61-9.059 3.765-13.625 1.278-5.059 3.864-8.879 4.543-14.211 1.528-11.977 1.965-32.523-14.972-31.453-6.528.414-12.985 5.187-17.97 9.422-12.694 10.793-21.26 25.469-24.038 35.914m0 0"/><path fill="#997458" d="M90.234 159.602c2.106-3.04 13.02-15.192 20.07-36.145 1.196-3.555 2.532-5.855 4.38-9.012-.137 15.918-6.735 32.72-15.48 45.793 14.179 14.418 26.355 29.438 55.542 43.961-11.758-1.906-24.441-4.207-35.371-8.937-7.836-3.395-15.488-7.57-21.5-13.637-3.008-3.031-5.312-6.57-7.145-10.414-1.964-4.117-4.312-6.098-.496-11.61m0 0"/><path fill="#ff5280" d="M191.957 221.164c-.184 2.383-.555 7.328-.555 7.664l-10.28-4.121.46-1.457a1.97 1.97 0 0 0-1.012-2.355c-2.035-1.008-19.656-9.72-18.543-9.168-12.035 17.226-17.363 24.847-17.093 24.464.023.325.375 5.41.355 5.086a2.6 2.6 0 0 0 1.848 2.328l11.113 3.407-3.129 10.535a1.315 1.315 0 0 1-1.66.879l-30.645-9.805c-3.02-1.195 1.934-13.734 4.957-12.543h5.309c.602 0 1.18-.273 1.547-.762.262-.336 6.781-8.714 6.367-8.18l17.77-22.84a2.62 2.62 0 0 1 3.32-.694c36.082 19.617 27.508 14.953 28.848 15.683a1.96 1.96 0 0 1 1.023 1.88m0 0"/><path fill="#e83866" d="m177.73 219.488-15.703-7.761-.734 1.05c-1.164-1.379-3.582-4.57-4.285-6.222l1.758-2.258a2.62 2.62 0 0 1 3.32-.695l.742.398c4.973 5.168 9.938 10.324 14.902 15.488M144.934 236.191l.214 3.125c-2.93-2.074-5.87-4.14-8.75-6.273l4.598-5.906a43 43 0 0 1 5.02 7.504Zm0 0"/><path fill="#fec3a5" d="M55.613 151.855c-5.39.782-11.086 2.805-11.707 8.227-.41 3.574 2.434 8.781 4.04 11.84 4.081 7.777 10.378 14.363 18.308 18.004 4.785 2.195 9.258 5.289 13.984 7.656 4.793 2.402 9.676 4.633 14.59 6.781 8.633 3.63 17.465 6.782 26.387 9.617 5.918 1.88 3.664.032 12.035 9.29 12.879 14.242 13.066 14.648 14.605 15.57 1.133.68 2.551 1.008 3.79.555 1.238-.454 2.167-1.833 1.828-3.11.418 1.574 3.355 1.39 4.375.88 2.148-1.071 2.093-2.614 1.547-4.634 1 .39 2.023.79 3.097.856 7.13.453 1.348-8.746-.543-10.961 7.578 4.07 13.531 7.625 15.59 7.804.957.083 2.016-.261 2.52-1.078.82-1.336-.168-3.023-1.149-4.25-5.797-7.265-12.629-13.629-19.703-19.601-5.73-4.836-13.562-4.82-20.352-8.008-27.62-12.961-31.753-28.793-51.164-39.656-9.93-5.563-21.425-7.32-32.078-5.782m0 0"/><path fill="#4a4b67" d="m174.629 262.258.164 5.41c.012.305.23.562.527.625 90.778 18.234 85.172 17.332 85.551 16.77l2.938-4.36a.654.654 0 0 1 .82-.23l2.187 1.023a.655.655 0 0 1 .274.953l-5.652 8.582a.65.65 0 0 1-.688.281l-90.062-19.652a.656.656 0 0 1-.516-.64v-9.477c0-.422.39-.734.805-.64l3.148.734c.29.07.496.324.504.62m0 0"/><path fill="#e8ddd9" d="M268.5 282.95c.125-.098-30.586-8.04-30.586-8.04l3.176-6.926 29.394 9.754c1.637.621-.347 5.836-1.984 5.211m0 0"/><path fill="#e4f0ff" d="M247.188 268.754c0 15.746-12.766 28.516-28.508 28.516-15.743 0-28.5-12.77-28.5-28.516 0-15.75 12.757-28.516 28.5-28.516s28.507 12.766 28.507 28.516m0 0"/><path fill="#c9d4f2" d="M246.656 274.36c-.129-15.63-12.86-28.266-28.511-28.266-13.825 0-25.364 9.84-27.97 22.93v-.258c0-15.758 12.762-28.528 28.516-28.528 17.848 0 31.465 16.305 27.965 34.121m0 0"/><path fill="#fff" d="M225.36 270.473a6.666 6.666 0 1 1-13.333 0 6.667 6.667 0 1 1 13.332 0m0 0"/><path fill="#4a4b67" d="M221.184 270.473a2.487 2.487 0 1 1-4.977 0 2.487 2.487 0 1 1 4.977 0m0 0"/><path fill="#ff5280" d="M199.594 235.633s36.515-19.824 56.71 25.87c1.036 3.255-8.394 6.267-9.429 3.013 0 0-10.96-29.829-37.934-20.2Zm0 0"/><path fill="#98a0ff" d="m181.121 224.707-1.547 4.684a1.313 1.313 0 0 1-1.547.863l-4.449-1.055a1.31 1.31 0 0 0-1.5.75l-1.754 3.973a1.32 1.32 0 0 1-1.508.746l-1.836-.441c-2.832-.536-7.578 24.609-4.746 25.144l45.79 14.156c3.906 1.215 13.66-30.175 9.753-31.39l-25.968-9.29a1.31 1.31 0 0 1-.852-1.46l.445-2.559Zm0 0"/><path fill="#6f7ff0" d="M208.254 273.898c-.266 0 4.168 1.325-46.117-14.207-2.278-.418-.418-11.035.011-13.328.446-2.351 2.536-12.785 4.895-12.468l1.852.445c.43.105.28.754-.157.652-2.566-.617-1.68-.402-1.875-.449-1.613 0-4.855 12.96-5.144 20.621-.14 3.7.547 3.875.578 3.875l45.824 14.168c.274.078 1.266.031 3.324-4.047 4.274-8.504 8.692-25.941 6.235-26.703l-18.196-6.082c-.43-.145-.191-.781.215-.637l18.188 6.082c3.004.942-.805 14.028-1.739 17.035-.878 2.825-4.918 15.043-7.894 15.043m0 0"/><path fill="#64677a" d="m155.738 255.469 12.672 3.867a1.316 1.316 0 0 0 1.676-1.02l.644-3.546a1.32 1.32 0 0 0-.917-1.497l-3.567-1.058a1.31 1.31 0 0 1-.879-1.645l.047-.148a1.31 1.31 0 0 0-.898-1.652l-6.266-1.758Zm0 0"/><path fill="#fff" d="M177.504 246.102c0 2.66-2.16 4.812-4.816 4.812a4.81 4.81 0 0 1-4.81-4.812 4.81 4.81 0 0 1 4.81-4.809 4.815 4.815 0 0 1 4.816 4.809M168.965 255.453a1.31 1.31 0 0 1-1.313 1.309 1.31 1.31 0 0 1-1.308-1.309 1.31 1.31 0 1 1 2.62 0m0 0"/><path fill="#fff" d="m204.938 257.441-27.86-9.316.207-.621 27.86 9.316a3.62 3.62 0 0 0 4.128-1.394l7.68-11.293.54.37-7.68 11.294a4.27 4.27 0 0 1-4.875 1.644m0 0"/><path fill="#f8a24d" d="M31.32 315.21c2.696-14.765 4.438-32.366 7.512-50.546 2.219-13.125 11.711-24.457 22.441-32.672 1.622-1.246 4.97-3.101 4.97-3.101s-5.634-5.211-6.946-6.352c-4.352-3.785-8.762-8.055-9.711-14.023-17.219 15.293-30.711 51.875-25.008 88.058.512 3.246 7.305 15.563 6.742 18.637m0 0"/><path fill="#ffbd64" d="M40.969 257.066c-.996 2.622-1.395 4.946-2.137 7.598-6.074.813-13.172 1.047-19.246 1.863-8.621 1.168-16.023-.816-18.684-9.14-.98-3.114-1.023-5.028-.773-8.278.664 4.41 5.027 6.078 9.441 6.703 4.414.63 8.848-.644 13.125-1.906 5.032-1.48 13.465-.91 18.274 3.16m0 0"/><path fill="#f8a24d" d="m38.832 264.664-7.512 50.547s-17.386-8.625-21.918-30.344l-8.5-27.48c.993 3.101 2.98 5.992 5.848 7.539 6.492 3.48 13.2-.531 32.082-.262m0 0"/><path fill="#64677a" d="m40.965 257.066-24.742 2.164c-.32-.097-16.239 1.45-16.13-10.722 0-9 4.981-17.953 14.891-22.653 7.11-3.398 15.621-4.187 23.528-3.91-2.145 12.743-3.313 23.36 2.453 35.121m0 0"/><path fill="#444b68" d="M38.512 221.945c-.317 1.875-.61 3.707-.867 5.496-27.555 1.454-31.793 19.114-31.793 26.528-.012 1.504.218 2.8.644 3.91-3.437-1.383-6.45-4.102-6.394-9.371 0-7.973 4.886-27.778 38.41-26.563m0 0"/><path fill="#ff90b0" d="M17.652 259.11c-3.457.304-6.879.261-10.277-.907-.027-.348-2.129-26.426-2-24.828L3.48 209.746c-.214-2.664 9.926-3.484 10.141-.82.024.32 2.145 26.687 2.012 25.035Zm0 0"/><path fill="#f8a24d" d="M263.102 77.047c-9.914-23.695-28.633-44.149-51.352-56.121-.469-.25-.094-.953.375-.711 22.883 12.055 41.734 32.656 51.719 56.527.203.492-.543.797-.742.305M274.113 55.32c-7.18-18.254-22.5-33.047-40.988-39.578-.492-.183-.238-.93.27-.762 18.703 6.61 34.203 21.583 41.468 40.047.196.496-.55.785-.75.293m0 0"/><path fill="#273454" d="M246.8 84.547a.31.31 0 0 1-.308-.305c-.05-4.156-2.465-6.957-6.793-7.879a.308.308 0 0 1-.11-.554c1.704-1.164 4.224-1.317 5.731-.352.336.207.035.734-.332.52-.988-.63-2.832-.766-4.398-.032 4.156 1.149 6.465 4.067 6.52 8.29a.307.307 0 0 1-.305.312Zm0 0"/><path fill="#273454" d="M241.305 83.121c.457.836 1.894.887 3.203.113 1.312-.777 2.008-2.078 1.562-2.925-1.195-2.325-5.773 1-4.765 2.812M243.219 70.246c1.886.156 5.515 2.676 7.027 3.988.379.329.313.352 1.332 3.875.156.536.543 1.352.54 1.883 0 .801-1.317 1.324-1.919.606-.32-.391-.484-1.211-.652-1.668-.477-1.293-1.242-3.45-1.379-3.723-.648-1.316-3.992-3.508-6.191-4.422-.602-.25-.446-.676 1.242-.539M227.098 102.805a8.93 8.93 0 0 1-.559-5.817c.055-.246.422-.347.57-.074 1.09 2.035 3.196 3.5 5.485 3.816.168.024.289.18.261.348-.02.168-.19.309-.343.262-2.215-.305-4.266-1.598-5.528-3.438a8.37 8.37 0 0 0 .672 4.645c.176.371-.394.625-.558.258m0 0"/><path fill="#fcaa86" d="M200.29 96.191a82 82 0 0 1-5.477 5.508 36.65 36.65 0 0 1-.985-36.355c0 3.18-.742 6.293-.562 9.535.414 7.539 2.707 14.601 7.023 21.312m0 0"/><path fill="#997458" d="M85.848 149.535c-8.82-10.586-24.282-12.09-34.953-4.015-.399.328-.922-.31-.485-.641 5.34-4.04 12.207-5.918 18.86-5.149 6.644.766 12.914 4.149 17.195 9.293.344.399-.274.926-.617.512M85.664 132.785c-5.73-7.242-15.902-10.472-24.746-7.851-.516.132-.734-.625-.227-.774 9.145-2.703 19.676.633 25.602 8.13.332.413-.3.913-.629.495M165.613 106.738c-9.539-8.668-13.597-22.828-10.093-35.234.152-.504.917-.293.773.223-3.422 12.113.539 25.949 9.86 34.418s23.46 11.074 35.19 6.511c.5-.191.778.563.29.746-11.961 4.668-26.442 2.04-36.02-6.664M205.672 195.898c7.539-12.23 22.207-19.695 36.547-18.656.496.043.508.813-.063.805-13.996-1.098-28.418 6.293-35.8 18.273-.282.453-.961.028-.684-.422M207.34 181.813c7.308-10.899 20.508-17.618 33.617-17.231.563.016.465.887-.027.8-12.86-.413-25.766 6.2-32.922 16.876-.29.445-.969-.008-.668-.446m0 0"/><path fill="#ff9b78" d="M175.16 93.371c.278-.992.899-1.785 1.395-2.422a1.207 1.207 0 0 1 1.691-.21c.527.41.621 1.167.211 1.69-.406.524-.828 1.063-.98 1.602-.407 1.45.941 1.059 2.226.168l11.516-8.015a1.203 1.203 0 0 1 1.676.3 1.21 1.21 0 0 1-.301 1.68l-11.516 8.016c-4.074 2.828-6.742.101-5.918-2.809M114.516 182.504c-7.868-6.488-19.547-24.934-39.27-28.496-18.187-3.285-23.492-.344-26.992 1.605l-.934.512c-2.933 1.55-1.808 7.383-1.797 7.441a1.21 1.21 0 0 1-.933 1.43c-.633.113-1.29-.277-1.426-.934-.066-.312-1.555-7.644 3.027-10.07l.895-.488c3.8-2.11 9.55-5.309 28.586-1.871 15.586 2.82 26.195 14.226 33.945 22.554 2.461 2.649 4.59 4.938 6.43 6.45.516.425.59 1.183.168 1.699a1.21 1.21 0 0 1-1.7.168m0 0"/><path fill="#ff9b78" d="M105.95 191.715c-17.048-5.348-33.337-14.195-47.098-25.582a1.21 1.21 0 0 1-.16-1.7 1.195 1.195 0 0 1 1.695-.16c13.527 11.192 29.531 19.887 46.285 25.145 1.5.465.824 2.785-.723 2.297M84.684 189.633A28.1 28.1 0 0 1 74 185.086a1.207 1.207 0 0 1-.293-1.68 1.21 1.21 0 0 1 1.68-.293 25.6 25.6 0 0 0 9.754 4.153 1.205 1.205 0 0 1-.457 2.367M214.473 197.617a1.21 1.21 0 0 1-.016-1.707c7.344-7.5 17.856-9.805 27.813-11.875a1.21 1.21 0 0 1 1.425.934 1.2 1.2 0 0 1-.933 1.426c-9.375 1.945-19.649 4.125-26.582 11.207a1.21 1.21 0 0 1-1.707.015M262.84 263.54a1.21 1.21 0 0 1-.95-1.419c.497-2.508.462-5.144-.105-7.633a1.2 1.2 0 0 1 .91-1.441c.664-.168 1.293.258 1.442.906.64 2.817.683 5.805.12 8.64a1.21 1.21 0 0 1-1.417.946M254.367 227.852l-15.844-29.84a1.2 1.2 0 0 1 .5-1.63 1.2 1.2 0 0 1 1.63.5l15.843 29.837a1.205 1.205 0 1 1-2.129 1.133m0 0"/><path fill="#ff9b78" d="m248.598 221.84-12.903-16.707a1.207 1.207 0 0 1 .215-1.696 1.213 1.213 0 0 1 1.692.22l12.902 16.706c.41.528.312 1.285-.215 1.692-.52.402-1.277.32-1.691-.215m0 0"/><path fill="#77a6e8" d="M32.617 196.23v61.567l-10.062.883v-62.45c0-2.105 10.062-2.105 10.062 0m0 0"/><path fill="#426fc4" d="M22.227 255.777v-39.375c0-.433.656-.433.656 0v39.375c0 .434-.656.434-.656 0m0 0"/><path fill="#f16997" d="m16.95 255.367-3.466-43.078c-.039-.547.754-.562.805-.062l3.461 43.078c.04.53-.754.593-.8.062m0 0"/><path fill="#426fc4" d="M27.938 253.164v-52.5c0-.531.804-.531.804 0v52.5c0 .531-.805.531-.805 0m0 0"/><path fill="#f16997" d="m9.184 253.203-3.82-40.254c-.051-.508.75-.633.796-.074l3.82 40.25c.051.523-.75.617-.796.078m0 0"/><path fill="#ff9b78" d="m152.195 236.863-6.828-7.652a1.205 1.205 0 1 1 1.797-1.61l6.828 7.653a1.205 1.205 0 1 1-1.797 1.61M160.059 234.316c-.907 0-.676-.351-9.176-8.242a1.21 1.21 0 0 1-.047-1.707c.46-.484 1.226-.5 1.707-.047l8.344 7.914c.793.754.254 2.082-.828 2.082M162.168 223.79c-.66 0-.59-.231-7.617-4.606a1.2 1.2 0 0 1-.375-1.66c.36-.567 1.113-.735 1.66-.376l6.98 4.418c1.016.641.555 2.223-.648 2.223m0 0"/><path fill="#997458" d="M130.176 330.457c-.414 0-.422-.613-.02-.633 3.301-.187 6.54-.879 9.617-2.054 1.125-.426.739-1.086-.203-1.618a25.7 25.7 0 0 0-7.375-2.75.313.313 0 0 1-.246-.37c.035-.173.227-.305.371-.25a26.2 26.2 0 0 1 7.559 2.816c1.394.78 1.812 2.113.125 2.765a32.5 32.5 0 0 1-9.809 2.094zm0 0"/><path fill="#997458" d="M127.895 336.04a.315.315 0 0 1-.313-.267c-.102-.609-.117-.16 18.707-3.375 1.695-.277 3.5-.75 4.043-2.183.422-1.117-.16-2.32-.793-3.012-1.09-1.195-1.672-1.3-16.273-8.601-.38-.188-.094-.75.285-.57l13.363 6.683c1.05.523 2.238 1.117 3.098 2.062.988 1.086 1.347 2.524.914 3.66-.656 1.739-2.664 2.286-4.54 2.59zm0 0"/><path fill="#997458" d="M127.043 342.574c-.383 0-.434-.562-.05-.633 31.612-5.359 31.48-5.148 33.413-6.125 3.422-1.726 3.781-5.164 1.164-7.75-1.61-1.586-1.41-1.304-24.234-12.175-.387-.18-.098-.758.27-.57 22.039 10.488 22.687 10.597 24.41 12.292 2.894 2.852 2.539 6.825-1.32 8.77-1.997 1.008-1.446.738-33.598 6.187a.3.3 0 0 1-.055.004m0 0"/><path fill="#997458" d="M151.402 343.754c-.379 0-.437-.547-.07-.625a90.2 90.2 0 0 0 19.879-6.938c1.5-.73 2.934-1.601 3.293-3.02.254-.991-.094-2.167-.934-3.14-1.09-1.273-1.68-1.453-23.367-14.527-.367-.219-.027-.762.324-.543 22.168 13.36 22.328 13.262 23.528 14.656.972 1.13 1.37 2.52 1.066 3.711-.422 1.672-1.996 2.637-3.633 3.434a90.8 90.8 0 0 1-20.02 6.988c-.019.004-.046.004-.066.004M160.875 315.895c-.387-.141-.191-.739.219-.598 14.586 5.297 29.808 21.168 47.422 12.555 5.714-2.797 10.234-7.82 14.222-12.254.285-.317.754.113.473.425-4.027 4.477-8.594 9.547-14.418 12.399-17.969 8.781-33.637-7.344-47.918-12.527m0 0"/><path fill="#997458" d="M173.29 315.945c-.372-.168-.13-.75.265-.578 19.629 8.848 21.164 9.875 24.48 9.875 5.153 0 8.934-4.148 12.11-7.734.277-.32.757.101.476.418-3.34 3.777-7.113 7.851-12.398 7.949-3.582.18-6.996-1.855-24.934-9.93m0 0"/><path fill="#997458" d="M188.574 316.898c-.332-.253.043-.765.383-.511 2.035 1.523 6.625 4.074 8.922 3.828 1.922-.188 3.328-1.856 4.601-3.547.254-.34.754.043.508.383-1.3 1.722-2.87 3.582-5.047 3.797-2.609.238-7.25-2.371-9.367-3.95M224.86 346.605c-12.005-6.09-14.364-7.41-17.4-8.378-3.26-1.036-7.019-1.446-11.76-1.254a68.75 68.75 0 0 0-28.384 7.363.31.31 0 0 1-.425-.137.317.317 0 0 1 .136-.43c8.836-4.488 18.743-7.062 28.645-7.433 4.844-.188 8.648.226 11.984 1.289 2.903.922 4.387 1.766 17.492 8.414.38.188.079.762-.289.566m0 0"/><path fill="#997458" d="M186.621 343.617c5.676-4.347 13.781-4.863 20.102-.547.355.246-.028.766-.36.528-6.043-4.13-13.84-3.692-19.355.523-.332.254-.719-.25-.387-.504M179.316 335.04c-.363 0-.441-.524-.082-.622 1.09-.309 2.192-.684 2.641-1.578.469-.93.004-2.113-.695-2.805-.793-.777-1.88-1.183-2.93-1.578-.371-.144-.2-.727.227-.598 1.058.399 2.261.848 3.148 1.727.84.824 1.45 2.285.816 3.543-.566 1.121-1.863 1.57-3.039 1.898a.3.3 0 0 1-.086.012M239.805 347.004l-25.32-9.117c-2.387-.848-4.731-1.957-4.36-4.551.797-5.582 14.36-12.965 16.668-13.879 5.387-2.137 11.441-2.5 17.059-1.035.394.101.265.707-.165.613-5.48-1.433-11.398-1.078-16.66 1.012-2.906 1.152-15.574 8.484-16.273 13.383-.313 2.195 1.883 3.129 3.941 3.863l25.32 9.113c.395.14.184.739-.21.598m0 0"/><path fill="#997458" d="M245.797 343.45c-2.7-.618-9.3-1.333-19.297-5.688-1.883-.82-4.086-2.04-4.43-4.246-.261-1.688.723-3.485 2.856-5.188 5.097-4.086 11.734-6.14 18.277-5.605.379.035.422.629-.05.632-6.321-.507-12.856 1.485-17.833 5.47-1.355 1.085-2.906 2.757-2.62 4.593.288 1.902 2.32 3.008 4.05 3.762a80.8 80.8 0 0 0 19.098 5.64c.386.063.336.63-.051.63m0 0"/><path fill="#997458" d="M246.004 338.293c-1.582-.164-5.297.031-10.996-2.078-8.25-3.07 1.058-10.719 9.629-8.235.41.114.218.73-.176.61-7.606-2.188-16.629 4.285-9.234 7.027a32.9 32.9 0 0 0 10.78 2.043c.419.008.415.633-.003.633m0 0"/><path fill="#997458" d="M243.723 334.57c-2.336-.797-3.899-1.504-3.926-2.39-.016-.657.793-.985 1.062-1.09 1.34-.547 2.637.383 3.82.195.383-.086.54.559.098.63-1.25.222-2.617-.665-3.68-.235-.492.199-.667.382-.663.484.015.711 3.566 1.813 3.964 1.969a.313.313 0 0 1 .18.41c-.133.352-.496.148-.855.027m0 0"/><path fill="#e83866" d="m155.418 255.375 2.512-8.457c.125-.43.765-.23.636.187l-2.507 8.458c-.13.433-.77.23-.641-.188M151.602 255.32l-25.848-8.902c-.418-.145-.2-.785.219-.633l25.847 8.903c.41.14.211.777-.218.632m0 0"/><path fill="#273454" d="m92.004 296.906 3.668-36.71c.047-.532.851-.45.797.081L92.8 296.988c-.051.532-.852.453-.797-.082M94.7 284.074l7.155-4.375c.204-6.39.528-14.05.73-20.586.017-.535.821-.511.806.024-.2 6.465-.528 14.09-.739 20.804l-.004.215-7.527 4.602c-.45.277-.879-.403-.422-.684M35.746 290.95l13.836-6.774c3.836-9.754 6.32-21.18 7.383-33.973.043-.5.844-.484.805.07-1.079 12.93-3.602 24.485-7.497 34.34l-.054.145-14.121 6.914c-.48.238-.828-.492-.352-.723M143.64 288.973c-4.382-1.422-8.663-4.051-12.046-7.403l-.106-.101-.011-.145-2.329-24.887c-.05-.503.75-.644.797-.074l2.317 24.739c3.281 3.214 7.406 5.738 11.625 7.105.508.164.261.922-.246.766m0 0"/><path fill="#997458" d="M120.094 224.602c-23.942-5.926-46.918-17.02-66.446-32.094-.421-.32.07-.961.489-.633 19.441 15.004 42.316 26.047 66.152 31.945.52.133.313.918-.195.782M172.27 191.95c-.45-.09-13.45.116-25.872-8.993-.425-.312.043-.965.477-.648 7.32 5.367 16.344 8.504 25.41 8.836.52.02.508.804-.015.804M189.152 170.586c-4.02-9.832-4.902-20.938-2.488-31.281.125-.504.906-.344.785.183-2.379 10.18-1.512 21.117 2.446 30.797.203.485-.543.797-.743.3m0 0"/></svg>