<svg xmlns="http://www.w3.org/2000/svg" width="550" height="550" version="1.0" viewBox="0 0 412.5 412.5"><defs><clipPath id="a"><path d="M191 47.566h221V306H191Zm0 0"/></clipPath><clipPath id="b"><path d="M78 47.566h222V175H78Zm0 0"/></clipPath><clipPath id="c"><path d="M177 354h20v10h-20Zm0 0"/></clipPath><clipPath id="d"><path d="M178.39 354.848s-.554 3.203-.835 6.332a2.19 2.19 0 0 0 1.238 2.16q.406.188.852.207c4.218.176 13.246.52 16.464.379a.66.66 0 0 0 .32-.094.7.7 0 0 0 .243-.234.64.64 0 0 0 .105-.317.7.7 0 0 0-.047-.328q-.24-.59-.812-.863l-14.89-6.774Zm0 0"/></clipPath><clipPath id="f"><path d="M177 352h6v6h-6Zm0 0"/></clipPath><clipPath id="g"><path d="m177.938 352.973.453 3.797s2.609 1.27 4.394-.149l-1.09-4.27Zm0 0"/></clipPath><clipPath id="i"><path d="M159 356h9v8.434h-9Zm0 0"/></clipPath><clipPath id="j"><path d="M161.242 356.582a23 23 0 0 0-1.77 5.914 1.33 1.33 0 0 0 .65 1.426q.245.14.526.168c1.395.14 3.536.316 5.258.305.184-.008.356-.055.524-.137a1.3 1.3 0 0 0 .425-.332 1.3 1.3 0 0 0 .262-.473q.083-.264.055-.539c-.234-2.32-1.106-4.371-2.621-6.144Zm0 0"/></clipPath><clipPath id="l"><path d="M160 351h5v7h-5Zm0 0"/></clipPath><clipPath id="m"><path d="m160.457 351.59 1.055 5.8q.72.393 1.539.446.82.057 1.586-.23l-.504-6.231Zm0 0"/></clipPath><clipPath id="o"><path d="M164 206h19v19h-19Zm0 0"/></clipPath><clipPath id="p"><path d="M173.871 220.031a.33.33 0 0 0 .195-.215.33.33 0 0 0-.043-.289 9 9 0 0 1-1.265-2.648s-.813-.508 2.039-1.191c2.848-.684 7.117-1.747 8.004-4.18.883-2.43-2.676-6.153-5.067-3.57a.35.35 0 0 1-.28.136.34.34 0 0 1-.278-.137 3.61 3.61 0 0 0-3.145-1.668 3.6 3.6 0 0 0-1.21.25q-.5.165-.923.481a3.26 3.26 0 0 0-1.187 1.672 3.3 3.3 0 0 0-.145 1.027.33.33 0 0 1-.117.274.33.33 0 0 1-.289.082 3.976 3.976 0 0 0-4.672 2.175c-.965 2.102-.343 3.282.227 3.801q.063.064.086.156a.34.34 0 0 1 0 .176.34.34 0 0 1-.086.157.4.4 0 0 1-.153.093 2.04 2.04 0 0 0-1.195.907 2.08 2.08 0 0 0-.273 1.473c.125 2.19 2.531 2.003 3.281 1.902q.187-.028.316.113c.594.66 3.305 3.484 6.243 3.8q.088.012.171-.023a.33.33 0 0 0 .211-.262.3.3 0 0 0-.015-.171l-1.266-3.7a.35.35 0 0 1 .012-.25.37.37 0 0 1 .176-.18Zm0 0"/></clipPath><linearGradient id="e" x1="2542.547" x2="2531.954" y1="240.589" y2="252.112" gradientTransform="translate(-3026.032 47.567)scale(1.26645)" gradientUnits="userSpaceOnUse"><stop offset="0" stop-color="#52D3FF"/><stop offset=".016" stop-color="#52D3FF"/><stop offset=".031" stop-color="#52D2FF"/><stop offset=".047" stop-color="#52D2FF"/><stop offset=".063" stop-color="#52D1FF"/><stop offset=".078" stop-color="#52D1FF"/><stop offset=".094" stop-color="#51D0FF"/><stop offset=".109" stop-color="#51CFFF"/><stop offset=".125" stop-color="#51CFFF"/><stop offset=".141" stop-color="#51CEFE"/><stop offset=".156" stop-color="#51CEFE"/><stop offset=".172" stop-color="#51CDFE"/><stop offset=".188" stop-color="#51CDFE"/><stop offset=".203" stop-color="#51CCFE"/><stop offset=".219" stop-color="#51CBFE"/><stop offset=".234" stop-color="#51CBFE"/><stop offset=".25" stop-color="#50CAFE"/><stop offset=".266" stop-color="#50CAFE"/><stop offset=".281" stop-color="#50C9FE"/><stop offset=".297" stop-color="#50C8FE"/><stop offset=".313" stop-color="#50C8FE"/><stop offset=".328" stop-color="#50C7FE"/><stop offset=".342" stop-color="#50C7FE"/><stop offset=".344" stop-color="#50C6FE"/><stop offset=".359" stop-color="#50C6FE"/><stop offset=".375" stop-color="#50C6FE"/><stop offset=".391" stop-color="#50C5FE"/><stop offset=".406" stop-color="#4FC4FE"/><stop offset=".422" stop-color="#4FC4FE"/><stop offset=".438" stop-color="#4FC3FE"/><stop offset=".453" stop-color="#4FC3FE"/><stop offset=".469" stop-color="#4FC2FE"/><stop offset=".484" stop-color="#4FC1FE"/><stop offset=".5" stop-color="#4FC1FE"/><stop offset=".516" stop-color="#4FC0FE"/><stop offset=".531" stop-color="#4FC0FE"/><stop offset=".547" stop-color="#4FBFFE"/><stop offset=".563" stop-color="#4EBFFE"/><stop offset=".578" stop-color="#4EBEFE"/><stop offset=".594" stop-color="#4EBDFE"/><stop offset=".609" stop-color="#4EBDFE"/><stop offset=".625" stop-color="#4EBCFE"/><stop offset=".641" stop-color="#4EBCFE"/><stop offset=".656" stop-color="#4EBBFD"/><stop offset=".658" stop-color="#4EBAFD"/><stop offset=".672" stop-color="#4EBAFD"/><stop offset=".688" stop-color="#4EBAFD"/><stop offset=".703" stop-color="#4DB9FD"/><stop offset=".719" stop-color="#4DB9FD"/><stop offset=".734" stop-color="#4DB8FD"/><stop offset=".75" stop-color="#4DB8FD"/><stop offset=".766" stop-color="#4DB7FD"/><stop offset=".781" stop-color="#4DB6FD"/><stop offset=".797" stop-color="#4DB6FD"/><stop offset=".813" stop-color="#4DB5FD"/><stop offset=".828" stop-color="#4DB5FD"/><stop offset=".844" stop-color="#4DB4FD"/><stop offset=".859" stop-color="#4CB3FD"/><stop offset=".875" stop-color="#4CB3FD"/><stop offset=".891" stop-color="#4CB2FD"/><stop offset=".906" stop-color="#4CB2FD"/><stop offset=".922" stop-color="#4CB1FD"/><stop offset=".938" stop-color="#4CB1FD"/><stop offset=".953" stop-color="#4CB0FD"/><stop offset=".969" stop-color="#4CAFFD"/><stop offset=".984" stop-color="#4CAFFD"/><stop offset="1" stop-color="#4CAEFD"/></linearGradient><linearGradient id="h" x1="2529.88" x2="2533.71" y1="242.62" y2="242.62" gradientTransform="translate(-3026.032 47.567)scale(1.26645)" gradientUnits="userSpaceOnUse"><stop offset="0" stop-color="#F9B776"/><stop offset=".016" stop-color="#F9B776"/><stop offset=".031" stop-color="#F9B676"/><stop offset=".047" stop-color="#F9B575"/><stop offset=".063" stop-color="#F9B475"/><stop offset=".078" stop-color="#F9B375"/><stop offset=".094" stop-color="#F8B274"/><stop offset=".109" stop-color="#F8B174"/><stop offset=".125" stop-color="#F8B073"/><stop offset=".141" stop-color="#F8AF73"/><stop offset=".156" stop-color="#F8AE73"/><stop offset=".172" stop-color="#F8AD72"/><stop offset=".188" stop-color="#F8AC72"/><stop offset=".203" stop-color="#F8AB72"/><stop offset=".219" stop-color="#F8AA71"/><stop offset=".234" stop-color="#F8A971"/><stop offset=".25" stop-color="#F8A871"/><stop offset=".266" stop-color="#F8A770"/><stop offset=".281" stop-color="#F8A670"/><stop offset=".297" stop-color="#F7A570"/><stop offset=".313" stop-color="#F7A46F"/><stop offset=".328" stop-color="#F7A36F"/><stop offset=".344" stop-color="#F7A26F"/><stop offset=".359" stop-color="#F7A16E"/><stop offset=".375" stop-color="#F7A06E"/><stop offset=".391" stop-color="#F79F6E"/><stop offset=".406" stop-color="#F79E6D"/><stop offset=".422" stop-color="#F79D6D"/><stop offset=".438" stop-color="#F79C6D"/><stop offset=".453" stop-color="#F79B6C"/><stop offset=".469" stop-color="#F79B6C"/><stop offset=".484" stop-color="#F79A6B"/><stop offset=".5" stop-color="#F6996B"/><stop offset=".516" stop-color="#F6986B"/><stop offset=".531" stop-color="#F6976A"/><stop offset=".547" stop-color="#F6966A"/><stop offset=".563" stop-color="#F6956A"/><stop offset=".578" stop-color="#F69469"/><stop offset=".594" stop-color="#F69369"/><stop offset=".609" stop-color="#F69269"/><stop offset=".625" stop-color="#F69168"/><stop offset=".641" stop-color="#F69068"/><stop offset=".656" stop-color="#F68F68"/><stop offset=".672" stop-color="#F68E67"/><stop offset=".688" stop-color="#F68D67"/><stop offset=".703" stop-color="#F68C67"/><stop offset=".719" stop-color="#F58B66"/><stop offset=".734" stop-color="#F58A66"/><stop offset=".75" stop-color="#F58966"/><stop offset=".766" stop-color="#F58865"/><stop offset=".781" stop-color="#F58765"/><stop offset=".797" stop-color="#F58665"/><stop offset=".813" stop-color="#F58564"/><stop offset=".828" stop-color="#F58464"/><stop offset=".844" stop-color="#F58364"/><stop offset=".859" stop-color="#F58263"/><stop offset=".875" stop-color="#F58163"/><stop offset=".891" stop-color="#F58062"/><stop offset=".906" stop-color="#F57F62"/><stop offset=".922" stop-color="#F47E62"/><stop offset=".938" stop-color="#F47D61"/><stop offset=".953" stop-color="#F47D61"/><stop offset=".969" stop-color="#F47C61"/><stop offset=".984" stop-color="#F47B60"/><stop offset="1" stop-color="#F47A60"/></linearGradient><linearGradient id="k" x1="2521.485" x2="2515.601" y1="244.083" y2="250.484" gradientTransform="translate(-3026.032 47.567)scale(1.26645)" gradientUnits="userSpaceOnUse"><stop offset="0" stop-color="#4BABFD"/><stop offset=".031" stop-color="#4BABFD"/><stop offset=".063" stop-color="#4BAAFD"/><stop offset=".094" stop-color="#4BAAFD"/><stop offset=".125" stop-color="#4BA9FD"/><stop offset=".156" stop-color="#4AA8FD"/><stop offset=".188" stop-color="#4AA8FC"/><stop offset=".219" stop-color="#4AA7FC"/><stop offset=".25" stop-color="#4AA6FC"/><stop offset=".281" stop-color="#4AA6FC"/><stop offset=".313" stop-color="#4AA5FC"/><stop offset=".344" stop-color="#4AA4FC"/><stop offset=".375" stop-color="#4AA4FC"/><stop offset=".406" stop-color="#4AA3FC"/><stop offset=".438" stop-color="#49A2FC"/><stop offset=".469" stop-color="#49A2FC"/><stop offset=".477" stop-color="#49A1FC"/><stop offset=".5" stop-color="#49A1FC"/><stop offset=".523" stop-color="#49A0FC"/><stop offset=".531" stop-color="#49A0FC"/><stop offset=".563" stop-color="#49A0FC"/><stop offset=".594" stop-color="#499FFC"/><stop offset=".625" stop-color="#499FFC"/><stop offset=".656" stop-color="#499EFC"/><stop offset=".688" stop-color="#499DFC"/><stop offset=".719" stop-color="#489DFC"/><stop offset=".75" stop-color="#489CFC"/><stop offset=".781" stop-color="#489BFC"/><stop offset=".813" stop-color="#489BFC"/><stop offset=".844" stop-color="#489AFC"/><stop offset=".875" stop-color="#4899FC"/><stop offset=".906" stop-color="#4899FC"/><stop offset=".938" stop-color="#4898FC"/><stop offset=".969" stop-color="#4797FC"/><stop offset="1" stop-color="#4797FC"/></linearGradient><linearGradient id="n" x1="2516.08" x2="2519.38" y1="242.43" y2="242.43" gradientTransform="translate(-3026.032 47.567)scale(1.26645)" gradientUnits="userSpaceOnUse"><stop offset="0" stop-color="#F9B776"/><stop offset=".016" stop-color="#F9B776"/><stop offset=".031" stop-color="#F9B676"/><stop offset=".047" stop-color="#F9B575"/><stop offset=".063" stop-color="#F9B475"/><stop offset=".078" stop-color="#F9B375"/><stop offset=".094" stop-color="#F8B274"/><stop offset=".109" stop-color="#F8B174"/><stop offset=".125" stop-color="#F8B073"/><stop offset=".141" stop-color="#F8AF73"/><stop offset=".156" stop-color="#F8AE73"/><stop offset=".172" stop-color="#F8AD72"/><stop offset=".188" stop-color="#F8AC72"/><stop offset=".203" stop-color="#F8AB72"/><stop offset=".219" stop-color="#F8AA71"/><stop offset=".234" stop-color="#F8A971"/><stop offset=".25" stop-color="#F8A871"/><stop offset=".266" stop-color="#F8A770"/><stop offset=".281" stop-color="#F8A670"/><stop offset=".297" stop-color="#F7A570"/><stop offset=".313" stop-color="#F7A46F"/><stop offset=".328" stop-color="#F7A36F"/><stop offset=".344" stop-color="#F7A26F"/><stop offset=".359" stop-color="#F7A16E"/><stop offset=".375" stop-color="#F7A06E"/><stop offset=".391" stop-color="#F79F6E"/><stop offset=".406" stop-color="#F79E6D"/><stop offset=".422" stop-color="#F79E6D"/><stop offset=".438" stop-color="#F79D6D"/><stop offset=".453" stop-color="#F79C6C"/><stop offset=".469" stop-color="#F79B6C"/><stop offset=".484" stop-color="#F79A6C"/><stop offset=".5" stop-color="#F6996B"/><stop offset=".516" stop-color="#F6986B"/><stop offset=".531" stop-color="#F6976A"/><stop offset=".547" stop-color="#F6966A"/><stop offset=".563" stop-color="#F6956A"/><stop offset=".578" stop-color="#F69469"/><stop offset=".594" stop-color="#F69369"/><stop offset=".609" stop-color="#F69269"/><stop offset=".625" stop-color="#F69168"/><stop offset=".641" stop-color="#F69068"/><stop offset=".656" stop-color="#F68F68"/><stop offset=".672" stop-color="#F68E67"/><stop offset=".688" stop-color="#F68D67"/><stop offset=".703" stop-color="#F68C67"/><stop offset=".719" stop-color="#F58B66"/><stop offset=".734" stop-color="#F58A66"/><stop offset=".75" stop-color="#F58966"/><stop offset=".766" stop-color="#F58865"/><stop offset=".781" stop-color="#F58765"/><stop offset=".797" stop-color="#F58665"/><stop offset=".813" stop-color="#F58564"/><stop offset=".828" stop-color="#F58464"/><stop offset=".844" stop-color="#F58364"/><stop offset=".859" stop-color="#F58263"/><stop offset=".875" stop-color="#F58263"/><stop offset=".891" stop-color="#F58163"/><stop offset=".906" stop-color="#F58062"/><stop offset=".922" stop-color="#F47F62"/><stop offset=".938" stop-color="#F47E61"/><stop offset=".953" stop-color="#F47D61"/><stop offset=".969" stop-color="#F47C61"/><stop offset=".984" stop-color="#F47B60"/><stop offset="1" stop-color="#F47A60"/></linearGradient><linearGradient id="q" x1="-3198.414" x2="-3194.081" y1="-152.867" y2="-128.157" gradientTransform="rotate(-41.776 -1415.922 -5516.168)scale(1.27365)" gradientUnits="userSpaceOnUse"><stop offset="0" stop-color="#28307A"/><stop offset=".008" stop-color="#283079"/><stop offset=".016" stop-color="#282F79"/><stop offset=".023" stop-color="#282F78"/><stop offset=".031" stop-color="#272E77"/><stop offset=".039" stop-color="#272E76"/><stop offset=".047" stop-color="#272D76"/><stop offset=".055" stop-color="#272D75"/><stop offset=".063" stop-color="#262D74"/><stop offset=".07" stop-color="#262C74"/><stop offset=".078" stop-color="#262C73"/><stop offset=".086" stop-color="#262B72"/><stop offset=".094" stop-color="#252B71"/><stop offset=".102" stop-color="#252A71"/><stop offset=".109" stop-color="#252A70"/><stop offset=".117" stop-color="#252A6F"/><stop offset=".125" stop-color="#24296F"/><stop offset=".133" stop-color="#24296E"/><stop offset=".141" stop-color="#24286D"/><stop offset=".148" stop-color="#24286C"/><stop offset=".149" stop-color="#23276C"/><stop offset=".156" stop-color="#23276B"/><stop offset=".164" stop-color="#23276B"/><stop offset=".172" stop-color="#23276A"/><stop offset=".18" stop-color="#23266A"/><stop offset=".188" stop-color="#222669"/><stop offset=".195" stop-color="#222568"/><stop offset=".203" stop-color="#222568"/><stop offset=".211" stop-color="#222467"/><stop offset=".219" stop-color="#212466"/><stop offset=".227" stop-color="#212465"/><stop offset=".234" stop-color="#212365"/><stop offset=".242" stop-color="#212364"/><stop offset=".25" stop-color="#202263"/><stop offset=".258" stop-color="#202263"/><stop offset=".266" stop-color="#202162"/><stop offset=".273" stop-color="#202161"/><stop offset=".281" stop-color="#1F2160"/><stop offset=".289" stop-color="#1F2060"/><stop offset=".297" stop-color="#1F205F"/><stop offset=".305" stop-color="#1F1F5E"/><stop offset=".313" stop-color="#1E1F5E"/><stop offset=".32" stop-color="#1E1E5D"/><stop offset=".328" stop-color="#1E1E5C"/><stop offset=".336" stop-color="#1E1E5B"/><stop offset=".344" stop-color="#1D1D5B"/><stop offset=".352" stop-color="#1D1D5A"/><stop offset=".359" stop-color="#1D1C59"/><stop offset=".367" stop-color="#1D1C59"/><stop offset=".375" stop-color="#1C1B58"/><stop offset=".383" stop-color="#1C1B57"/><stop offset=".391" stop-color="#1C1A57"/><stop offset=".398" stop-color="#1C1A56"/><stop offset=".406" stop-color="#1C1A55"/><stop offset=".414" stop-color="#1B1954"/><stop offset=".422" stop-color="#1B1954"/><stop offset=".43" stop-color="#1B1853"/><stop offset=".438" stop-color="#1B1852"/><stop offset=".445" stop-color="#1A1752"/><stop offset=".453" stop-color="#1A1751"/><stop offset=".461" stop-color="#1A1750"/><stop offset=".469" stop-color="#1A164F"/><stop offset=".477" stop-color="#19164F"/><stop offset=".484" stop-color="#19154E"/><stop offset=".492" stop-color="#19154D"/><stop offset=".5" stop-color="#19144D"/><stop offset=".508" stop-color="#18144C"/><stop offset=".516" stop-color="#18144B"/><stop offset=".523" stop-color="#18134A"/><stop offset=".531" stop-color="#18134A"/><stop offset=".539" stop-color="#171249"/><stop offset=".547" stop-color="#171248"/><stop offset=".555" stop-color="#171148"/><stop offset=".563" stop-color="#171147"/><stop offset=".57" stop-color="#161146"/><stop offset=".578" stop-color="#161046"/><stop offset=".586" stop-color="#161045"/><stop offset=".594" stop-color="#160F44"/><stop offset=".602" stop-color="#150F43"/><stop offset=".609" stop-color="#150E43"/><stop offset=".625" stop-color="#150E42"/><stop offset=".75" stop-color="#150E42"/><stop offset=".851" stop-color="#150E42"/><stop offset="1" stop-color="#150E42"/></linearGradient></defs><path fill="#dfc373" fill-rule="evenodd" d="m197.453 114.512 112.75 186.863L91.31 174.996Zm0 0"/><g clip-path="url(#a)"><path fill="#bb6f31" fill-rule="evenodd" d="M191.918 109.89 299.16 47.567l112.777 195.352-107.242 62.32Zm0 0"/></g><g clip-path="url(#b)"><path fill="#915422" fill-rule="evenodd" d="m78.406 174.594 107.242-62.324L299.16 47.566l-107.242 62.325Zm0 0"/></g><path fill="#ecdb94" fill-rule="evenodd" d="m191.918 109.89 112.777 195.348-11.816-6.812-103.914-178.57-101.656 57.94-8.903-3.202Zm0 0"/><path fill="#ccb066" fill-rule="evenodd" d="M188.965 119.855 87.309 177.797l6.359-1.52 96.668-54.054Zm0 0"/><path fill="#dfc373" fill-rule="evenodd" d="m246.047 87.55 5.05-2.94 112.766 195.34-5.039 2.937Zm0 0"/><path fill="#ecdb94" fill-rule="evenodd" d="m246.047 87.55 112.777 195.337-7.8-4.508L242.437 90.297Zm0 0"/><path fill="#dfc373" fill-rule="evenodd" d="m288.902 62.992 5.055-2.937L406.734 255.39l-5.054 2.937Zm0 0"/><path fill="#ecdb94" fill-rule="evenodd" d="M288.902 62.992 401.68 258.328l-7.801-4.508L285.293 65.754Zm0 0"/><path fill="#dfc373" fill-rule="evenodd" d="m256.61 95.11 38.968-21.098 2.758 4.773-38.98 21.086ZM274.742 126.441l38.969-21.097 2.762 4.773-38.98 21.086ZM292.867 157.773l38.969-21.097 2.758 4.773-38.98 21.086ZM311 189.105l38.969-21.113 2.761 4.79-38.98 21.085ZM329.125 220.438l38.98-21.114 2.75 4.79-38.984 21.085ZM347.262 251.77l38.968-21.114 2.758 4.79-38.98 21.085Zm0 0"/><path fill="#279cd6" fill-rule="evenodd" d="m363.23 235.484 4.915-.367c2.62 2.899 3.937 4.293 3.671 6.016-.39 2.43-3.445 3.797-5.609 3.898q-.346.019-.684.09c-.914.191-1.558.543-2.636.734-3.367.57-8.383.735-11.004-1.265-1.621-1.266-1.547-3.586.898-4.535l6.043-2.328Zm0 0"/><path fill="#163240" fill-rule="evenodd" d="M371.348 239.016q.627.97.468 2.117c-.39 2.43-3.445 3.797-5.609 3.898q-.346.019-.684.09c-.914.191-1.558.543-2.636.734-3.367.57-8.383.735-11.004-1.265a2.58 2.58 0 0 1-1.04-1.547c2.04 2.203 8.75 2.18 14.2.863 3.57-.812 6.875-2.57 6.305-4.89m0 0"/><path fill="#0d3569" fill-rule="evenodd" d="M348.957 203.035c6.473 6.637 7.535 8.399 9.625 12.375l10.031 19.594c.532 2.633-7.664 5.797-10.133 3.355l-19.882-32.648c-4.004-9.223 4.191-10.274 10.359-2.676m0 0"/><path fill="#0d3569" fill-rule="evenodd" d="M341.258 161.79c2.797 5.66 6.648 7.89 8.762 13.562 3.585 9.585-2.141 21.226.101 29.738 1.774 6.785-10.84 4.937-12.828-3.078-1.266-9.489-2.293-24.14-2.95-33.676Zm0 0"/><path fill="#0f4283" fill-rule="evenodd" d="M334.129 166.89c2.723 5.145 5.305 6.258 7.52 11.098 2.394 5.215.925 12.496-7.32 12.461-2.153 0-4.532-.152-6.333-.09-6.8.254-14.828-1.14-17.969-5.066a5 5 0 0 1-.636-.914 5 5 0 0 1-.426-1.027 5.294 5.294 0 0 1-.156-2.207q.082-.557.28-1.079c.134-.347.298-.68.505-.992a5.15 5.15 0 0 1 1.574-1.554c4.355-2.79 9.875.417 15.828-2.305Zm0 0"/><path fill="#279cd6" fill-rule="evenodd" d="m331.203 209.75 4.926-.266c2.531 2.938 3.797 4.368 3.558 6.078-.43 2.418-3.507 3.801-5.675 3.801q-.344 0-.684.075c-.91.175-1.57.519-2.644.683-3.395.52-8.41.582-10.98-1.418-1.61-1.266-1.497-3.61.96-4.508l6.094-2.218Zm0 0"/><path fill="#163240" fill-rule="evenodd" d="M339.258 213.473q.604.985.43 2.129c-.43 2.418-3.508 3.796-5.676 3.796q-.344.001-.684.079c-.91.175-1.57.52-2.644.683-3.395.52-8.41.582-10.98-1.418a2.58 2.58 0 0 1-1.028-1.558c2 2.242 8.715 2.343 14.183 1.113 3.559-.836 6.93-2.531 6.399-4.824m0 0"/><path fill="#0f4283" fill-rule="evenodd" d="M321.629 183.332c1.266 1.266 3.594 2.406 4.367 3.938 3.332 6.675 6.75 13.93 10.93 22.367.164 3.797-8.473 5.355-10.89 2.91l-16.29-27.543c-4-9.207 5.676-9.285 11.883-1.672m0 0"/><path fill="#dfc373" fill-rule="evenodd" d="m246.047 87.55 5.05-2.94 112.766 195.34-5.039 2.937Zm0 0"/><path fill="#ecdb94" fill-rule="evenodd" d="m246.047 87.55 112.777 195.337-7.8-4.508L242.437 90.297Zm0 0"/><path fill="#d67f37" fill-rule="evenodd" d="m237.219 107.66 8.676-5.203 96.351 166.879-8.676 5.219Zm0 0"/><path fill="#9c5c28" fill-rule="evenodd" d="m237.219 107.66 96.351 166.895-6.66-3.852-92.781-160.687Zm0 0"/><path fill="#ffdba7" fill-rule="evenodd" d="M281.656 163.281c-1.746-.644-2.277-4.96-.949-6.332l20.402 2.067a6.3 6.3 0 0 1 1.329-.024q.661.053 1.3.242c.43.125.836.293 1.23.504a6.53 6.53 0 0 1 3.427 5.356c-.153 1.914-.887 3.23-1.954 3.687-1.39.606-3.378 0-5.355-.27Zm0 0"/><path fill="#edebea" fill-rule="evenodd" d="m272.465 156.547-5.067.3c-2.785-.683-3.546-1.671-6.332-1.96l3.95 6.66 4.129 2.18c6.332 1.835 8.562 1.011 11.59-.825l5.066 1.875c1.265-1.48 1.644-6.66.137-7.523a7.45 7.45 0 0 1-3.075-.305 7.6 7.6 0 0 1-2.699-1.504 38 38 0 0 0-3.293-2.535c-.672-.52-.976-1.457-2.016-2.445-1.136-1.418-1.43-1.95-2.238-1.266-.812.684-.078 2.32 1.266 4.09l.824 2.406-.117.14c-.621.294-1.328.509-2.125.712m0 0"/><path fill="#f0c17d" fill-rule="evenodd" d="M320.375 119.566c3.875 6.332 9.309 10.446 8.863 18.399l-5.191 1.27a116.5 116.5 0 0 1-9.235-17.962Zm0 0"/><path fill="#d1d0cf" fill-rule="evenodd" d="m306.39 107.8-6.077 3.696c-1.153 1.508 1.14.774 4.242.317 4.09-.606 2.535 4.347 9.398 6.636l1.582 5.637 6.688-3.7-4.13-5.062c-1.609-3.8-2.316-5.41-3.8-6.535-1.48-1.129-3.406-1.7-7.902-.988m0 0"/><path fill="#f0c17d" fill-rule="evenodd" d="M330.531 128.316c4.848 4.598 5.067 14.829 6.965 21.227 1.695 5.75-5.726 7.332-8.117 2.86l-6.031-14.157c-1.899-4.66-1.52-7.969-.352-9.93.442-.746.504-1.496 1.125-1.597a6.93 6.93 0 0 1 3.406-.008 6.9 6.9 0 0 1 3.004 1.605m0 0"/><path fill="#d1d0cf" fill-rule="evenodd" d="M330.531 128.316c3.266 3.09 4.672 8.637 5.66 13.93.797 4.84-7.98 6.156-9.98 2.7l-2.863-6.712c-1.899-4.664-1.52-7.968-.352-9.93.442-.75.504-1.495 1.125-1.597a6.9 6.9 0 0 1 3.406 0 6.9 6.9 0 0 1 3.004 1.61m0 0"/><path fill="#dedad7" fill-rule="evenodd" d="M324.047 126.39a6.2 6.2 0 0 1 1.543.09c4.512.43 7.156 6.332 8.867 12.88 1.848 7.003 2.672 14.831 4.445 18.656 0 .086-1.558 23.605-13.78 21.074-1.595-4.078-8.056-14.414-12.868-22.215-2.09-3.383-3.66-6.445-4.723-8.043-1.062-1.594-2.914-1.898-1.926-4.734a41 41 0 0 1 6.332-9.793c3.192-3.532 8.754-7.711 12.11-7.914m0 0"/><path fill="#0f4283" fill-rule="evenodd" d="M324.047 126.39q1.511.06 2.531 1.18a50 50 0 0 1 5.863 8.055c2.989 4.938 3.282 8.547 4.512 14.145a43.3 43.3 0 0 0 2.305 8.105c.543 1.191 4.129 7.434 4.695 8.79 2.356 5.66-10.762 16.972-19.082 13.538-1.523-3.887-6.715-13.144-11.539-21.656l1.027 1.57c2.532 3.801 5.063 4.852 6.598 4.078 1.531-.773 2.723-2.535 2.164-5.992-.898-5.66-7.23-20.351-14.867-18.996a19.7 19.7 0 0 1 2.328-3.18c6.75-.77 13.184 10.946 14.945 13.856 1.418 2.344 2.051 2.152 2.711 1.265l4-4.125c.219-3.902-8.09-18.34-12.144-19.238a10.1 10.1 0 0 1 3.953-1.394m0 0"/><path fill="#ffdba7" fill-rule="evenodd" d="M304.125 147.453c-5.129 15.59-2.887 19.453.71 21.238 4.38 1.266 5.634-7.93 8.712-13.629 1.547-2.835 2.824-5.949 2.164-9.105-1.453-6.965-8.23-8.71-11.586 1.496m0 0"/><path fill="#edebea" fill-rule="evenodd" d="M303.414 147.273c-.594 1.825-.695 3.637-1.152 5.168-.442 2.293 8.144 6.332 10.93 3.801 1.535-2.851 3.343-7.207 2.687-10.36-1.457-7.003-9.094-8.816-12.465 1.391m0 0"/><path fill="#f0c17d" fill-rule="evenodd" d="M316.688 121.855c.976 1.989 3.066 5.715 4.027 8.387 1.406 2.215-5.445 6.637-7.473 4.723a65 65 0 0 1-3.683-6.738Zm0 0"/><path fill="#ffdba7" fill-rule="evenodd" d="M302.3 117.895c-2.202 3.796 1.04 7.394 3.141 10.218 1.079 1.457 2.864 5.852 4.598 5.914 1.356 0 4.32-2.863 5.066-4.8.52-1.391-1.699-3.684-1.507-4.47l-6.496-8.382Zm0 0"/><path fill-rule="evenodd" d="M312.496 111.473c4.813 1.011 7.156 5.332 6.727 9.965a8.126 8.126 0 0 0 1.266 6.066c-1.66.926-4.473 2.535-7.372.687-2.902-1.851-3.722-4.789-5.293-4.296-.648.203-.851 1.27.38 3.546-2.04-1.898-3.802-4.355-5.65-6.05-3.734-3.434 4.458-11.766 9.942-9.918m0 0"/><path fill="#fdba02" fill-rule="evenodd" d="M319.105 119.617c-2.406 5.633-13.93 6.332-18.21 4.938-5.852-1.875-2.95-6.89 1.457-8.598 2.418-.937 19.718-3.32 16.753 3.66m0 0"/><path fill="#fdca01" fill-rule="evenodd" d="M319.02 117.855c-.672 5.344-10.45 6.7-15.086 5.75-1.266-.277-3.672-1.164-3.989-2.445.14-4.937 5.383-10.8 11.196-10.422q1.424.142 2.738.723A8.9 8.9 0 0 1 316.25 113a8.8 8.8 0 0 1 1.773 2.207q.71 1.242.997 2.648m0 0"/><path fill="#ffd321" fill-rule="evenodd" d="M319.02 119.082a9.8 9.8 0 0 0-1.137-2.578 9.5 9.5 0 0 0-1.836-2.14 9.657 9.657 0 0 0-5.082-2.297c-5.512-.368-10.258 5.394-11.211 9.878a11.4 11.4 0 0 1 .14-3.215c1.497-4.472 6.22-8.765 11.399-8.421q1.424.14 2.742.703c.875.37 1.68.867 2.406 1.484a9.2 9.2 0 0 1 1.856 2.137q.767 1.207 1.14 2.59a4.1 4.1 0 0 1-.417 1.859m0 0"/><path fill="#fdc201" fill-rule="evenodd" d="M319.031 119.082a9.6 9.6 0 0 0-1.14-2.578 9.64 9.64 0 0 0-4.211-3.664 9.7 9.7 0 0 0-2.715-.774c-5.512-.367-10.258 5.395-11.211 9.88h.66c.95-4.458 5.281-9.665 10.41-9.333 3.801.254 6.535 3.559 7.801 6.598Zm0 0"/><path fill="#dfc373" fill-rule="evenodd" d="m88.867 174.781 84.09 139.375L9.715 219.895Zm0 0"/><path fill="#bb6f31" fill-rule="evenodd" d="m84.738 171.336 83.942-48.86 84.117 145.696-83.953 48.86Zm0 0"/><path fill="#915422" fill-rule="evenodd" d="m.074 219.59 79.989-46.48 84.652-48.25-79.977 46.476Zm0 0"/><path fill="#ecdb94" fill-rule="evenodd" d="m84.738 171.336 84.106 145.695-8.805-5.078-77.504-133.195-75.824 43.226-6.637-2.394Zm0 0"/><path fill="#ccb066" fill-rule="evenodd" d="M82.535 178.758 6.711 221.984l4.75-1.129 72.098-40.312Zm0 0"/><g clip-path="url(#c)"><g clip-path="url(#d)"><path fill="url(#e)" d="M177.531 354.848v9.218h19.258v-9.218Zm0 0"/></g></g><g clip-path="url(#f)"><g clip-path="url(#g)"><path fill="url(#h)" d="M177.938 352.352v5.687h4.847v-5.687Zm0 0"/></g></g><path fill="#072c5e" d="M178.277 280.988c-.203 1-1.05 49.899 4.168 71.805a.73.73 0 0 1-.054.512.72.72 0 0 1-.375.351q-2.056.798-4.258.875a1.24 1.24 0 0 1-.793-.246 1.2 1.2 0 0 1-.473-.68c-1.496-5.066-8.648-30.558-9.586-54.886-1.039-27.192 0-.926 0-.926l.621-16.805Zm0 0"/><g clip-path="url(#i)"><g clip-path="url(#j)"><path fill="url(#k)" d="M159.434 356.582v7.824h7.757v-7.824Zm0 0"/></g></g><g clip-path="url(#l)"><g clip-path="url(#m)"><path fill="url(#n)" d="M160.457 351.375v6.5h4.18v-6.5Zm0 0"/></g></g><path fill="#072c5e" d="M157.582 282.48c-4.266 25.797.926 63.766 2.688 71.2.05.23.164.422.332.582q.258.24.605.293a7.5 7.5 0 0 0 3.344-.125q.329-.096.535-.368.21-.27.223-.609c.242-6.015-.188-42.894 3.8-57.473a3.2 3.2 0 0 1 1.266-1.824l7.727-5.496.593-8.863Zm0 0"/><path fill="#0f4283" d="M184.824 233.598c-12.804-.215-26.949 3.367-26.949 3.367-3.8 22.277-.66 47.984-.66 47.984 9.918 2.598 21.101-1.594 21.101-1.594 1.645-9.308 9.344-35.523 9.344-35.523a41.6 41.6 0 0 0 15.656-4.977 27.1 27.1 0 0 1-5.421-11.398 43 43 0 0 1-13.07 2.14m0 0"/><path fill="#ffdba7" d="M222.668 214.738a2.465 2.465 0 0 0-1.293-.879 2.4 2.4 0 0 0-.785-.086q-.399.02-.774.168c-1.886 7.965-11.765 14.426-21.921 17.579a27.1 27.1 0 0 0 5.421 11.398c16.856-9.535 19.352-28.18 19.352-28.18m0 0"/><path fill="#f0c17d" d="M222.363 215.117c.125.418-1.394 1.051-2.293-.656 0-.824-.53-4.344 0-5.066a65.7 65.7 0 0 1 7.676-8.032c.121.102.215.223.29.364a1.16 1.16 0 0 1 .081.902 1.2 1.2 0 0 1-.219.406l-2.457 2.535a11.7 11.7 0 0 1 1.43 2.836 3.3 3.3 0 0 1-.34 2.535 33 33 0 0 1-1.57 2.532 3.3 3.3 0 0 1-1.106 1.132q-.684.435-1.492.512m0 0"/><path fill="#ffdba7" d="m224.324 207.316-2.238 1.903-.7 1.886 1.989 2.215c.25-1.554.645-3.078 1.18-4.558.492-.813.238-1.203-.23-1.446m0 0"/><path fill="#072c5e" d="m162.79 249.363-4.915-12.398s-11.969 8.129-13.93 18.441a27.8 27.8 0 0 1 10.395 2.785c.887-4.863 8.45-8.828 8.45-8.828m0 0"/><path fill="#ffdba7" d="M173.25 261.04s-13.437 7.6-17.973 1.116a5.1 5.1 0 0 1-.875-1.886 5.1 5.1 0 0 1-.062-2.079 27.8 27.8 0 0 0-10.395-2.785 14.1 14.1 0 0 0-.101 5.012c.265 1.68.816 3.258 1.644 4.738 7.942 14.528 29.535-.797 29.535-.797ZM171.844 223.2l-4.067 11.804a.42.42 0 0 0 .192.504c.781.406 1.597.699 2.46.883a9.56 9.56 0 0 0 5.16-.352 9.5 9.5 0 0 0 2.321-1.203q.792-.498.91-1.43l1.332-10.133Zm0 0"/><path fill="#ffdba7" d="M180.723 212.281s4.468 8.422 3.898 11.828c-.57 3.407-6.117 3.157-10.965.395l-3.383-9.094Zm0 0"/><g clip-path="url(#o)"><g clip-path="url(#p)"><path fill="url(#q)" d="m154.375 213.992 18.387 20.582 20.593-18.398-18.386-20.578Zm0 0"/></g></g><path fill="#ffdba7" d="M174.379 220.566s-3.18-2.191-3.422-.355c-.238 1.836 2.875 2.672 4.406 1.988Zm0 0"/><path fill="#fdca01" d="M182.445 208.496s-5.066-8.777-14.16-3.535-4.168 11.676-4.168 11.676Zm0 0"/><path fill="#fdba02" d="M163.89 208.95s10.93-8.723 16.098.648l2.532-1.102s-4.583-8.41-10.84-5.586c-6.258 2.824-7.801 4.23-7.79 6.04m0 0"/><path fill="#fff" d="M176.402 211.473a.15.15 0 0 1-.101 0h-.063c-1.633-.875-4.355-2.332-6.168-1.586a16 16 0 0 0-2.53 1.433c-.583.368-1.192.746-1.786 1.063-.813.43-1.723.887-2.75 1.406q-.076.07-.152 0-.06-.075 0-.152c1.027-.508 1.925-.977 2.75-1.407.593-.304 1.187-.683 1.757-1.05a17 17 0 0 1 2.536-1.442c1.91-.8 4.699.696 6.332 1.582h.074q.058.077 0 .153.053-.03.101 0m0 0"/><path fill="#fdba02" d="m164.207 218.059 21.531-8.297a.33.33 0 0 0 .227-.328q-.007-.246-.242-.317c-1.114-.355-2.95-.863-3.684-.535l-17.894 8.055s-.356.18.062 1.422m0 0"/><path fill="#d4dbdd" d="m209.723 234.203-.176-.125-2.535-1.824a1.29 1.29 0 0 0-1.266-.203 1.31 1.31 0 0 0-.898.863l-1.266 3.582-2.394 6.852s11.12 0 8.535-9.145m0 0"/><path fill="#f3fafd" d="M209.723 234.203v-.062l-.176-.125c.898 1.265-.633 1.554-5.902 2.418l-2.797.468c-5.676.95-10.895-1.773-13.274-3.293a1.41 1.41 0 0 0-1.687.145q-.23.206-.352.488c-2.039 4.863-8.055 19.238-8.347 19.781l-5.875 13.782s-.079 2.265 3.23 4.43c3.305 2.167 4.328 2.988 9.043 2.14a60.4 60.4 0 0 0 7.836-2.164v.316a26 26 0 0 1 3.875-1.078q.083-.158.129-.328l6.738-15.933.125-.516a77 77 0 0 0 5.777-9.969.3.3 0 0 1 0-.113 87 87 0 0 0 .758-1.75c2.305-5.672 1.48-7.836.899-8.637m0 0"/><path fill="#e7eff2" d="M191.387 272.516a25.6 25.6 0 0 1 3.875-1.079l6.699-15.843q.093-.204.164-.418a47.9 47.9 0 0 0 5.953-10.485v-.113c.176-.394.317-.762.453-1.129-.148.203-5.152 6.942-6.898 9.196-1.559 1.976-8.676 16.652-10.246 19.87m0 0"/><path fill="#f0c17d" d="M173.402 264.46s-1.011-4.206-.609-5.687c.406-1.48 1.266-3.406 3.875-2.988q2.96.552 5.8 1.543a1.4 1.4 0 0 1-.07.363 1.6 1.6 0 0 1-.152.34q-.099.158-.234.285-.135.134-.293.227a1.56 1.56 0 0 1-.707.203 1.518 1.518 0 0 1-.719-.148l1.266.972s-.18 1.559-1.887.723l1.164 1.266a1.351 1.351 0 0 1-.89.672 1.36 1.36 0 0 1-1.098-.215c-1.278-.746-1.875 2.949-5.446 2.445m0 0"/></svg>