<svg xmlns="http://www.w3.org/2000/svg" xmlns:xlink="http://www.w3.org/1999/xlink" width="550" zoomAndPan="magnify" viewBox="0 0 412.5 412.499996" height="550" preserveAspectRatio="xMidYMid meet" version="1.0"><defs><clipPath id="fe1ac32e9f"><path d="M 191 47.566406 L 412 47.566406 L 412 306 L 191 306 Z M 191 47.566406 " clip-rule="nonzero"/></clipPath><clipPath id="a78a27fc4c"><path d="M 78 47.566406 L 300 47.566406 L 300 175 L 78 175 Z M 78 47.566406 " clip-rule="nonzero"/></clipPath><clipPath id="bc07c08a40"><path d="M 177 354 L 197 354 L 197 364 L 177 364 Z M 177 354 " clip-rule="nonzero"/></clipPath><clipPath id="71d5d04ca1"><path d="M 178.390625 354.847656 C 178.390625 354.847656 177.835938 358.050781 177.554688 361.179688 C 177.53125 361.476562 177.5625 361.765625 177.65625 362.050781 C 177.75 362.332031 177.894531 362.585938 178.09375 362.8125 C 178.289062 363.035156 178.523438 363.210938 178.792969 363.339844 C 179.0625 363.464844 179.347656 363.535156 179.644531 363.546875 C 183.863281 363.722656 192.890625 364.066406 196.109375 363.925781 C 196.222656 363.921875 196.332031 363.890625 196.429688 363.832031 C 196.527344 363.773438 196.609375 363.695312 196.671875 363.597656 C 196.734375 363.503906 196.769531 363.398438 196.777344 363.28125 C 196.789062 363.167969 196.773438 363.058594 196.730469 362.953125 C 196.570312 362.558594 196.300781 362.273438 195.917969 362.089844 L 181.027344 355.316406 Z M 178.390625 354.847656 " clip-rule="nonzero"/></clipPath><linearGradient x1="2542.547461" gradientTransform="matrix(1.26645, 0, 0, 1.26645, -3026.032051, 47.567352)" y1="240.589248" x2="2531.953873" gradientUnits="userSpaceOnUse" y2="252.111523" id="3ef90763bd"><stop stop-opacity="1" stop-color="rgb(32.174683%, 82.858276%, 99.90387%)" offset="0"/><stop stop-opacity="1" stop-color="rgb(32.154846%, 82.743835%, 99.897766%)" offset="0.015625"/><stop stop-opacity="1" stop-color="rgb(32.113647%, 82.514954%, 99.885559%)" offset="0.03125"/><stop stop-opacity="1" stop-color="rgb(32.073975%, 82.286072%, 99.873352%)" offset="0.046875"/><stop stop-opacity="1" stop-color="rgb(32.032776%, 82.05719%, 99.861145%)" offset="0.0625"/><stop stop-opacity="1" stop-color="rgb(31.993103%, 81.828308%, 99.850464%)" offset="0.078125"/><stop stop-opacity="1" stop-color="rgb(31.95343%, 81.599426%, 99.838257%)" offset="0.09375"/><stop stop-opacity="1" stop-color="rgb(31.912231%, 81.370544%, 99.82605%)" offset="0.109375"/><stop stop-opacity="1" stop-color="rgb(31.872559%, 81.141663%, 99.813843%)" offset="0.125"/><stop stop-opacity="1" stop-color="rgb(31.83136%, 80.912781%, 99.801636%)" offset="0.140625"/><stop stop-opacity="1" stop-color="rgb(31.791687%, 80.683899%, 99.790955%)" offset="0.15625"/><stop stop-opacity="1" stop-color="rgb(31.750488%, 80.455017%, 99.778748%)" offset="0.171875"/><stop stop-opacity="1" stop-color="rgb(31.710815%, 80.226135%, 99.766541%)" offset="0.1875"/><stop stop-opacity="1" stop-color="rgb(31.671143%, 79.997253%, 99.754333%)" offset="0.203125"/><stop stop-opacity="1" stop-color="rgb(31.629944%, 79.768372%, 99.742126%)" offset="0.21875"/><stop stop-opacity="1" stop-color="rgb(31.590271%, 79.53949%, 99.731445%)" offset="0.234375"/><stop stop-opacity="1" stop-color="rgb(31.549072%, 79.310608%, 99.719238%)" offset="0.25"/><stop stop-opacity="1" stop-color="rgb(31.509399%, 79.083252%, 99.707031%)" offset="0.265625"/><stop stop-opacity="1" stop-color="rgb(31.469727%, 78.85437%, 99.694824%)" offset="0.28125"/><stop stop-opacity="1" stop-color="rgb(31.428528%, 78.625488%, 99.682617%)" offset="0.296875"/><stop stop-opacity="1" stop-color="rgb(31.388855%, 78.396606%, 99.671936%)" offset="0.3125"/><stop stop-opacity="1" stop-color="rgb(31.347656%, 78.167725%, 99.659729%)" offset="0.328125"/><stop stop-opacity="1" stop-color="rgb(31.307983%, 77.938843%, 99.647522%)" offset="0.342394"/><stop stop-opacity="1" stop-color="rgb(31.288147%, 77.824402%, 99.641418%)" offset="0.34375"/><stop stop-opacity="1" stop-color="rgb(31.268311%, 77.709961%, 99.635315%)" offset="0.359375"/><stop stop-opacity="1" stop-color="rgb(31.227112%, 77.481079%, 99.623108%)" offset="0.375"/><stop stop-opacity="1" stop-color="rgb(31.187439%, 77.252197%, 99.612427%)" offset="0.390625"/><stop stop-opacity="1" stop-color="rgb(31.14624%, 77.023315%, 99.60022%)" offset="0.40625"/><stop stop-opacity="1" stop-color="rgb(31.106567%, 76.794434%, 99.588013%)" offset="0.421875"/><stop stop-opacity="1" stop-color="rgb(31.065369%, 76.565552%, 99.575806%)" offset="0.4375"/><stop stop-opacity="1" stop-color="rgb(31.025696%, 76.33667%, 99.563599%)" offset="0.453125"/><stop stop-opacity="1" stop-color="rgb(30.986023%, 76.107788%, 99.552917%)" offset="0.46875"/><stop stop-opacity="1" stop-color="rgb(30.944824%, 75.878906%, 99.54071%)" offset="0.484375"/><stop stop-opacity="1" stop-color="rgb(30.905151%, 75.650024%, 99.528503%)" offset="0.5"/><stop stop-opacity="1" stop-color="rgb(30.863953%, 75.422668%, 99.516296%)" offset="0.515625"/><stop stop-opacity="1" stop-color="rgb(30.82428%, 75.193787%, 99.504089%)" offset="0.53125"/><stop stop-opacity="1" stop-color="rgb(30.784607%, 74.964905%, 99.493408%)" offset="0.546875"/><stop stop-opacity="1" stop-color="rgb(30.743408%, 74.736023%, 99.481201%)" offset="0.5625"/><stop stop-opacity="1" stop-color="rgb(30.703735%, 74.507141%, 99.468994%)" offset="0.578125"/><stop stop-opacity="1" stop-color="rgb(30.662537%, 74.278259%, 99.456787%)" offset="0.59375"/><stop stop-opacity="1" stop-color="rgb(30.622864%, 74.049377%, 99.44458%)" offset="0.609375"/><stop stop-opacity="1" stop-color="rgb(30.581665%, 73.820496%, 99.433899%)" offset="0.625"/><stop stop-opacity="1" stop-color="rgb(30.541992%, 73.591614%, 99.421692%)" offset="0.640625"/><stop stop-opacity="1" stop-color="rgb(30.502319%, 73.362732%, 99.409485%)" offset="0.65625"/><stop stop-opacity="1" stop-color="rgb(30.461121%, 73.13385%, 99.397278%)" offset="0.657606"/><stop stop-opacity="1" stop-color="rgb(30.441284%, 73.019409%, 99.391174%)" offset="0.671875"/><stop stop-opacity="1" stop-color="rgb(30.421448%, 72.904968%, 99.385071%)" offset="0.6875"/><stop stop-opacity="1" stop-color="rgb(30.380249%, 72.676086%, 99.37439%)" offset="0.703125"/><stop stop-opacity="1" stop-color="rgb(30.340576%, 72.447205%, 99.362183%)" offset="0.71875"/><stop stop-opacity="1" stop-color="rgb(30.300903%, 72.218323%, 99.349976%)" offset="0.734375"/><stop stop-opacity="1" stop-color="rgb(30.259705%, 71.989441%, 99.337769%)" offset="0.75"/><stop stop-opacity="1" stop-color="rgb(30.220032%, 71.762085%, 99.325562%)" offset="0.765625"/><stop stop-opacity="1" stop-color="rgb(30.178833%, 71.533203%, 99.31488%)" offset="0.78125"/><stop stop-opacity="1" stop-color="rgb(30.13916%, 71.304321%, 99.302673%)" offset="0.796875"/><stop stop-opacity="1" stop-color="rgb(30.097961%, 71.075439%, 99.290466%)" offset="0.8125"/><stop stop-opacity="1" stop-color="rgb(30.058289%, 70.846558%, 99.278259%)" offset="0.828125"/><stop stop-opacity="1" stop-color="rgb(30.018616%, 70.617676%, 99.266052%)" offset="0.84375"/><stop stop-opacity="1" stop-color="rgb(29.977417%, 70.388794%, 99.255371%)" offset="0.859375"/><stop stop-opacity="1" stop-color="rgb(29.937744%, 70.159912%, 99.243164%)" offset="0.875"/><stop stop-opacity="1" stop-color="rgb(29.896545%, 69.93103%, 99.230957%)" offset="0.890625"/><stop stop-opacity="1" stop-color="rgb(29.856873%, 69.702148%, 99.21875%)" offset="0.90625"/><stop stop-opacity="1" stop-color="rgb(29.8172%, 69.473267%, 99.206543%)" offset="0.921875"/><stop stop-opacity="1" stop-color="rgb(29.776001%, 69.244385%, 99.195862%)" offset="0.9375"/><stop stop-opacity="1" stop-color="rgb(29.736328%, 69.015503%, 99.183655%)" offset="0.953125"/><stop stop-opacity="1" stop-color="rgb(29.695129%, 68.786621%, 99.171448%)" offset="0.96875"/><stop stop-opacity="1" stop-color="rgb(29.655457%, 68.557739%, 99.159241%)" offset="0.984375"/><stop stop-opacity="1" stop-color="rgb(29.614258%, 68.328857%, 99.147034%)" offset="1"/></linearGradient><clipPath id="3f1a711463"><path d="M 177 352 L 183 352 L 183 358 L 177 358 Z M 177 352 " clip-rule="nonzero"/></clipPath><clipPath id="550fe3b41d"><path d="M 177.9375 352.972656 L 178.390625 356.769531 C 178.390625 356.769531 181 358.039062 182.785156 356.621094 L 181.695312 352.351562 Z M 177.9375 352.972656 " clip-rule="nonzero"/></clipPath><linearGradient x1="2529.880046" gradientTransform="matrix(1.26645, 0, 0, 1.26645, -3026.032051, 47.567352)" y1="242.62" x2="2533.710048" gradientUnits="userSpaceOnUse" y2="242.62" id="43e953cd0c"><stop stop-opacity="1" stop-color="rgb(97.599792%, 71.798706%, 46.298218%)" offset="0"/><stop stop-opacity="1" stop-color="rgb(97.584534%, 71.607971%, 46.229553%)" offset="0.015625"/><stop stop-opacity="1" stop-color="rgb(97.554016%, 71.228027%, 46.09375%)" offset="0.03125"/><stop stop-opacity="1" stop-color="rgb(97.525024%, 70.848083%, 45.957947%)" offset="0.046875"/><stop stop-opacity="1" stop-color="rgb(97.494507%, 70.46814%, 45.822144%)" offset="0.0625"/><stop stop-opacity="1" stop-color="rgb(97.465515%, 70.089722%, 45.68634%)" offset="0.078125"/><stop stop-opacity="1" stop-color="rgb(97.434998%, 69.709778%, 45.550537%)" offset="0.09375"/><stop stop-opacity="1" stop-color="rgb(97.406006%, 69.329834%, 45.414734%)" offset="0.109375"/><stop stop-opacity="1" stop-color="rgb(97.375488%, 68.94989%, 45.278931%)" offset="0.125"/><stop stop-opacity="1" stop-color="rgb(97.346497%, 68.569946%, 45.143127%)" offset="0.140625"/><stop stop-opacity="1" stop-color="rgb(97.315979%, 68.190002%, 45.007324%)" offset="0.15625"/><stop stop-opacity="1" stop-color="rgb(97.286987%, 67.811584%, 44.871521%)" offset="0.171875"/><stop stop-opacity="1" stop-color="rgb(97.257996%, 67.431641%, 44.735718%)" offset="0.1875"/><stop stop-opacity="1" stop-color="rgb(97.227478%, 67.051697%, 44.598389%)" offset="0.203125"/><stop stop-opacity="1" stop-color="rgb(97.198486%, 66.671753%, 44.462585%)" offset="0.21875"/><stop stop-opacity="1" stop-color="rgb(97.167969%, 66.291809%, 44.326782%)" offset="0.234375"/><stop stop-opacity="1" stop-color="rgb(97.138977%, 65.913391%, 44.190979%)" offset="0.25"/><stop stop-opacity="1" stop-color="rgb(97.108459%, 65.533447%, 44.055176%)" offset="0.265625"/><stop stop-opacity="1" stop-color="rgb(97.079468%, 65.153503%, 43.919373%)" offset="0.28125"/><stop stop-opacity="1" stop-color="rgb(97.04895%, 64.77356%, 43.783569%)" offset="0.296875"/><stop stop-opacity="1" stop-color="rgb(97.019958%, 64.393616%, 43.647766%)" offset="0.3125"/><stop stop-opacity="1" stop-color="rgb(96.989441%, 64.013672%, 43.511963%)" offset="0.328125"/><stop stop-opacity="1" stop-color="rgb(96.960449%, 63.635254%, 43.37616%)" offset="0.34375"/><stop stop-opacity="1" stop-color="rgb(96.931458%, 63.25531%, 43.240356%)" offset="0.359375"/><stop stop-opacity="1" stop-color="rgb(96.90094%, 62.875366%, 43.103027%)" offset="0.375"/><stop stop-opacity="1" stop-color="rgb(96.871948%, 62.495422%, 42.967224%)" offset="0.390625"/><stop stop-opacity="1" stop-color="rgb(96.841431%, 62.115479%, 42.831421%)" offset="0.40625"/><stop stop-opacity="1" stop-color="rgb(96.812439%, 61.735535%, 42.695618%)" offset="0.421875"/><stop stop-opacity="1" stop-color="rgb(96.781921%, 61.357117%, 42.559814%)" offset="0.4375"/><stop stop-opacity="1" stop-color="rgb(96.75293%, 60.977173%, 42.424011%)" offset="0.453125"/><stop stop-opacity="1" stop-color="rgb(96.722412%, 60.597229%, 42.288208%)" offset="0.46875"/><stop stop-opacity="1" stop-color="rgb(96.69342%, 60.217285%, 42.152405%)" offset="0.484375"/><stop stop-opacity="1" stop-color="rgb(96.662903%, 59.837341%, 42.016602%)" offset="0.5"/><stop stop-opacity="1" stop-color="rgb(96.633911%, 59.457397%, 41.880798%)" offset="0.515625"/><stop stop-opacity="1" stop-color="rgb(96.604919%, 59.078979%, 41.744995%)" offset="0.53125"/><stop stop-opacity="1" stop-color="rgb(96.574402%, 58.699036%, 41.609192%)" offset="0.546875"/><stop stop-opacity="1" stop-color="rgb(96.54541%, 58.319092%, 41.471863%)" offset="0.5625"/><stop stop-opacity="1" stop-color="rgb(96.514893%, 57.939148%, 41.33606%)" offset="0.578125"/><stop stop-opacity="1" stop-color="rgb(96.485901%, 57.559204%, 41.200256%)" offset="0.59375"/><stop stop-opacity="1" stop-color="rgb(96.455383%, 57.180786%, 41.064453%)" offset="0.609375"/><stop stop-opacity="1" stop-color="rgb(96.426392%, 56.800842%, 40.92865%)" offset="0.625"/><stop stop-opacity="1" stop-color="rgb(96.395874%, 56.420898%, 40.792847%)" offset="0.640625"/><stop stop-opacity="1" stop-color="rgb(96.366882%, 56.040955%, 40.657043%)" offset="0.65625"/><stop stop-opacity="1" stop-color="rgb(96.336365%, 55.661011%, 40.52124%)" offset="0.671875"/><stop stop-opacity="1" stop-color="rgb(96.307373%, 55.281067%, 40.385437%)" offset="0.6875"/><stop stop-opacity="1" stop-color="rgb(96.278381%, 54.902649%, 40.249634%)" offset="0.703125"/><stop stop-opacity="1" stop-color="rgb(96.247864%, 54.522705%, 40.113831%)" offset="0.71875"/><stop stop-opacity="1" stop-color="rgb(96.218872%, 54.142761%, 39.978027%)" offset="0.734375"/><stop stop-opacity="1" stop-color="rgb(96.188354%, 53.762817%, 39.840698%)" offset="0.75"/><stop stop-opacity="1" stop-color="rgb(96.159363%, 53.382874%, 39.704895%)" offset="0.765625"/><stop stop-opacity="1" stop-color="rgb(96.128845%, 53.00293%, 39.569092%)" offset="0.78125"/><stop stop-opacity="1" stop-color="rgb(96.099854%, 52.624512%, 39.433289%)" offset="0.796875"/><stop stop-opacity="1" stop-color="rgb(96.069336%, 52.244568%, 39.297485%)" offset="0.8125"/><stop stop-opacity="1" stop-color="rgb(96.040344%, 51.864624%, 39.161682%)" offset="0.828125"/><stop stop-opacity="1" stop-color="rgb(96.009827%, 51.48468%, 39.025879%)" offset="0.84375"/><stop stop-opacity="1" stop-color="rgb(95.980835%, 51.104736%, 38.890076%)" offset="0.859375"/><stop stop-opacity="1" stop-color="rgb(95.951843%, 50.726318%, 38.754272%)" offset="0.875"/><stop stop-opacity="1" stop-color="rgb(95.921326%, 50.346375%, 38.618469%)" offset="0.890625"/><stop stop-opacity="1" stop-color="rgb(95.892334%, 49.966431%, 38.482666%)" offset="0.90625"/><stop stop-opacity="1" stop-color="rgb(95.861816%, 49.586487%, 38.345337%)" offset="0.921875"/><stop stop-opacity="1" stop-color="rgb(95.832825%, 49.206543%, 38.209534%)" offset="0.9375"/><stop stop-opacity="1" stop-color="rgb(95.802307%, 48.826599%, 38.07373%)" offset="0.953125"/><stop stop-opacity="1" stop-color="rgb(95.773315%, 48.448181%, 37.937927%)" offset="0.96875"/><stop stop-opacity="1" stop-color="rgb(95.742798%, 48.068237%, 37.802124%)" offset="0.984375"/><stop stop-opacity="1" stop-color="rgb(95.713806%, 47.688293%, 37.666321%)" offset="1"/></linearGradient><clipPath id="e02fd67df2"><path d="M 159 356 L 168 356 L 168 364.433594 L 159 364.433594 Z M 159 356 " clip-rule="nonzero"/></clipPath><clipPath id="8e23ca9729"><path d="M 161.242188 356.582031 C 160.386719 358.472656 159.796875 360.445312 159.472656 362.496094 C 159.433594 362.679688 159.4375 362.867188 159.476562 363.050781 C 159.519531 363.234375 159.59375 363.402344 159.707031 363.554688 C 159.820312 363.707031 159.957031 363.828125 160.121094 363.921875 C 160.285156 364.015625 160.460938 364.070312 160.648438 364.089844 C 162.042969 364.230469 164.183594 364.40625 165.90625 364.394531 C 166.089844 364.386719 166.261719 364.339844 166.429688 364.257812 C 166.59375 364.175781 166.738281 364.066406 166.855469 363.925781 C 166.976562 363.785156 167.0625 363.628906 167.117188 363.453125 C 167.171875 363.277344 167.191406 363.097656 167.171875 362.914062 C 166.9375 360.59375 166.066406 358.542969 164.550781 356.769531 Z M 161.242188 356.582031 " clip-rule="nonzero"/></clipPath><linearGradient x1="2521.485229" gradientTransform="matrix(1.26645, 0, 0, 1.26645, -3026.032051, 47.567352)" y1="244.082614" x2="2515.601491" gradientUnits="userSpaceOnUse" y2="250.483632" id="fee9d766e1"><stop stop-opacity="1" stop-color="rgb(29.402161%, 67.120361%, 99.084473%)" offset="0"/><stop stop-opacity="1" stop-color="rgb(29.379272%, 66.993713%, 99.078369%)" offset="0.03125"/><stop stop-opacity="1" stop-color="rgb(29.335022%, 66.738892%, 99.064636%)" offset="0.0625"/><stop stop-opacity="1" stop-color="rgb(29.289246%, 66.485596%, 99.050903%)" offset="0.09375"/><stop stop-opacity="1" stop-color="rgb(29.244995%, 66.230774%, 99.038696%)" offset="0.125"/><stop stop-opacity="1" stop-color="rgb(29.200745%, 65.975952%, 99.024963%)" offset="0.15625"/><stop stop-opacity="1" stop-color="rgb(29.154968%, 65.722656%, 99.01123%)" offset="0.1875"/><stop stop-opacity="1" stop-color="rgb(29.110718%, 65.467834%, 98.999023%)" offset="0.21875"/><stop stop-opacity="1" stop-color="rgb(29.066467%, 65.214539%, 98.985291%)" offset="0.25"/><stop stop-opacity="1" stop-color="rgb(29.020691%, 64.959717%, 98.971558%)" offset="0.28125"/><stop stop-opacity="1" stop-color="rgb(28.97644%, 64.704895%, 98.959351%)" offset="0.3125"/><stop stop-opacity="1" stop-color="rgb(28.93219%, 64.451599%, 98.945618%)" offset="0.34375"/><stop stop-opacity="1" stop-color="rgb(28.886414%, 64.196777%, 98.931885%)" offset="0.375"/><stop stop-opacity="1" stop-color="rgb(28.842163%, 63.943481%, 98.919678%)" offset="0.40625"/><stop stop-opacity="1" stop-color="rgb(28.797913%, 63.68866%, 98.905945%)" offset="0.4375"/><stop stop-opacity="1" stop-color="rgb(28.752136%, 63.433838%, 98.892212%)" offset="0.46875"/><stop stop-opacity="1" stop-color="rgb(28.707886%, 63.180542%, 98.880005%)" offset="0.476684"/><stop stop-opacity="1" stop-color="rgb(28.686523%, 63.053894%, 98.873901%)" offset="0.5"/><stop stop-opacity="1" stop-color="rgb(28.663635%, 62.92572%, 98.866272%)" offset="0.523316"/><stop stop-opacity="1" stop-color="rgb(28.640747%, 62.799072%, 98.860168%)" offset="0.53125"/><stop stop-opacity="1" stop-color="rgb(28.617859%, 62.672424%, 98.852539%)" offset="0.5625"/><stop stop-opacity="1" stop-color="rgb(28.573608%, 62.417603%, 98.840332%)" offset="0.59375"/><stop stop-opacity="1" stop-color="rgb(28.529358%, 62.164307%, 98.826599%)" offset="0.625"/><stop stop-opacity="1" stop-color="rgb(28.483582%, 61.909485%, 98.812866%)" offset="0.65625"/><stop stop-opacity="1" stop-color="rgb(28.439331%, 61.654663%, 98.800659%)" offset="0.6875"/><stop stop-opacity="1" stop-color="rgb(28.393555%, 61.401367%, 98.786926%)" offset="0.71875"/><stop stop-opacity="1" stop-color="rgb(28.349304%, 61.146545%, 98.773193%)" offset="0.75"/><stop stop-opacity="1" stop-color="rgb(28.305054%, 60.89325%, 98.760986%)" offset="0.78125"/><stop stop-opacity="1" stop-color="rgb(28.259277%, 60.638428%, 98.747253%)" offset="0.8125"/><stop stop-opacity="1" stop-color="rgb(28.215027%, 60.383606%, 98.733521%)" offset="0.84375"/><stop stop-opacity="1" stop-color="rgb(28.170776%, 60.13031%, 98.721313%)" offset="0.875"/><stop stop-opacity="1" stop-color="rgb(28.125%, 59.875488%, 98.707581%)" offset="0.90625"/><stop stop-opacity="1" stop-color="rgb(28.08075%, 59.622192%, 98.693848%)" offset="0.9375"/><stop stop-opacity="1" stop-color="rgb(28.036499%, 59.367371%, 98.681641%)" offset="0.96875"/><stop stop-opacity="1" stop-color="rgb(27.990723%, 59.112549%, 98.667908%)" offset="1"/></linearGradient><clipPath id="8213a53ab6"><path d="M 160 351 L 165 351 L 165 358 L 160 358 Z M 160 351 " clip-rule="nonzero"/></clipPath><clipPath id="1df57deb36"><path d="M 160.457031 351.589844 L 161.511719 357.390625 C 161.992188 357.652344 162.503906 357.800781 163.050781 357.835938 C 163.597656 357.875 164.125 357.796875 164.636719 357.605469 L 164.132812 351.375 Z M 160.457031 351.589844 " clip-rule="nonzero"/></clipPath><linearGradient x1="2516.080044" gradientTransform="matrix(1.26645, 0, 0, 1.26645, -3026.032051, 47.567352)" y1="242.42999" x2="2519.380047" gradientUnits="userSpaceOnUse" y2="242.42999" id="6f301b7d91"><stop stop-opacity="1" stop-color="rgb(97.599792%, 71.798706%, 46.299744%)" offset="0"/><stop stop-opacity="1" stop-color="rgb(97.584534%, 71.609497%, 46.231079%)" offset="0.015625"/><stop stop-opacity="1" stop-color="rgb(97.554016%, 71.231079%, 46.095276%)" offset="0.03125"/><stop stop-opacity="1" stop-color="rgb(97.525024%, 70.852661%, 45.959473%)" offset="0.046875"/><stop stop-opacity="1" stop-color="rgb(97.494507%, 70.474243%, 45.823669%)" offset="0.0625"/><stop stop-opacity="1" stop-color="rgb(97.465515%, 70.095825%, 45.689392%)" offset="0.078125"/><stop stop-opacity="1" stop-color="rgb(97.436523%, 69.717407%, 45.553589%)" offset="0.09375"/><stop stop-opacity="1" stop-color="rgb(97.406006%, 69.338989%, 45.417786%)" offset="0.109375"/><stop stop-opacity="1" stop-color="rgb(97.377014%, 68.960571%, 45.281982%)" offset="0.125"/><stop stop-opacity="1" stop-color="rgb(97.346497%, 68.582153%, 45.146179%)" offset="0.140625"/><stop stop-opacity="1" stop-color="rgb(97.317505%, 68.203735%, 45.011902%)" offset="0.15625"/><stop stop-opacity="1" stop-color="rgb(97.288513%, 67.825317%, 44.876099%)" offset="0.171875"/><stop stop-opacity="1" stop-color="rgb(97.257996%, 67.445374%, 44.740295%)" offset="0.1875"/><stop stop-opacity="1" stop-color="rgb(97.229004%, 67.066956%, 44.604492%)" offset="0.203125"/><stop stop-opacity="1" stop-color="rgb(97.198486%, 66.688538%, 44.468689%)" offset="0.21875"/><stop stop-opacity="1" stop-color="rgb(97.169495%, 66.31012%, 44.332886%)" offset="0.234375"/><stop stop-opacity="1" stop-color="rgb(97.140503%, 65.931702%, 44.198608%)" offset="0.25"/><stop stop-opacity="1" stop-color="rgb(97.109985%, 65.553284%, 44.062805%)" offset="0.265625"/><stop stop-opacity="1" stop-color="rgb(97.080994%, 65.174866%, 43.927002%)" offset="0.28125"/><stop stop-opacity="1" stop-color="rgb(97.050476%, 64.796448%, 43.791199%)" offset="0.296875"/><stop stop-opacity="1" stop-color="rgb(97.021484%, 64.41803%, 43.655396%)" offset="0.3125"/><stop stop-opacity="1" stop-color="rgb(96.992493%, 64.039612%, 43.519592%)" offset="0.328125"/><stop stop-opacity="1" stop-color="rgb(96.961975%, 63.661194%, 43.385315%)" offset="0.34375"/><stop stop-opacity="1" stop-color="rgb(96.932983%, 63.28125%, 43.249512%)" offset="0.359375"/><stop stop-opacity="1" stop-color="rgb(96.902466%, 62.902832%, 43.113708%)" offset="0.375"/><stop stop-opacity="1" stop-color="rgb(96.873474%, 62.524414%, 42.977905%)" offset="0.390625"/><stop stop-opacity="1" stop-color="rgb(96.844482%, 62.145996%, 42.842102%)" offset="0.40625"/><stop stop-opacity="1" stop-color="rgb(96.813965%, 61.767578%, 42.707825%)" offset="0.421875"/><stop stop-opacity="1" stop-color="rgb(96.784973%, 61.38916%, 42.572021%)" offset="0.4375"/><stop stop-opacity="1" stop-color="rgb(96.755981%, 61.010742%, 42.436218%)" offset="0.453125"/><stop stop-opacity="1" stop-color="rgb(96.725464%, 60.632324%, 42.300415%)" offset="0.46875"/><stop stop-opacity="1" stop-color="rgb(96.696472%, 60.253906%, 42.164612%)" offset="0.484375"/><stop stop-opacity="1" stop-color="rgb(96.665955%, 59.875488%, 42.028809%)" offset="0.5"/><stop stop-opacity="1" stop-color="rgb(96.636963%, 59.495544%, 41.894531%)" offset="0.515625"/><stop stop-opacity="1" stop-color="rgb(96.607971%, 59.117126%, 41.758728%)" offset="0.53125"/><stop stop-opacity="1" stop-color="rgb(96.577454%, 58.738708%, 41.622925%)" offset="0.546875"/><stop stop-opacity="1" stop-color="rgb(96.548462%, 58.360291%, 41.487122%)" offset="0.5625"/><stop stop-opacity="1" stop-color="rgb(96.517944%, 57.981873%, 41.351318%)" offset="0.578125"/><stop stop-opacity="1" stop-color="rgb(96.488953%, 57.603455%, 41.215515%)" offset="0.59375"/><stop stop-opacity="1" stop-color="rgb(96.459961%, 57.225037%, 41.081238%)" offset="0.609375"/><stop stop-opacity="1" stop-color="rgb(96.429443%, 56.846619%, 40.945435%)" offset="0.625"/><stop stop-opacity="1" stop-color="rgb(96.400452%, 56.468201%, 40.809631%)" offset="0.640625"/><stop stop-opacity="1" stop-color="rgb(96.369934%, 56.089783%, 40.673828%)" offset="0.65625"/><stop stop-opacity="1" stop-color="rgb(96.340942%, 55.711365%, 40.538025%)" offset="0.671875"/><stop stop-opacity="1" stop-color="rgb(96.311951%, 55.331421%, 40.402222%)" offset="0.6875"/><stop stop-opacity="1" stop-color="rgb(96.281433%, 54.953003%, 40.267944%)" offset="0.703125"/><stop stop-opacity="1" stop-color="rgb(96.252441%, 54.574585%, 40.132141%)" offset="0.71875"/><stop stop-opacity="1" stop-color="rgb(96.221924%, 54.196167%, 39.996338%)" offset="0.734375"/><stop stop-opacity="1" stop-color="rgb(96.192932%, 53.817749%, 39.860535%)" offset="0.75"/><stop stop-opacity="1" stop-color="rgb(96.16394%, 53.439331%, 39.724731%)" offset="0.765625"/><stop stop-opacity="1" stop-color="rgb(96.133423%, 53.060913%, 39.590454%)" offset="0.78125"/><stop stop-opacity="1" stop-color="rgb(96.104431%, 52.682495%, 39.454651%)" offset="0.796875"/><stop stop-opacity="1" stop-color="rgb(96.073914%, 52.304077%, 39.318848%)" offset="0.8125"/><stop stop-opacity="1" stop-color="rgb(96.044922%, 51.925659%, 39.183044%)" offset="0.828125"/><stop stop-opacity="1" stop-color="rgb(96.01593%, 51.545715%, 39.047241%)" offset="0.84375"/><stop stop-opacity="1" stop-color="rgb(95.985413%, 51.167297%, 38.911438%)" offset="0.859375"/><stop stop-opacity="1" stop-color="rgb(95.956421%, 50.788879%, 38.777161%)" offset="0.875"/><stop stop-opacity="1" stop-color="rgb(95.925903%, 50.410461%, 38.641357%)" offset="0.890625"/><stop stop-opacity="1" stop-color="rgb(95.896912%, 50.032043%, 38.505554%)" offset="0.90625"/><stop stop-opacity="1" stop-color="rgb(95.86792%, 49.653625%, 38.369751%)" offset="0.921875"/><stop stop-opacity="1" stop-color="rgb(95.837402%, 49.275208%, 38.233948%)" offset="0.9375"/><stop stop-opacity="1" stop-color="rgb(95.808411%, 48.89679%, 38.098145%)" offset="0.953125"/><stop stop-opacity="1" stop-color="rgb(95.777893%, 48.518372%, 37.963867%)" offset="0.96875"/><stop stop-opacity="1" stop-color="rgb(95.748901%, 48.139954%, 37.828064%)" offset="0.984375"/><stop stop-opacity="1" stop-color="rgb(95.71991%, 47.761536%, 37.692261%)" offset="1"/></linearGradient><clipPath id="dd383fa77b"><path d="M 164 206 L 183 206 L 183 225 L 164 225 Z M 164 206 " clip-rule="nonzero"/></clipPath><clipPath id="fb6f5b715f"><path d="M 173.871094 220.03125 C 173.96875 219.992188 174.035156 219.917969 174.066406 219.816406 C 174.097656 219.710938 174.082031 219.617188 174.023438 219.527344 C 173.457031 218.714844 173.035156 217.832031 172.757812 216.878906 C 172.757812 216.878906 171.945312 216.371094 174.796875 215.6875 C 177.644531 215.003906 181.914062 213.941406 182.800781 211.507812 C 183.683594 209.078125 180.125 205.355469 177.734375 207.9375 C 177.660156 208.027344 177.570312 208.074219 177.453125 208.074219 C 177.339844 208.074219 177.246094 208.027344 177.175781 207.9375 C 176.953125 207.585938 176.675781 207.28125 176.34375 207.023438 C 176.015625 206.769531 175.648438 206.574219 175.253906 206.445312 C 174.855469 206.316406 174.449219 206.257812 174.03125 206.269531 C 173.613281 206.28125 173.207031 206.367188 172.820312 206.519531 C 172.488281 206.628906 172.179688 206.789062 171.898438 207 C 171.617188 207.207031 171.375 207.453125 171.171875 207.738281 C 170.96875 208.027344 170.816406 208.335938 170.710938 208.671875 C 170.609375 209.003906 170.558594 209.347656 170.566406 209.699219 C 170.570312 209.808594 170.53125 209.902344 170.449219 209.972656 C 170.363281 210.046875 170.269531 210.074219 170.160156 210.054688 C 169.703125 209.929688 169.242188 209.886719 168.769531 209.925781 C 168.300781 209.964844 167.851562 210.085938 167.425781 210.285156 C 166.996094 210.484375 166.617188 210.753906 166.28125 211.085938 C 165.949219 211.421875 165.683594 211.800781 165.488281 212.230469 C 164.523438 214.332031 165.144531 215.511719 165.714844 216.03125 C 165.757812 216.074219 165.785156 216.125 165.800781 216.1875 C 165.816406 216.246094 165.816406 216.304688 165.800781 216.363281 C 165.785156 216.421875 165.757812 216.476562 165.714844 216.519531 C 165.671875 216.5625 165.621094 216.59375 165.5625 216.613281 C 165.3125 216.683594 165.085938 216.796875 164.878906 216.953125 C 164.675781 217.109375 164.503906 217.300781 164.367188 217.519531 C 164.230469 217.738281 164.140625 217.976562 164.09375 218.230469 C 164.046875 218.484375 164.046875 218.738281 164.09375 218.992188 C 164.21875 221.183594 166.625 220.996094 167.375 220.894531 C 167.5 220.875 167.605469 220.914062 167.691406 221.007812 C 168.285156 221.667969 170.996094 224.492188 173.933594 224.808594 C 173.992188 224.816406 174.050781 224.808594 174.105469 224.785156 C 174.160156 224.765625 174.207031 224.730469 174.246094 224.683594 C 174.285156 224.636719 174.308594 224.582031 174.316406 224.523438 C 174.328125 224.464844 174.320312 224.40625 174.300781 224.351562 L 173.035156 220.652344 C 173.007812 220.566406 173.011719 220.484375 173.046875 220.402344 C 173.085938 220.320312 173.144531 220.261719 173.222656 220.222656 Z M 173.871094 220.03125 " clip-rule="nonzero"/></clipPath><linearGradient x1="-3198.414423" gradientTransform="matrix(0.949838, -0.848522, 0.848522, 0.949838, 3314.958938, -2345.732765)" y1="-152.866651" x2="-3194.081168" gradientUnits="userSpaceOnUse" y2="-128.156582" id="29398e6792"><stop stop-opacity="1" stop-color="rgb(15.745544%, 18.771362%, 47.671509%)" offset="0"/><stop stop-opacity="1" stop-color="rgb(15.696716%, 18.685913%, 47.532654%)" offset="0.0078125"/><stop stop-opacity="1" stop-color="rgb(15.600586%, 18.516541%, 47.254944%)" offset="0.015625"/><stop stop-opacity="1" stop-color="rgb(15.504456%, 18.347168%, 46.977234%)" offset="0.0234375"/><stop stop-opacity="1" stop-color="rgb(15.408325%, 18.177795%, 46.699524%)" offset="0.03125"/><stop stop-opacity="1" stop-color="rgb(15.312195%, 18.008423%, 46.421814%)" offset="0.0390625"/><stop stop-opacity="1" stop-color="rgb(15.216064%, 17.83905%, 46.144104%)" offset="0.046875"/><stop stop-opacity="1" stop-color="rgb(15.119934%, 17.669678%, 45.866394%)" offset="0.0546875"/><stop stop-opacity="1" stop-color="rgb(15.023804%, 17.500305%, 45.588684%)" offset="0.0625"/><stop stop-opacity="1" stop-color="rgb(14.927673%, 17.330933%, 45.310974%)" offset="0.0703125"/><stop stop-opacity="1" stop-color="rgb(14.831543%, 17.16156%, 45.033264%)" offset="0.078125"/><stop stop-opacity="1" stop-color="rgb(14.733887%, 16.993713%, 44.755554%)" offset="0.0859375"/><stop stop-opacity="1" stop-color="rgb(14.637756%, 16.824341%, 44.477844%)" offset="0.09375"/><stop stop-opacity="1" stop-color="rgb(14.541626%, 16.654968%, 44.200134%)" offset="0.101562"/><stop stop-opacity="1" stop-color="rgb(14.445496%, 16.485596%, 43.922424%)" offset="0.109375"/><stop stop-opacity="1" stop-color="rgb(14.349365%, 16.316223%, 43.644714%)" offset="0.117188"/><stop stop-opacity="1" stop-color="rgb(14.253235%, 16.146851%, 43.367004%)" offset="0.125"/><stop stop-opacity="1" stop-color="rgb(14.157104%, 15.977478%, 43.089294%)" offset="0.132812"/><stop stop-opacity="1" stop-color="rgb(14.060974%, 15.808105%, 42.811584%)" offset="0.140625"/><stop stop-opacity="1" stop-color="rgb(13.964844%, 15.638733%, 42.5354%)" offset="0.148438"/><stop stop-opacity="1" stop-color="rgb(13.868713%, 15.46936%, 42.25769%)" offset="0.149265"/><stop stop-opacity="1" stop-color="rgb(13.821411%, 15.385437%, 42.118835%)" offset="0.15625"/><stop stop-opacity="1" stop-color="rgb(13.772583%, 15.299988%, 41.97998%)" offset="0.164062"/><stop stop-opacity="1" stop-color="rgb(13.676453%, 15.130615%, 41.702271%)" offset="0.171875"/><stop stop-opacity="1" stop-color="rgb(13.580322%, 14.961243%, 41.424561%)" offset="0.179688"/><stop stop-opacity="1" stop-color="rgb(13.482666%, 14.79187%, 41.146851%)" offset="0.1875"/><stop stop-opacity="1" stop-color="rgb(13.386536%, 14.624023%, 40.869141%)" offset="0.195312"/><stop stop-opacity="1" stop-color="rgb(13.290405%, 14.454651%, 40.591431%)" offset="0.203125"/><stop stop-opacity="1" stop-color="rgb(13.194275%, 14.285278%, 40.313721%)" offset="0.210938"/><stop stop-opacity="1" stop-color="rgb(13.098145%, 14.115906%, 40.036011%)" offset="0.21875"/><stop stop-opacity="1" stop-color="rgb(13.002014%, 13.946533%, 39.758301%)" offset="0.226562"/><stop stop-opacity="1" stop-color="rgb(12.905884%, 13.777161%, 39.480591%)" offset="0.234375"/><stop stop-opacity="1" stop-color="rgb(12.809753%, 13.607788%, 39.202881%)" offset="0.242188"/><stop stop-opacity="1" stop-color="rgb(12.713623%, 13.438416%, 38.925171%)" offset="0.25"/><stop stop-opacity="1" stop-color="rgb(12.617493%, 13.269043%, 38.647461%)" offset="0.257812"/><stop stop-opacity="1" stop-color="rgb(12.521362%, 13.09967%, 38.369751%)" offset="0.265625"/><stop stop-opacity="1" stop-color="rgb(12.425232%, 12.930298%, 38.092041%)" offset="0.273438"/><stop stop-opacity="1" stop-color="rgb(12.329102%, 12.760925%, 37.814331%)" offset="0.28125"/><stop stop-opacity="1" stop-color="rgb(12.231445%, 12.591553%, 37.536621%)" offset="0.289062"/><stop stop-opacity="1" stop-color="rgb(12.135315%, 12.42218%, 37.258911%)" offset="0.296875"/><stop stop-opacity="1" stop-color="rgb(12.039185%, 12.254333%, 36.981201%)" offset="0.304688"/><stop stop-opacity="1" stop-color="rgb(11.943054%, 12.084961%, 36.703491%)" offset="0.3125"/><stop stop-opacity="1" stop-color="rgb(11.846924%, 11.915588%, 36.425781%)" offset="0.320312"/><stop stop-opacity="1" stop-color="rgb(11.750793%, 11.746216%, 36.148071%)" offset="0.328125"/><stop stop-opacity="1" stop-color="rgb(11.654663%, 11.576843%, 35.870361%)" offset="0.335938"/><stop stop-opacity="1" stop-color="rgb(11.558533%, 11.407471%, 35.592651%)" offset="0.34375"/><stop stop-opacity="1" stop-color="rgb(11.462402%, 11.238098%, 35.314941%)" offset="0.351562"/><stop stop-opacity="1" stop-color="rgb(11.366272%, 11.068726%, 35.037231%)" offset="0.359375"/><stop stop-opacity="1" stop-color="rgb(11.270142%, 10.899353%, 34.759521%)" offset="0.367188"/><stop stop-opacity="1" stop-color="rgb(11.174011%, 10.72998%, 34.481812%)" offset="0.375"/><stop stop-opacity="1" stop-color="rgb(11.077881%, 10.560608%, 34.204102%)" offset="0.382812"/><stop stop-opacity="1" stop-color="rgb(10.980225%, 10.391235%, 33.926392%)" offset="0.390625"/><stop stop-opacity="1" stop-color="rgb(10.884094%, 10.221863%, 33.648682%)" offset="0.398437"/><stop stop-opacity="1" stop-color="rgb(10.787964%, 10.05249%, 33.370972%)" offset="0.40625"/><stop stop-opacity="1" stop-color="rgb(10.691833%, 9.884644%, 33.093262%)" offset="0.414062"/><stop stop-opacity="1" stop-color="rgb(10.595703%, 9.715271%, 32.815552%)" offset="0.421875"/><stop stop-opacity="1" stop-color="rgb(10.499573%, 9.545898%, 32.537842%)" offset="0.429688"/><stop stop-opacity="1" stop-color="rgb(10.403442%, 9.376526%, 32.260132%)" offset="0.4375"/><stop stop-opacity="1" stop-color="rgb(10.307312%, 9.207153%, 31.982422%)" offset="0.445312"/><stop stop-opacity="1" stop-color="rgb(10.211182%, 9.037781%, 31.704712%)" offset="0.453125"/><stop stop-opacity="1" stop-color="rgb(10.115051%, 8.868408%, 31.427002%)" offset="0.460937"/><stop stop-opacity="1" stop-color="rgb(10.018921%, 8.699036%, 31.149292%)" offset="0.46875"/><stop stop-opacity="1" stop-color="rgb(9.922791%, 8.529663%, 30.871582%)" offset="0.476563"/><stop stop-opacity="1" stop-color="rgb(9.82666%, 8.360291%, 30.593872%)" offset="0.484375"/><stop stop-opacity="1" stop-color="rgb(9.729004%, 8.190918%, 30.316162%)" offset="0.492188"/><stop stop-opacity="1" stop-color="rgb(9.632874%, 8.021545%, 30.038452%)" offset="0.5"/><stop stop-opacity="1" stop-color="rgb(9.536743%, 7.852173%, 29.760742%)" offset="0.507812"/><stop stop-opacity="1" stop-color="rgb(9.440613%, 7.6828%, 29.483032%)" offset="0.515625"/><stop stop-opacity="1" stop-color="rgb(9.344482%, 7.514954%, 29.206848%)" offset="0.523438"/><stop stop-opacity="1" stop-color="rgb(9.248352%, 7.345581%, 28.929138%)" offset="0.53125"/><stop stop-opacity="1" stop-color="rgb(9.152222%, 7.176208%, 28.651428%)" offset="0.539062"/><stop stop-opacity="1" stop-color="rgb(9.056091%, 7.006836%, 28.373718%)" offset="0.546875"/><stop stop-opacity="1" stop-color="rgb(8.959961%, 6.837463%, 28.096008%)" offset="0.554688"/><stop stop-opacity="1" stop-color="rgb(8.863831%, 6.668091%, 27.818298%)" offset="0.5625"/><stop stop-opacity="1" stop-color="rgb(8.7677%, 6.498718%, 27.540588%)" offset="0.570313"/><stop stop-opacity="1" stop-color="rgb(8.67157%, 6.329346%, 27.262878%)" offset="0.578125"/><stop stop-opacity="1" stop-color="rgb(8.575439%, 6.159973%, 26.985168%)" offset="0.585938"/><stop stop-opacity="1" stop-color="rgb(8.477783%, 5.990601%, 26.707458%)" offset="0.59375"/><stop stop-opacity="1" stop-color="rgb(8.381653%, 5.821228%, 26.429749%)" offset="0.601562"/><stop stop-opacity="1" stop-color="rgb(8.285522%, 5.651855%, 26.152039%)" offset="0.609375"/><stop stop-opacity="1" stop-color="rgb(8.218384%, 5.532837%, 25.9552%)" offset="0.625"/><stop stop-opacity="1" stop-color="rgb(8.198547%, 5.499268%, 25.898743%)" offset="0.75"/><stop stop-opacity="1" stop-color="rgb(8.198547%, 5.499268%, 25.898743%)" offset="0.850735"/><stop stop-opacity="1" stop-color="rgb(8.198547%, 5.499268%, 25.898743%)" offset="1"/></linearGradient></defs><path fill="#dfc373" d="M 197.453125 114.511719 L 310.203125 301.375 L 91.308594 174.996094 Z M 197.453125 114.511719 " fill-opacity="1" fill-rule="evenodd"/><g clip-path="url(#fe1ac32e9f)"><path fill="#bb6f31" d="M 191.917969 109.890625 L 299.160156 47.566406 L 411.9375 242.917969 L 304.695312 305.238281 Z M 191.917969 109.890625 " fill-opacity="1" fill-rule="evenodd"/></g><g clip-path="url(#a78a27fc4c)"><path fill="#915422" d="M 78.40625 174.59375 L 185.648438 112.269531 L 299.160156 47.566406 L 191.917969 109.890625 Z M 78.40625 174.59375 " fill-opacity="1" fill-rule="evenodd"/></g><path fill="#ecdb94" d="M 191.917969 109.890625 L 304.695312 305.238281 L 292.878906 298.425781 L 188.964844 119.855469 L 87.308594 177.796875 L 78.40625 174.59375 Z M 191.917969 109.890625 " fill-opacity="1" fill-rule="evenodd"/><path fill="#ccb066" d="M 188.964844 119.855469 L 87.308594 177.796875 L 93.667969 176.277344 L 190.335938 122.222656 Z M 188.964844 119.855469 " fill-opacity="1" fill-rule="evenodd"/><path fill="#dfc373" d="M 246.046875 87.550781 L 251.097656 84.609375 L 363.863281 279.949219 L 358.824219 282.886719 Z M 246.046875 87.550781 " fill-opacity="1" fill-rule="evenodd"/><path fill="#ecdb94" d="M 246.046875 87.550781 L 358.824219 282.886719 L 351.023438 278.378906 L 242.4375 90.296875 Z M 246.046875 87.550781 " fill-opacity="1" fill-rule="evenodd"/><path fill="#dfc373" d="M 288.902344 62.992188 L 293.957031 60.054688 L 406.734375 255.390625 L 401.679688 258.328125 Z M 288.902344 62.992188 " fill-opacity="1" fill-rule="evenodd"/><path fill="#ecdb94" d="M 288.902344 62.992188 L 401.679688 258.328125 L 393.878906 253.820312 L 285.292969 65.753906 Z M 288.902344 62.992188 " fill-opacity="1" fill-rule="evenodd"/><path fill="#dfc373" d="M 256.609375 95.109375 L 295.578125 74.011719 L 298.335938 78.785156 L 259.355469 99.871094 Z M 256.609375 95.109375 " fill-opacity="1" fill-rule="evenodd"/><path fill="#dfc373" d="M 274.742188 126.441406 L 313.710938 105.34375 L 316.472656 110.117188 L 277.492188 131.203125 Z M 274.742188 126.441406 " fill-opacity="1" fill-rule="evenodd"/><path fill="#dfc373" d="M 292.867188 157.773438 L 331.835938 136.675781 L 334.59375 141.449219 L 295.613281 162.535156 Z M 292.867188 157.773438 " fill-opacity="1" fill-rule="evenodd"/><path fill="#dfc373" d="M 311 189.105469 L 349.96875 167.992188 L 352.730469 172.78125 L 313.75 193.867188 Z M 311 189.105469 " fill-opacity="1" fill-rule="evenodd"/><path fill="#dfc373" d="M 329.125 220.4375 L 368.105469 199.324219 L 370.855469 204.113281 L 331.871094 225.199219 Z M 329.125 220.4375 " fill-opacity="1" fill-rule="evenodd"/><path fill="#dfc373" d="M 347.261719 251.769531 L 386.230469 230.65625 L 388.988281 235.445312 L 350.007812 256.53125 Z M 347.261719 251.769531 " fill-opacity="1" fill-rule="evenodd"/><path fill="#279cd6" d="M 363.230469 235.484375 L 368.144531 235.117188 C 370.765625 238.015625 372.082031 239.410156 371.816406 241.132812 C 371.425781 243.5625 368.371094 244.929688 366.207031 245.03125 C 365.976562 245.042969 365.746094 245.074219 365.523438 245.121094 C 364.609375 245.3125 363.964844 245.664062 362.886719 245.855469 C 359.519531 246.425781 354.503906 246.589844 351.882812 244.589844 C 350.261719 243.324219 350.335938 241.003906 352.78125 240.054688 L 358.824219 237.726562 Z M 363.230469 235.484375 " fill-opacity="1" fill-rule="evenodd"/><path fill="#163240" d="M 371.347656 239.015625 C 371.765625 239.664062 371.921875 240.367188 371.816406 241.132812 C 371.425781 243.5625 368.371094 244.929688 366.207031 245.03125 C 365.976562 245.042969 365.746094 245.074219 365.523438 245.121094 C 364.609375 245.3125 363.964844 245.664062 362.886719 245.855469 C 359.519531 246.425781 354.503906 246.589844 351.882812 244.589844 C 351.34375 244.203125 350.996094 243.6875 350.84375 243.042969 C 352.882812 245.246094 359.59375 245.222656 365.042969 243.90625 C 368.613281 243.09375 371.917969 241.335938 371.347656 239.015625 Z M 371.347656 239.015625 " fill-opacity="1" fill-rule="evenodd"/><path fill="#0d3569" d="M 348.957031 203.035156 C 355.429688 209.671875 356.492188 211.433594 358.582031 215.410156 L 368.613281 235.003906 C 369.144531 237.636719 360.949219 240.800781 358.480469 238.359375 L 338.597656 205.710938 C 334.59375 196.488281 342.789062 195.4375 348.957031 203.035156 Z M 348.957031 203.035156 " fill-opacity="1" fill-rule="evenodd"/><path fill="#0d3569" d="M 341.257812 161.789062 C 344.054688 167.449219 347.90625 169.679688 350.019531 175.351562 C 353.605469 184.9375 347.878906 196.578125 350.121094 205.089844 C 351.894531 211.875 339.28125 210.027344 337.292969 202.011719 C 336.027344 192.523438 335 177.871094 334.34375 168.335938 Z M 341.257812 161.789062 " fill-opacity="1" fill-rule="evenodd"/><path fill="#0f4283" d="M 334.128906 166.890625 C 336.851562 172.035156 339.433594 173.148438 341.648438 177.988281 C 344.042969 183.203125 342.574219 190.484375 334.328125 190.449219 C 332.175781 190.449219 329.796875 190.296875 327.996094 190.359375 C 321.195312 190.613281 313.167969 189.21875 310.027344 185.292969 C 309.78125 185.011719 309.570312 184.707031 309.390625 184.378906 C 309.210938 184.054688 309.070312 183.710938 308.964844 183.351562 C 308.859375 182.992188 308.792969 182.628906 308.769531 182.257812 C 308.742188 181.882812 308.757812 181.511719 308.808594 181.144531 C 308.863281 180.773438 308.957031 180.414062 309.089844 180.066406 C 309.222656 179.71875 309.386719 179.386719 309.59375 179.074219 C 309.796875 178.761719 310.03125 178.472656 310.296875 178.210938 C 310.558594 177.949219 310.851562 177.71875 311.167969 177.519531 C 315.523438 174.730469 321.042969 177.9375 326.996094 175.214844 Z M 334.128906 166.890625 " fill-opacity="1" fill-rule="evenodd"/><path fill="#279cd6" d="M 331.203125 209.75 L 336.128906 209.484375 C 338.660156 212.421875 339.925781 213.851562 339.6875 215.5625 C 339.257812 217.980469 336.179688 219.363281 334.011719 219.363281 C 333.78125 219.363281 333.554688 219.386719 333.328125 219.4375 C 332.417969 219.613281 331.757812 219.957031 330.683594 220.121094 C 327.289062 220.640625 322.273438 220.703125 319.703125 218.703125 C 318.09375 217.4375 318.207031 215.09375 320.664062 214.195312 L 326.757812 211.976562 Z M 331.203125 209.75 " fill-opacity="1" fill-rule="evenodd"/><path fill="#163240" d="M 339.257812 213.472656 C 339.660156 214.128906 339.804688 214.839844 339.6875 215.601562 C 339.257812 218.019531 336.179688 219.398438 334.011719 219.398438 C 333.78125 219.398438 333.554688 219.425781 333.328125 219.476562 C 332.417969 219.652344 331.757812 219.996094 330.683594 220.160156 C 327.289062 220.679688 322.273438 220.742188 319.703125 218.742188 C 319.164062 218.347656 318.824219 217.832031 318.675781 217.183594 C 320.675781 219.425781 327.390625 219.527344 332.859375 218.296875 C 336.417969 217.460938 339.789062 215.765625 339.257812 213.472656 Z M 339.257812 213.472656 " fill-opacity="1" fill-rule="evenodd"/><path fill="#0f4283" d="M 321.628906 183.332031 C 322.894531 184.597656 325.222656 185.738281 325.996094 187.269531 C 329.328125 193.945312 332.746094 201.199219 336.925781 209.636719 C 337.089844 213.433594 328.453125 214.992188 326.035156 212.546875 L 309.746094 185.003906 C 305.746094 175.796875 315.421875 175.71875 321.628906 183.332031 Z M 321.628906 183.332031 " fill-opacity="1" fill-rule="evenodd"/><path fill="#dfc373" d="M 246.046875 87.550781 L 251.097656 84.609375 L 363.863281 279.949219 L 358.824219 282.886719 Z M 246.046875 87.550781 " fill-opacity="1" fill-rule="evenodd"/><path fill="#ecdb94" d="M 246.046875 87.550781 L 358.824219 282.886719 L 351.023438 278.378906 L 242.4375 90.296875 Z M 246.046875 87.550781 " fill-opacity="1" fill-rule="evenodd"/><path fill="#d67f37" d="M 237.21875 107.660156 L 245.894531 102.457031 L 342.246094 269.335938 L 333.570312 274.554688 Z M 237.21875 107.660156 " fill-opacity="1" fill-rule="evenodd"/><path fill="#9c5c28" d="M 237.21875 107.660156 L 333.570312 274.554688 L 326.910156 270.703125 L 234.128906 110.015625 Z M 237.21875 107.660156 " fill-opacity="1" fill-rule="evenodd"/><path fill="#ffdba7" d="M 281.65625 163.28125 C 279.910156 162.636719 279.378906 158.320312 280.707031 156.949219 L 301.109375 159.015625 C 301.550781 158.960938 301.992188 158.953125 302.4375 158.992188 C 302.878906 159.027344 303.3125 159.109375 303.738281 159.234375 C 304.167969 159.359375 304.574219 159.527344 304.96875 159.738281 C 305.359375 159.949219 305.726562 160.195312 306.066406 160.480469 C 306.40625 160.765625 306.714844 161.082031 306.992188 161.429688 C 307.269531 161.777344 307.507812 162.148438 307.707031 162.546875 C 307.90625 162.941406 308.066406 163.355469 308.179688 163.785156 C 308.296875 164.214844 308.367188 164.648438 308.394531 165.09375 C 308.242188 167.007812 307.507812 168.324219 306.441406 168.78125 C 305.050781 169.386719 303.0625 168.78125 301.085938 168.511719 Z M 281.65625 163.28125 " fill-opacity="1" fill-rule="evenodd"/><path fill="#edebea" d="M 272.464844 156.546875 L 267.398438 156.847656 C 264.613281 156.164062 263.851562 155.175781 261.066406 154.886719 L 265.015625 161.546875 L 269.144531 163.726562 C 275.476562 165.5625 277.707031 164.738281 280.734375 162.902344 L 285.800781 164.777344 C 287.066406 163.296875 287.445312 158.117188 285.9375 157.253906 C 284.890625 157.367188 283.867188 157.265625 282.863281 156.949219 C 281.859375 156.632812 280.960938 156.132812 280.164062 155.445312 C 279.113281 154.539062 278.015625 153.695312 276.871094 152.910156 C 276.199219 152.390625 275.894531 151.453125 274.855469 150.464844 C 273.71875 149.046875 273.425781 148.515625 272.617188 149.199219 C 271.804688 149.882812 272.539062 151.519531 273.882812 153.289062 L 274.707031 155.695312 L 274.589844 155.835938 C 273.96875 156.128906 273.261719 156.34375 272.464844 156.546875 Z M 272.464844 156.546875 " fill-opacity="1" fill-rule="evenodd"/><path fill="#f0c17d" d="M 320.375 119.566406 C 324.25 125.898438 329.683594 130.011719 329.238281 137.964844 L 324.046875 139.234375 C 320.449219 133.515625 317.371094 127.527344 314.8125 121.273438 Z M 320.375 119.566406 " fill-opacity="1" fill-rule="evenodd"/><path fill="#d1d0cf" d="M 306.390625 107.800781 L 300.3125 111.496094 C 299.160156 113.003906 301.453125 112.269531 304.554688 111.8125 C 308.644531 111.207031 307.089844 116.160156 313.953125 118.449219 L 315.535156 124.085938 L 322.222656 120.386719 L 318.09375 115.324219 C 316.484375 111.523438 315.777344 109.914062 314.292969 108.789062 C 312.8125 107.660156 310.886719 107.089844 306.390625 107.800781 Z M 306.390625 107.800781 " fill-opacity="1" fill-rule="evenodd"/><path fill="#f0c17d" d="M 330.53125 128.316406 C 335.378906 132.914062 335.597656 143.144531 337.496094 149.542969 C 339.191406 155.292969 331.769531 156.875 329.378906 152.402344 L 323.347656 138.246094 C 321.449219 133.585938 321.828125 130.277344 322.996094 128.316406 C 323.4375 127.570312 323.5 126.820312 324.121094 126.71875 C 325.257812 126.433594 326.390625 126.429688 327.527344 126.710938 C 328.664062 126.996094 329.664062 127.53125 330.53125 128.316406 Z M 330.53125 128.316406 " fill-opacity="1" fill-rule="evenodd"/><path fill="#d1d0cf" d="M 330.53125 128.316406 C 333.796875 131.40625 335.203125 136.953125 336.191406 142.246094 C 336.988281 147.085938 328.210938 148.402344 326.210938 144.945312 L 323.347656 138.234375 C 321.449219 133.570312 321.828125 130.265625 322.996094 128.304688 C 323.4375 127.554688 323.5 126.808594 324.121094 126.707031 C 325.257812 126.421875 326.394531 126.421875 327.527344 126.707031 C 328.664062 126.992188 329.664062 127.527344 330.53125 128.316406 Z M 330.53125 128.316406 " fill-opacity="1" fill-rule="evenodd"/><path fill="#dedad7" d="M 324.046875 126.390625 C 324.566406 126.355469 325.078125 126.386719 325.589844 126.480469 C 330.101562 126.910156 332.746094 132.8125 334.457031 139.359375 C 336.304688 146.363281 337.128906 154.191406 338.902344 158.015625 C 338.902344 158.101562 337.34375 181.621094 325.121094 179.089844 C 323.527344 175.011719 317.066406 164.675781 312.253906 156.875 C 310.164062 153.492188 308.59375 150.429688 307.53125 148.832031 C 306.46875 147.238281 304.617188 146.933594 305.605469 144.097656 C 307.25 140.53125 309.359375 137.265625 311.9375 134.304688 C 315.128906 130.773438 320.691406 126.59375 324.046875 126.390625 Z M 324.046875 126.390625 " fill-opacity="1" fill-rule="evenodd"/><path fill="#0f4283" d="M 324.046875 126.390625 C 325.054688 126.429688 325.898438 126.824219 326.578125 127.570312 C 328.800781 130.058594 330.753906 132.746094 332.441406 135.625 C 335.429688 140.5625 335.722656 144.171875 336.953125 149.769531 C 337.457031 152.546875 338.226562 155.246094 339.257812 157.875 C 339.800781 159.066406 343.386719 165.308594 343.953125 166.664062 C 346.308594 172.324219 333.191406 183.636719 324.871094 180.203125 C 323.347656 176.316406 318.15625 167.058594 313.332031 158.546875 L 314.359375 160.117188 C 316.890625 163.917969 319.421875 164.96875 320.957031 164.195312 C 322.488281 163.421875 323.679688 161.660156 323.121094 158.203125 C 322.222656 152.542969 315.890625 137.851562 308.253906 139.207031 C 308.921875 138.070312 309.699219 137.011719 310.582031 136.027344 C 317.332031 135.257812 323.765625 146.972656 325.527344 149.882812 C 326.945312 152.226562 327.578125 152.035156 328.238281 151.148438 L 332.238281 147.023438 C 332.457031 143.121094 324.148438 128.683594 320.09375 127.785156 C 321.3125 127.042969 322.632812 126.578125 324.046875 126.390625 Z M 324.046875 126.390625 " fill-opacity="1" fill-rule="evenodd"/><path fill="#ffdba7" d="M 304.125 147.453125 C 298.996094 163.042969 301.238281 166.90625 304.835938 168.691406 C 309.214844 169.957031 310.46875 160.761719 313.546875 155.0625 C 315.09375 152.226562 316.371094 149.113281 315.710938 145.957031 C 314.257812 138.992188 307.480469 137.246094 304.125 147.453125 Z M 304.125 147.453125 " fill-opacity="1" fill-rule="evenodd"/><path fill="#edebea" d="M 303.414062 147.273438 C 302.820312 149.097656 302.71875 150.910156 302.261719 152.441406 C 301.820312 154.734375 310.40625 158.773438 313.191406 156.242188 C 314.726562 153.390625 316.535156 149.035156 315.878906 145.882812 C 314.421875 138.878906 306.785156 137.066406 303.414062 147.273438 Z M 303.414062 147.273438 " fill-opacity="1" fill-rule="evenodd"/><path fill="#f0c17d" d="M 316.6875 121.855469 C 317.664062 123.84375 319.753906 127.570312 320.714844 130.242188 C 322.121094 132.457031 315.269531 136.878906 313.242188 134.964844 C 311.882812 132.792969 310.652344 130.546875 309.558594 128.226562 Z M 316.6875 121.855469 " fill-opacity="1" fill-rule="evenodd"/><path fill="#ffdba7" d="M 302.300781 117.894531 C 300.097656 121.691406 303.339844 125.289062 305.441406 128.113281 C 306.519531 129.570312 308.304688 133.964844 310.039062 134.027344 C 311.394531 134.027344 314.359375 131.164062 315.105469 129.226562 C 315.625 127.835938 313.40625 125.542969 313.597656 124.757812 L 307.101562 116.375 Z M 302.300781 117.894531 " fill-opacity="1" fill-rule="evenodd"/><path fill="#000000" d="M 312.496094 111.472656 C 317.308594 112.484375 319.652344 116.804688 319.222656 121.4375 C 319.023438 122.496094 319.035156 123.546875 319.253906 124.597656 C 319.476562 125.648438 319.886719 126.617188 320.488281 127.503906 C 318.828125 128.429688 316.015625 130.039062 313.117188 128.191406 C 310.214844 126.339844 309.394531 123.402344 307.824219 123.894531 C 307.175781 124.097656 306.972656 125.164062 308.203125 127.441406 C 306.164062 125.542969 304.402344 123.085938 302.554688 121.390625 C 298.820312 117.957031 307.011719 109.625 312.496094 111.472656 Z M 312.496094 111.472656 " fill-opacity="1" fill-rule="evenodd"/><path fill="#fdba02" d="M 319.105469 119.617188 C 316.699219 125.25 305.175781 125.949219 300.894531 124.554688 C 295.042969 122.679688 297.945312 117.664062 302.351562 115.957031 C 304.769531 115.019531 322.070312 112.636719 319.105469 119.617188 Z M 319.105469 119.617188 " fill-opacity="1" fill-rule="evenodd"/><path fill="#fdca01" d="M 319.019531 117.855469 C 318.347656 123.199219 308.570312 124.554688 303.933594 123.605469 C 302.667969 123.328125 300.261719 122.441406 299.945312 121.160156 C 300.085938 116.222656 305.328125 110.359375 311.140625 110.738281 C 312.089844 110.832031 313.003906 111.074219 313.878906 111.460938 C 314.75 111.847656 315.542969 112.359375 316.25 113 C 316.960938 113.640625 317.550781 114.375 318.023438 115.207031 C 318.496094 116.035156 318.828125 116.917969 319.019531 117.855469 Z M 319.019531 117.855469 " fill-opacity="1" fill-rule="evenodd"/><path fill="#ffd321" d="M 319.019531 119.082031 C 318.765625 118.167969 318.386719 117.308594 317.882812 116.503906 C 317.375 115.699219 316.765625 114.984375 316.046875 114.363281 C 315.332031 113.738281 314.542969 113.230469 313.675781 112.839844 C 312.808594 112.449219 311.90625 112.191406 310.964844 112.066406 C 305.453125 111.699219 300.707031 117.460938 299.753906 121.945312 C 299.648438 120.867188 299.695312 119.792969 299.894531 118.730469 C 301.390625 114.257812 306.113281 109.964844 311.292969 110.308594 C 312.242188 110.402344 313.15625 110.636719 314.035156 111.011719 C 314.910156 111.382812 315.714844 111.878906 316.441406 112.496094 C 317.167969 113.113281 317.789062 113.824219 318.296875 114.632812 C 318.808594 115.4375 319.1875 116.300781 319.4375 117.222656 C 319.445312 117.875 319.304688 118.496094 319.019531 119.082031 Z M 319.019531 119.082031 " fill-opacity="1" fill-rule="evenodd"/><path fill="#fdc201" d="M 319.03125 119.082031 C 318.777344 118.167969 318.398438 117.308594 317.890625 116.503906 C 317.382812 115.699219 316.773438 114.984375 316.054688 114.359375 C 315.335938 113.738281 314.542969 113.230469 313.679688 112.839844 C 312.8125 112.449219 311.90625 112.191406 310.964844 112.066406 C 305.453125 111.699219 300.707031 117.460938 299.753906 121.945312 L 300.414062 121.945312 C 301.363281 117.488281 305.695312 112.28125 310.824219 112.613281 C 314.625 112.867188 317.359375 116.171875 318.625 119.210938 Z M 319.03125 119.082031 " fill-opacity="1" fill-rule="evenodd"/><path fill="#dfc373" d="M 88.867188 174.78125 L 172.957031 314.15625 L 9.714844 219.894531 Z M 88.867188 174.78125 " fill-opacity="1" fill-rule="evenodd"/><path fill="#bb6f31" d="M 84.738281 171.335938 L 168.679688 122.476562 L 252.796875 268.171875 L 168.84375 317.03125 Z M 84.738281 171.335938 " fill-opacity="1" fill-rule="evenodd"/><path fill="#915422" d="M 0.0742188 219.589844 L 80.0625 173.109375 L 164.714844 124.859375 L 84.738281 171.335938 Z M 0.0742188 219.589844 " fill-opacity="1" fill-rule="evenodd"/><path fill="#ecdb94" d="M 84.738281 171.335938 L 168.84375 317.03125 L 160.039062 311.953125 L 82.535156 178.757812 L 6.710938 221.984375 L 0.0742188 219.589844 Z M 84.738281 171.335938 " fill-opacity="1" fill-rule="evenodd"/><path fill="#ccb066" d="M 82.535156 178.757812 L 6.710938 221.984375 L 11.460938 220.855469 L 83.558594 180.542969 Z M 82.535156 178.757812 " fill-opacity="1" fill-rule="evenodd"/><g clip-path="url(#bc07c08a40)"><g clip-path="url(#71d5d04ca1)"><path fill="url(#3ef90763bd)" d="M 177.53125 354.847656 L 177.53125 364.066406 L 196.789062 364.066406 L 196.789062 354.847656 Z M 177.53125 354.847656 " fill-rule="nonzero"/></g></g><g clip-path="url(#3f1a711463)"><g clip-path="url(#550fe3b41d)"><path fill="url(#43e953cd0c)" d="M 177.9375 352.351562 L 177.9375 358.039062 L 182.785156 358.039062 L 182.785156 352.351562 Z M 177.9375 352.351562 " fill-rule="nonzero"/></g></g><path fill="#072c5e" d="M 178.277344 280.988281 C 178.074219 281.988281 177.226562 330.886719 182.445312 352.792969 C 182.488281 352.972656 182.472656 353.140625 182.390625 353.304688 C 182.308594 353.46875 182.183594 353.585938 182.015625 353.65625 C 180.644531 354.1875 179.226562 354.480469 177.757812 354.53125 C 177.464844 354.539062 177.203125 354.460938 176.964844 354.285156 C 176.726562 354.113281 176.570312 353.886719 176.492188 353.605469 C 174.996094 348.539062 167.84375 323.046875 166.90625 298.71875 C 165.867188 271.527344 166.90625 297.792969 166.90625 297.792969 L 167.527344 280.988281 Z M 178.277344 280.988281 " fill-opacity="1" fill-rule="nonzero"/><g clip-path="url(#e02fd67df2)"><g clip-path="url(#8e23ca9729)"><path fill="url(#fee9d766e1)" d="M 159.433594 356.582031 L 159.433594 364.40625 L 167.191406 364.40625 L 167.191406 356.582031 Z M 159.433594 356.582031 " fill-rule="nonzero"/></g></g><g clip-path="url(#8213a53ab6)"><g clip-path="url(#1df57deb36)"><path fill="url(#6f301b7d91)" d="M 160.457031 351.375 L 160.457031 357.875 L 164.636719 357.875 L 164.636719 351.375 Z M 160.457031 351.375 " fill-rule="nonzero"/></g></g><path fill="#072c5e" d="M 157.582031 282.480469 C 153.316406 308.277344 158.507812 346.246094 160.269531 353.679688 C 160.320312 353.910156 160.433594 354.101562 160.601562 354.261719 C 160.773438 354.421875 160.976562 354.519531 161.207031 354.554688 C 162.328125 354.765625 163.445312 354.722656 164.550781 354.429688 C 164.769531 354.367188 164.949219 354.242188 165.085938 354.0625 C 165.226562 353.882812 165.300781 353.679688 165.308594 353.453125 C 165.550781 347.4375 165.121094 310.558594 169.109375 295.980469 C 169.3125 295.222656 169.734375 294.613281 170.375 294.15625 L 178.101562 288.660156 L 178.695312 279.796875 Z M 157.582031 282.480469 " fill-opacity="1" fill-rule="nonzero"/><path fill="#0f4283" d="M 184.824219 233.597656 C 172.019531 233.382812 157.875 236.964844 157.875 236.964844 C 154.074219 259.242188 157.214844 284.949219 157.214844 284.949219 C 167.132812 287.546875 178.316406 283.355469 178.316406 283.355469 C 179.960938 274.046875 187.660156 247.832031 187.660156 247.832031 C 193.210938 247.214844 198.429688 245.554688 203.316406 242.855469 C 200.609375 239.480469 198.804688 235.683594 197.894531 231.457031 C 193.648438 232.847656 189.292969 233.558594 184.824219 233.597656 Z M 184.824219 233.597656 " fill-opacity="1" fill-rule="nonzero"/><path fill="#ffdba7" d="M 222.667969 214.738281 C 222.503906 214.527344 222.316406 214.34375 222.09375 214.195312 C 221.871094 214.042969 221.632812 213.933594 221.375 213.859375 C 221.121094 213.789062 220.855469 213.757812 220.589844 213.773438 C 220.324219 213.785156 220.066406 213.84375 219.816406 213.941406 C 217.929688 221.90625 208.050781 228.367188 197.894531 231.519531 C 198.804688 235.746094 200.609375 239.542969 203.316406 242.917969 C 220.171875 233.382812 222.667969 214.738281 222.667969 214.738281 Z M 222.667969 214.738281 " fill-opacity="1" fill-rule="nonzero"/><path fill="#f0c17d" d="M 222.363281 215.117188 C 222.488281 215.535156 220.96875 216.167969 220.070312 214.460938 C 220.070312 213.636719 219.539062 210.117188 220.070312 209.394531 C 222.402344 206.5 224.960938 203.824219 227.746094 201.363281 C 227.867188 201.464844 227.960938 201.585938 228.035156 201.726562 C 228.109375 201.863281 228.152344 202.011719 228.167969 202.167969 C 228.179688 202.328125 228.164062 202.480469 228.117188 202.628906 C 228.070312 202.78125 227.996094 202.914062 227.898438 203.035156 L 225.441406 205.570312 C 226.046875 206.449219 226.523438 207.394531 226.871094 208.40625 C 227.097656 209.296875 226.984375 210.140625 226.53125 210.941406 C 226.046875 211.808594 225.523438 212.652344 224.960938 213.472656 C 224.683594 213.9375 224.316406 214.316406 223.855469 214.605469 C 223.398438 214.894531 222.902344 215.066406 222.363281 215.117188 Z M 222.363281 215.117188 " fill-opacity="1" fill-rule="nonzero"/><path fill="#ffdba7" d="M 224.324219 207.316406 L 222.085938 209.21875 L 221.386719 211.105469 L 223.375 213.320312 C 223.625 211.765625 224.019531 210.242188 224.554688 208.761719 C 225.046875 207.949219 224.792969 207.558594 224.324219 207.316406 Z M 224.324219 207.316406 " fill-opacity="1" fill-rule="nonzero"/><path fill="#072c5e" d="M 162.789062 249.363281 L 157.875 236.964844 C 157.875 236.964844 145.90625 245.09375 143.945312 255.40625 C 147.589844 255.65625 151.058594 256.585938 154.339844 258.191406 C 155.226562 253.328125 162.789062 249.363281 162.789062 249.363281 Z M 162.789062 249.363281 " fill-opacity="1" fill-rule="nonzero"/><path fill="#ffdba7" d="M 173.25 261.039062 C 173.25 261.039062 159.8125 268.640625 155.277344 262.15625 C 154.855469 261.585938 154.5625 260.957031 154.402344 260.269531 C 154.238281 259.582031 154.21875 258.886719 154.339844 258.191406 C 151.058594 256.585938 147.589844 255.65625 143.945312 255.40625 C 143.613281 257.070312 143.578125 258.742188 143.84375 260.417969 C 144.109375 262.097656 144.660156 263.675781 145.488281 265.15625 C 153.429688 279.683594 175.023438 264.359375 175.023438 264.359375 Z M 173.25 261.039062 " fill-opacity="1" fill-rule="nonzero"/><path fill="#ffdba7" d="M 171.84375 223.199219 L 167.777344 235.003906 C 167.746094 235.097656 167.746094 235.195312 167.78125 235.289062 C 167.816406 235.386719 167.878906 235.457031 167.96875 235.507812 C 168.75 235.914062 169.566406 236.207031 170.429688 236.390625 C 171.289062 236.570312 172.15625 236.628906 173.035156 236.570312 C 173.910156 236.511719 174.761719 236.335938 175.589844 236.039062 C 176.417969 235.746094 177.191406 235.34375 177.910156 234.835938 C 178.4375 234.503906 178.742188 234.027344 178.820312 233.40625 L 180.152344 223.273438 Z M 171.84375 223.199219 " fill-opacity="1" fill-rule="nonzero"/><path fill="#ffdba7" d="M 180.722656 212.28125 C 180.722656 212.28125 185.191406 220.703125 184.621094 224.109375 C 184.050781 227.515625 178.503906 227.265625 173.65625 224.503906 L 170.273438 215.410156 Z M 180.722656 212.28125 " fill-opacity="1" fill-rule="nonzero"/><g clip-path="url(#dd383fa77b)"><g clip-path="url(#fb6f5b715f)"><path fill="url(#29398e6792)" d="M 154.375 213.992188 L 172.761719 234.574219 L 193.355469 216.175781 L 174.96875 195.597656 Z M 154.375 213.992188 " fill-rule="nonzero"/></g></g><path fill="#ffdba7" d="M 174.378906 220.566406 C 174.378906 220.566406 171.199219 218.375 170.957031 220.210938 C 170.71875 222.046875 173.832031 222.882812 175.363281 222.199219 Z M 174.378906 220.566406 " fill-opacity="1" fill-rule="nonzero"/><path fill="#fdca01" d="M 182.445312 208.496094 C 182.445312 208.496094 177.378906 199.71875 168.285156 204.960938 C 159.191406 210.203125 164.117188 216.636719 164.117188 216.636719 Z M 182.445312 208.496094 " fill-opacity="1" fill-rule="nonzero"/><path fill="#fdba02" d="M 163.890625 208.949219 C 163.890625 208.949219 174.820312 200.226562 179.988281 209.597656 L 182.519531 208.496094 C 182.519531 208.496094 177.9375 200.085938 171.679688 202.910156 C 165.421875 205.734375 163.878906 207.140625 163.890625 208.949219 Z M 163.890625 208.949219 " fill-opacity="1" fill-rule="nonzero"/><path fill="#ffffff" d="M 176.402344 211.472656 C 176.371094 211.484375 176.335938 211.484375 176.300781 211.472656 L 176.238281 211.472656 C 174.605469 210.597656 171.882812 209.140625 170.070312 209.886719 C 169.183594 210.289062 168.339844 210.765625 167.539062 211.320312 C 166.957031 211.6875 166.347656 212.066406 165.753906 212.382812 C 164.941406 212.8125 164.03125 213.269531 163.003906 213.789062 C 162.953125 213.835938 162.902344 213.835938 162.851562 213.789062 C 162.8125 213.738281 162.8125 213.6875 162.851562 213.636719 C 163.878906 213.128906 164.777344 212.660156 165.601562 212.230469 C 166.195312 211.925781 166.789062 211.546875 167.359375 211.179688 C 168.164062 210.628906 169.007812 210.144531 169.894531 209.738281 C 171.804688 208.9375 174.59375 210.433594 176.226562 211.320312 L 176.300781 211.320312 C 176.339844 211.371094 176.339844 211.421875 176.300781 211.472656 C 176.335938 211.453125 176.371094 211.453125 176.402344 211.472656 Z M 176.402344 211.472656 " fill-opacity="1" fill-rule="nonzero"/><path fill="#fdba02" d="M 164.207031 218.058594 L 185.738281 209.761719 C 185.886719 209.703125 185.964844 209.59375 185.964844 209.433594 C 185.960938 209.269531 185.878906 209.164062 185.722656 209.117188 C 184.609375 208.761719 182.773438 208.253906 182.039062 208.582031 L 164.144531 216.636719 C 164.144531 216.636719 163.789062 216.816406 164.207031 218.058594 Z M 164.207031 218.058594 " fill-opacity="1" fill-rule="nonzero"/><path fill="#d4dbdd" d="M 209.722656 234.203125 L 209.546875 234.078125 L 207.011719 232.253906 C 206.628906 231.960938 206.203125 231.894531 205.746094 232.050781 C 205.300781 232.1875 205.003906 232.472656 204.847656 232.914062 L 203.582031 236.496094 L 201.1875 243.347656 C 201.1875 243.347656 212.308594 243.347656 209.722656 234.203125 Z M 209.722656 234.203125 " fill-opacity="1" fill-rule="nonzero"/><path fill="#f3fafd" d="M 209.722656 234.203125 L 209.722656 234.140625 L 209.546875 234.015625 C 210.445312 235.28125 208.914062 235.570312 203.644531 236.433594 L 200.847656 236.902344 C 195.171875 237.851562 189.953125 235.128906 187.574219 233.609375 C 187.398438 233.5 187.210938 233.433594 187.007812 233.40625 C 186.804688 233.378906 186.605469 233.394531 186.410156 233.457031 C 186.210938 233.515625 186.039062 233.617188 185.886719 233.753906 C 185.734375 233.890625 185.617188 234.054688 185.535156 234.242188 C 183.496094 239.105469 177.480469 253.480469 177.1875 254.023438 L 171.3125 267.804688 C 171.3125 267.804688 171.234375 270.070312 174.542969 272.234375 C 177.847656 274.402344 178.871094 275.222656 183.585938 274.375 C 186.246094 273.828125 188.859375 273.109375 191.421875 272.210938 L 191.421875 272.527344 C 192.6875 272.066406 193.980469 271.710938 195.296875 271.449219 C 195.351562 271.34375 195.394531 271.234375 195.425781 271.121094 L 202.164062 255.1875 L 202.289062 254.671875 C 204.464844 251.492188 206.390625 248.171875 208.066406 244.703125 C 208.058594 244.664062 208.058594 244.628906 208.066406 244.589844 C 208.34375 243.964844 208.597656 243.382812 208.824219 242.839844 C 211.128906 237.167969 210.304688 235.003906 209.722656 234.203125 Z M 209.722656 234.203125 " fill-opacity="1" fill-rule="nonzero"/><path fill="#e7eff2" d="M 191.386719 272.515625 C 192.648438 272.054688 193.941406 271.695312 195.261719 271.4375 L 201.960938 255.59375 C 202.023438 255.457031 202.078125 255.320312 202.125 255.175781 C 204.550781 251.933594 206.535156 248.4375 208.078125 244.691406 C 208.078125 244.691406 208.078125 244.613281 208.078125 244.578125 C 208.253906 244.183594 208.394531 243.816406 208.53125 243.449219 C 208.382812 243.652344 203.378906 250.390625 201.632812 252.644531 C 200.074219 254.621094 192.957031 269.296875 191.386719 272.515625 Z M 191.386719 272.515625 " fill-opacity="1" fill-rule="nonzero"/><path fill="#f0c17d" d="M 173.402344 264.460938 C 173.402344 264.460938 172.390625 260.253906 172.792969 258.773438 C 173.199219 257.292969 174.058594 255.367188 176.667969 255.785156 C 178.640625 256.152344 180.574219 256.667969 182.46875 257.328125 C 182.460938 257.453125 182.4375 257.574219 182.398438 257.691406 C 182.363281 257.8125 182.308594 257.921875 182.246094 258.03125 C 182.179688 258.136719 182.101562 258.230469 182.011719 258.316406 C 181.921875 258.40625 181.824219 258.480469 181.71875 258.542969 C 181.609375 258.605469 181.496094 258.652344 181.375 258.6875 C 181.257812 258.722656 181.136719 258.742188 181.011719 258.746094 C 180.886719 258.75 180.761719 258.742188 180.640625 258.714844 C 180.519531 258.691406 180.402344 258.648438 180.292969 258.597656 L 181.558594 259.570312 C 181.558594 259.570312 181.378906 261.128906 179.671875 260.292969 L 180.835938 261.558594 C 180.742188 261.730469 180.617188 261.875 180.460938 261.992188 C 180.304688 262.109375 180.132812 262.1875 179.945312 262.230469 C 179.753906 262.277344 179.5625 262.277344 179.371094 262.242188 C 179.179688 262.203125 179.007812 262.128906 178.847656 262.015625 C 177.570312 261.269531 176.972656 264.964844 173.402344 264.460938 Z M 173.402344 264.460938 " fill-opacity="1" fill-rule="nonzero"/></svg>