<svg xmlns="http://www.w3.org/2000/svg" xmlns:xlink="http://www.w3.org/1999/xlink" width="550" zoomAndPan="magnify" viewBox="0 0 412.5 412.499996" height="550" preserveAspectRatio="xMidYMid meet" version="1.0"><path fill="#4a4b67" d="M 163.28125 70.714844 C 163.28125 70.714844 188.890625 90.402344 197.546875 102.015625 C 206.199219 113.632812 160.316406 112.839844 160.316406 112.839844 L 152.679688 94.953125 L 152.453125 79.480469 Z M 163.28125 70.714844 " fill-opacity="1" fill-rule="nonzero"/><path fill="#4a4b67" d="M 210.160156 204.84375 C 210.160156 204.84375 212.855469 206.332031 221.050781 202.066406 C 229.25 197.800781 245.105469 194.941406 247.1875 190.917969 C 249.984375 185.507812 236.628906 179.265625 236.628906 179.265625 L 224.003906 180.742188 L 215.148438 186.808594 C 215.148438 186.808594 207.960938 199.09375 210.160156 204.84375 Z M 210.160156 204.84375 " fill-opacity="1" fill-rule="nonzero"/><path fill="#f8a24d" d="M 201.09375 22.625 C 201.09375 22.625 202.738281 34.003906 210.609375 39.527344 C 218.480469 45.050781 216.019531 27.960938 216.019531 27.960938 Z M 201.09375 22.625 " fill-opacity="1" fill-rule="nonzero"/><path fill="#4a4b67" d="M 149 374.890625 C 148.453125 383.027344 92.90625 384.410156 93.453125 376.273438 C 93.742188 355.886719 91.105469 318.257812 91.394531 297.871094 C 85.191406 317.839844 82.8125 353.34375 76.609375 373.347656 C 76.09375 383.703125 22.734375 379.394531 23.246094 369.007812 C 26.089844 361.953125 39.828125 236.144531 52.820312 197.144531 L 53.59375 197.144531 C 84.417969 197.082031 119.8125 204.671875 137.523438 229.851562 C 139.773438 233.035156 140.898438 236.765625 141.542969 240.65625 C 142.050781 243.675781 142.59375 250.617188 142.699219 253.261719 C 144.792969 281.296875 146.457031 303.234375 146.652344 318.644531 C 146.878906 335.078125 149.996094 358.492188 149 374.890625 Z M 149 374.890625 " fill-opacity="1" fill-rule="nonzero"/><path fill="#ffbd64" d="M 334.15625 402.707031 L 334.15625 365.699219 L 311.660156 365.699219 L 311.660156 402.707031 C 311.660156 407.578125 334.15625 407.578125 334.15625 402.707031 Z M 334.15625 402.707031 " fill-opacity="1" fill-rule="nonzero"/><path fill="#f8a24d" d="M 317.59375 365.699219 L 317.59375 405.980469 C 314.207031 405.441406 311.664062 404.351562 311.664062 402.710938 L 311.664062 365.699219 Z M 317.59375 365.699219 " fill-opacity="1" fill-rule="nonzero"/><path fill="#ffbd64" d="M 50.078125 404.109375 L 50.078125 367.101562 L 27.585938 367.101562 L 27.585938 404.109375 C 27.585938 408.976562 50.078125 408.976562 50.078125 404.109375 Z M 50.078125 404.109375 " fill-opacity="1" fill-rule="nonzero"/><path fill="#f8a24d" d="M 33.515625 367.097656 L 33.515625 407.378906 C 30.132812 406.839844 27.585938 405.75 27.585938 404.109375 L 27.585938 367.097656 Z M 33.515625 367.097656 " fill-opacity="1" fill-rule="nonzero"/><path fill="#ffbd64" d="M 411.210938 342.523438 L 411.210938 305.515625 L 388.71875 305.515625 L 388.71875 342.523438 C 388.71875 347.394531 411.210938 347.394531 411.210938 342.523438 Z M 411.210938 342.523438 " fill-opacity="1" fill-rule="nonzero"/><path fill="#f8a24d" d="M 394.648438 305.515625 L 394.648438 345.792969 C 391.265625 345.257812 388.71875 344.167969 388.71875 342.527344 L 388.71875 305.515625 Z M 394.648438 305.515625 " fill-opacity="1" fill-rule="nonzero"/><path fill="#ffbd64" d="M 112.96875 390.960938 L 112.96875 353.953125 L 90.476562 353.953125 L 90.476562 390.960938 C 90.476562 395.828125 112.96875 395.828125 112.96875 390.960938 Z M 112.96875 390.960938 " fill-opacity="1" fill-rule="nonzero"/><path fill="#f8a24d" d="M 96.40625 353.949219 L 96.40625 394.230469 C 93.023438 393.691406 90.476562 392.605469 90.476562 390.964844 L 90.476562 353.949219 Z M 96.40625 353.949219 " fill-opacity="1" fill-rule="nonzero"/><path fill="#dacfcd" d="M 411.355469 309.5625 C 411.375 309.945312 411.230469 310.332031 410.882812 310.613281 L 334.984375 373.671875 C 334.753906 373.871094 334.453125 373.972656 334.152344 373.972656 L 27.324219 373.972656 C 26.617188 373.972656 26.136719 373.460938 26.039062 372.878906 C 26.035156 367.777344 26.03125 360.332031 26.03125 360.808594 L 26.039062 360.808594 C 26.136719 361.394531 26.617188 361.90625 27.324219 361.90625 L 334.152344 361.90625 C 334.453125 361.90625 334.753906 361.800781 334.984375 361.605469 L 410.882812 298.542969 C 411.144531 298.328125 411.289062 298.050781 411.335938 297.769531 Z M 411.355469 309.5625 " fill-opacity="1" fill-rule="nonzero"/><path fill="#e8ddd9" d="M 410.882812 298.542969 L 334.984375 361.605469 C 334.753906 361.800781 334.453125 361.90625 334.152344 361.90625 L 27.324219 361.90625 C 26.617188 361.90625 26.136719 361.394531 26.039062 360.808594 L 26.03125 360.808594 C 25.953125 360.382812 26.085938 359.917969 26.484375 359.582031 L 102.378906 296.523438 C 102.613281 296.332031 102.910156 296.222656 103.21875 296.222656 L 410.042969 296.222656 C 411.277344 296.222656 411.8125 297.777344 410.882812 298.542969 Z M 410.882812 298.542969 " fill-opacity="1" fill-rule="nonzero"/><path fill="#997458" d="M 317.769531 359.261719 L 317.765625 359.253906 C 317.554688 359.824219 317.011719 360.277344 316.382812 360.277344 C 309.457031 360.265625 285.636719 360.25 279.554688 360.277344 C 278.695312 360.277344 278.007812 359.6875 277.847656 358.828125 L 260.792969 267.058594 C 260.550781 265.765625 261.589844 264.429688 262.886719 264.367188 L 264.492188 264.285156 L 280.449219 350.175781 C 280.613281 351.035156 281.300781 351.625 282.164062 351.613281 C 288.242188 351.59375 312.0625 351.613281 318.984375 351.625 C 319.53125 351.625 320.011719 351.28125 320.261719 350.820312 Z M 317.769531 359.261719 " fill-opacity="1" fill-rule="nonzero"/><path fill="#b59473" d="M 318.984375 351.625 C 312.0625 351.613281 288.242188 351.59375 282.164062 351.613281 C 281.300781 351.625 280.613281 351.035156 280.449219 350.175781 C 276.9375 331.277344 289.375 398.191406 263.394531 258.40625 C 263.15625 257.105469 264.195312 255.769531 265.492188 255.703125 L 295.609375 254.222656 C 296.460938 254.183594 297.171875 254.710938 297.378906 255.546875 C 300.082031 266.402344 317.386719 337.292969 320.425781 349.753906 C 320.644531 350.621094 319.921875 351.625 318.984375 351.625 Z M 318.984375 351.625 " fill-opacity="1" fill-rule="nonzero"/><path fill="#997458" d="M 277.734375 302.636719 C 275.117188 298.484375 272.546875 294.144531 270.09375 289.746094 C 269.839844 289.289062 270.53125 288.882812 270.796875 289.355469 C 273.242188 293.742188 275.804688 298.066406 278.410156 302.210938 C 280.074219 304.855469 281.519531 305.628906 283.226562 304.734375 C 285.085938 303.78125 286.710938 301.191406 288.203125 296.8125 C 292.675781 283.679688 295.132812 270.277344 295.3125 258.0625 C 295.320312 257.527344 296.125 257.539062 296.117188 258.078125 C 295.9375 270.371094 293.464844 283.859375 288.960938 297.070312 C 287.402344 301.65625 285.648438 304.398438 283.597656 305.453125 C 281.082031 306.738281 279.230469 305.03125 277.734375 302.636719 Z M 277.734375 302.636719 " fill-opacity="1" fill-rule="nonzero"/><path fill="#997458" d="M 278.492188 292.507812 C 273.175781 282.519531 269.691406 270.746094 268.132812 257.515625 C 268.074219 257 268.867188 256.867188 268.933594 257.417969 C 270.476562 270.550781 273.933594 282.226562 279.199219 292.128906 C 279.941406 293.519531 280.609375 294.386719 281.601562 294.386719 C 283.355469 294.386719 285.214844 291.800781 285.964844 290.160156 C 286.925781 288.0625 287.269531 285.910156 287.585938 283.519531 C 288.738281 274.816406 289.613281 266.089844 290.175781 257.597656 C 290.21875 257.105469 291.011719 257.089844 290.980469 257.648438 C 290.414062 266.164062 289.539062 274.902344 288.382812 283.625 C 288.054688 286.082031 287.699219 288.296875 286.691406 290.492188 C 285.707031 292.65625 283.75 295.042969 281.785156 295.1875 C 280.132812 295.265625 279.273438 293.976562 278.492188 292.507812 Z M 278.492188 292.507812 " fill-opacity="1" fill-rule="nonzero"/><path fill="#997458" d="M 279.402344 276.910156 C 278.5 276.121094 278.722656 276.222656 273.472656 257.792969 C 273.324219 257.273438 274.097656 257.078125 274.242188 257.574219 C 279.398438 275.65625 279.253906 275.707031 279.933594 276.308594 C 280.304688 276.632812 280.996094 276.6875 281.648438 276.035156 C 283.070312 274.605469 282.722656 273.269531 284.628906 256.03125 C 284.683594 255.464844 285.480469 255.613281 285.425781 256.113281 C 283.550781 272.921875 283.949219 274.863281 282.21875 276.597656 C 281.261719 277.566406 280.074219 277.511719 279.402344 276.910156 Z M 279.402344 276.910156 " fill-opacity="1" fill-rule="nonzero"/><path fill="#997458" d="M 283.910156 321.359375 C 279.855469 321.359375 278.476562 316.894531 275.304688 316.003906 C 274.800781 315.867188 274.996094 315.101562 275.519531 315.230469 C 277.660156 315.832031 279 317.757812 280.59375 319.144531 C 281.894531 320.277344 283.941406 321.308594 286.304688 319.808594 C 289.226562 317.945312 291.042969 313.324219 292.160156 310.007812 C 295.875 298.933594 298.480469 287.859375 299.894531 277.089844 C 299.96875 276.566406 300.757812 276.667969 300.691406 277.195312 C 299.269531 288.011719 296.652344 299.140625 292.917969 310.265625 C 291.417969 314.726562 288.636719 321.359375 283.910156 321.359375 Z M 283.910156 321.359375 " fill-opacity="1" fill-rule="nonzero"/><path fill="#997458" d="M 317.679688 348.550781 C 312.261719 345.480469 307.089844 341.808594 302.308594 337.632812 C 299.53125 335.214844 296.46875 332.234375 295.28125 327.480469 C 292.304688 315.558594 301.398438 298.09375 302.046875 284.722656 C 302.054688 284.5 302.257812 284.363281 302.46875 284.339844 C 302.691406 284.351562 302.859375 284.539062 302.851562 284.757812 C 302.203125 298.15625 293.148438 315.609375 296.058594 327.285156 C 297.195312 331.816406 300.152344 334.6875 302.835938 337.03125 C 307.578125 341.164062 312.703125 344.808594 318.074219 347.855469 C 318.542969 348.117188 318.128906 348.820312 317.679688 348.550781 Z M 317.679688 348.550781 " fill-opacity="1" fill-rule="nonzero"/><path fill="#997458" d="M 300.304688 320.835938 C 299.84375 312.878906 302.5625 303.527344 304.957031 295.269531 C 305.105469 294.769531 305.878906 294.980469 305.730469 295.496094 C 303.347656 303.6875 300.652344 312.972656 301.109375 320.792969 C 301.65625 330.265625 307.34375 336.636719 314.996094 336.191406 C 315.003906 336.191406 315.011719 336.191406 315.019531 336.191406 C 315.535156 336.191406 315.558594 336.96875 315.039062 336.996094 C 306.230469 337.4375 300.832031 329.917969 300.304688 320.835938 Z M 300.304688 320.835938 " fill-opacity="1" fill-rule="nonzero"/><path fill="#997458" d="M 310.558594 328.691406 C 305.84375 325.113281 304.421875 316.464844 307.109375 307.660156 C 307.253906 307.148438 308.035156 307.382812 307.875 307.894531 C 305.285156 316.382812 306.589844 324.671875 311.042969 328.050781 C 311.472656 328.375 310.976562 329.019531 310.558594 328.691406 Z M 310.558594 328.691406 " fill-opacity="1" fill-rule="nonzero"/><path fill="#997458" d="M 298.121094 351.015625 C 296.800781 337.554688 289.078125 328.238281 278.449219 327.273438 C 277.890625 327.226562 278.035156 326.378906 278.523438 326.476562 C 289.554688 327.472656 297.5625 337.074219 298.921875 350.933594 C 298.972656 351.46875 298.171875 351.546875 298.121094 351.015625 Z M 298.121094 351.015625 " fill-opacity="1" fill-rule="nonzero"/><path fill="#997458" d="M 288.148438 348.023438 C 288.558594 341.441406 285.8125 336.289062 281.320312 335.210938 C 280.789062 335.085938 281.011719 334.285156 281.507812 334.429688 C 286.390625 335.605469 289.382812 341.085938 288.953125 348.074219 C 288.921875 348.601562 288.121094 348.5625 288.148438 348.023438 Z M 288.148438 348.023438 " fill-opacity="1" fill-rule="nonzero"/><path fill="#997458" d="M 285.308594 350.867188 C 285.960938 347.332031 284.789062 344.359375 282.519531 343.789062 C 281.992188 343.660156 282.21875 342.863281 282.714844 343.011719 C 285.410156 343.683594 286.832031 347.046875 286.101562 351.011719 C 285.996094 351.539062 285.210938 351.386719 285.308594 350.867188 Z M 285.308594 350.867188 " fill-opacity="1" fill-rule="nonzero"/><path fill="#997458" d="M 288.386719 321.925781 C 288.253906 321.417969 289.023438 321.191406 289.164062 321.722656 C 289.203125 321.882812 289.273438 321.90625 289.332031 321.921875 C 289.652344 321.960938 290.214844 321.699219 290.65625 321.132812 C 291.632812 319.867188 291.851562 318.304688 293.246094 313.171875 C 293.390625 312.65625 294.160156 312.871094 294.027344 313.378906 C 292.609375 318.566406 292.355469 320.242188 291.289062 321.625 C 290.339844 322.855469 288.710938 323.195312 288.386719 321.925781 Z M 288.386719 321.925781 " fill-opacity="1" fill-rule="nonzero"/><path fill="#997458" d="M 301.269531 349.453125 C 301.558594 347.824219 301.65625 344.09375 303.835938 344.09375 C 305.011719 344.398438 303.351562 343.25 310.765625 349.09375 C 311.191406 349.425781 310.679688 350.054688 310.269531 349.730469 C 303.949219 344.761719 304.277344 344.917969 303.882812 344.898438 C 303.871094 344.898438 303.859375 344.898438 303.84375 344.898438 C 302.429688 344.898438 302.285156 348.257812 302.0625 349.589844 C 301.96875 350.125 301.183594 349.972656 301.269531 349.453125 Z M 301.269531 349.453125 " fill-opacity="1" fill-rule="nonzero"/><path fill="#997458" d="M 246.746094 325.109375 C 246.859375 328.84375 246.71875 338.335938 247.453125 346.15625 C 247.453125 346.15625 247.011719 352.015625 246.859375 353.4375 C 246.777344 354.195312 245.761719 354.757812 244.730469 354.734375 L 125.039062 352.589844 C 123.1875 352.546875 121.960938 350.457031 122.273438 348.3125 L 122.785156 342.5625 L 131.90625 320.5 C 132.160156 319.867188 133.023438 319.441406 134.078125 319.453125 C 147.582031 319.546875 231.394531 323.6875 244.730469 323.789062 C 245.554688 323.789062 246.722656 324.40625 246.746094 325.109375 Z M 246.746094 325.109375 " fill-opacity="1" fill-rule="nonzero"/><path fill="#b59473" d="M 246.535156 317.4375 C 246.683594 322.332031 247.261719 340.917969 247.453125 346.15625 C 247.488281 346.917969 246.796875 347.417969 245.765625 347.394531 L 133.914062 344.875 L 125.589844 344.691406 C 123.738281 344.648438 122.398438 343.378906 122.878906 342.136719 L 134.785156 313.542969 C 135.035156 312.910156 135.898438 312.488281 136.957031 312.496094 C 150.460938 312.589844 231.179688 316.015625 244.515625 316.117188 C 245.34375 316.121094 246.511719 316.738281 246.535156 317.4375 Z M 246.535156 317.4375 " fill-opacity="1" fill-rule="nonzero"/><path fill="#273454" d="M 142.855469 250.726562 C 142.753906 250.785156 142.65625 250.839844 142.550781 250.890625 C 128.011719 258.96875 110.640625 261.863281 94.261719 258.921875 C 80.25 256.402344 66.769531 249.769531 52.554688 250.550781 C 48.101562 250.792969 43.0625 252.261719 41.265625 256.339844 C 41.03125 256.875 40.527344 257.421875 39.921875 257.945312 C 40.984375 251.507812 42.074219 245.175781 43.183594 239.097656 C 44.394531 237.757812 45.925781 236.816406 47.753906 236.585938 C 50.199219 236.269531 52.589844 237.328125 54.859375 238.292969 C 81.84375 249.695312 113.238281 250.148438 142.539062 250.71875 C 142.644531 250.71875 142.75 250.726562 142.855469 250.726562 Z M 142.855469 250.726562 " fill-opacity="1" fill-rule="nonzero"/><path fill="#273454" d="M 133.414062 234.550781 C 115.695312 237.257812 97.519531 234.964844 81.058594 228.613281 C 76.339844 226.785156 58.074219 218.578125 49.199219 210.09375 C 50.398438 205.171875 51.605469 200.800781 52.8125 197.144531 C 53.066406 197.144531 53.324219 197.144531 53.578125 197.136719 C 58.421875 198.882812 63.019531 203.320312 67.261719 205.578125 C 71.796875 208 75.980469 210.945312 80.402344 213.375 C 85.890625 216.390625 92.503906 218.210938 98.335938 220.539062 C 105.066406 223.226562 118.523438 228.601562 125.253906 231.289062 C 127.078125 232.015625 131.53125 234.832031 133.414062 234.550781 Z M 133.414062 234.550781 " fill-opacity="1" fill-rule="nonzero"/><path fill="#98a0ff" d="M 142.699219 253.261719 C 115.214844 258.378906 86.21875 255.835938 60.761719 244.355469 C 57.199219 242.71875 52.671875 239.816406 49.542969 237.503906 C 46.226562 235.054688 45.109375 233.8125 43.917969 232.617188 C 45.363281 226.613281 51.304688 222.070312 52.339844 215.828125 C 62.453125 229.648438 79.492188 237.519531 96.441406 240.367188 C 111.292969 242.84375 126.496094 241.976562 141.542969 240.65625 C 142.0625 243.753906 142.625 251.378906 142.699219 253.261719 Z M 142.699219 253.261719 " fill-opacity="1" fill-rule="nonzero"/><path fill="#6f7ff0" d="M 70.488281 231.480469 C 68.140625 233.21875 58.625 240.585938 56.519531 242.105469 C 54.261719 240.773438 51.773438 239.144531 49.53125 237.492188 C 50.246094 233.613281 52.164062 229.78125 55.535156 227.894531 C 57.496094 226.800781 59.503906 225.914062 61.554688 225.433594 C 64.335938 227.707031 67.335938 229.71875 70.488281 231.480469 Z M 70.488281 231.480469 " fill-opacity="1" fill-rule="nonzero"/><path fill="#fec3a5" d="M 211.476562 191.367188 C 218.863281 203.417969 226.25 215.46875 233.632812 227.519531 C 239.304688 236.769531 247.082031 245.460938 250.890625 255.671875 C 251.734375 257.941406 252.113281 260.347656 252.910156 262.613281 C 254.570312 267.320312 261.519531 265.339844 265.382812 265.402344 C 275.578125 265.566406 284.351562 272.445312 293.394531 276.5625 C 294.28125 276.96875 295.203125 277.382812 296.183594 277.398438 C 297.160156 277.410156 298.214844 276.917969 298.546875 275.996094 C 299.101562 274.460938 297.484375 273.074219 296.082031 272.234375 C 291.417969 269.445312 286.753906 266.652344 282.09375 263.863281 C 289.261719 266.554688 296.476562 269.769531 303.667969 272.15625 C 305.855469 272.882812 308.921875 273.261719 309.863281 271.152344 C 310.882812 268.875 308.109375 266.820312 305.816406 265.84375 C 300.476562 263.582031 294.835938 261.742188 289.808594 258.933594 C 295.214844 260.25 300.625 261.570312 306.03125 262.886719 C 307.722656 263.300781 309.957031 263.488281 310.765625 261.945312 C 311.300781 260.925781 310.824219 259.609375 309.972656 258.835938 C 308.777344 257.746094 308.804688 257.953125 288.285156 251.59375 C 292.25 252.226562 296.210938 252.863281 300.175781 253.496094 C 301.546875 253.714844 303.304688 253.753906 303.929688 252.511719 C 304.855469 250.683594 302.851562 249.394531 300.929688 248.664062 C 290.363281 244.628906 291.1875 244.878906 274.203125 242.554688 C 269.984375 241.980469 269.167969 240.28125 267.300781 236.441406 C 256.644531 214.570312 245.972656 192.582031 235.816406 170.578125 " fill-opacity="1" fill-rule="nonzero"/><path fill="#fec3a5" d="M 253.6875 261.886719 C 253.40625 265.316406 254.230469 268.828125 256.011719 271.769531 C 256.796875 273.070312 258.265625 274.402344 259.644531 273.765625 C 260.609375 273.324219 260.945312 272.148438 261.175781 271.113281 C 262.21875 266.410156 263.257812 261.703125 264.300781 257 " fill-opacity="1" fill-rule="nonzero"/><path fill="#fec3a5" d="M 257.441406 68.828125 C 257.476562 75.664062 253.8125 82.1875 248.980469 86.945312 C 246.941406 88.941406 246.152344 92.046875 246.027344 94.898438 C 245.980469 96.0625 246.023438 97.320312 245.320312 98.253906 C 244.566406 99.25 243.140625 99.527344 241.921875 99.257812 C 240.703125 98.980469 239.640625 98.261719 238.609375 97.550781 C 233.144531 101.679688 226.042969 105.398438 219.226562 105.992188 C 215.363281 106.324219 211.832031 105.253906 208.363281 103.679688 C 205.050781 102.179688 202.800781 98.777344 200.367188 96.109375 C 199.855469 96.617188 198.230469 98.574219 194.8125 101.699219 C 191.75 104.515625 188.476562 107.101562 185.023438 109.421875 C 172.449219 101.5625 162.914062 88.882812 160.316406 74.273438 C 168.605469 71.359375 176.414062 67.113281 183.449219 61.851562 C 194.742188 53.398438 204.796875 36.117188 216.699219 30.277344 C 234.652344 21.472656 257.054688 34.65625 258.308594 57.355469 C 258.519531 61.265625 257.429688 64.980469 257.441406 68.828125 Z M 257.441406 68.828125 " fill-opacity="1" fill-rule="nonzero"/><path fill="#fec3a5" d="M 230.039062 49.171875 C 228.632812 48.050781 225.375 47.566406 223.128906 47.109375 C 222.300781 46.941406 221.542969 47.203125 221.105469 47.8125 C 219.199219 50.472656 217.023438 53.230469 215.707031 56.289062 C 214.761719 58.496094 212.042969 60.136719 211.515625 62.527344 C 211.136719 64.238281 211.398438 65.886719 211.882812 67.800781 C 212.191406 69.007812 213.117188 70.085938 214.292969 70.605469 C 217.460938 72 220.378906 73.359375 222.605469 70.714844 C 225.367188 67.433594 227.925781 63.636719 230.382812 60.085938 C 231.152344 58.980469 232.875 57.535156 232.863281 56.003906 C 232.851562 54.585938 231.308594 50.183594 230.039062 49.171875 Z M 230.039062 49.171875 " fill-opacity="1" fill-rule="nonzero"/><path fill="#fcaa86" d="M 222.394531 65.203125 C 221.03125 66.902344 217.996094 67.5 216.761719 66.707031 C 214.628906 65.339844 215.773438 60.757812 218.097656 59.769531 C 221.484375 58.332031 224.539062 62.527344 222.394531 65.203125 Z M 222.394531 65.203125 " fill-opacity="1" fill-rule="nonzero"/><path fill="#ff9b78" d="M 219.023438 66.535156 C 217.976562 66.359375 216.96875 65.71875 216.324219 64.828125 C 214.535156 62.375 216.449219 59.21875 217.367188 57.703125 C 217.90625 56.726562 218.875 54.960938 222.265625 52.542969 C 223.085938 51.960938 224 51.402344 225.144531 51.242188 C 227.621094 50.863281 230.0625 52.800781 229.671875 55.191406 C 229.386719 56.882812 227.613281 57.617188 226.914062 56.378906 C 226.585938 55.800781 226.792969 55.0625 227.375 54.738281 C 227.320312 54.738281 227.289062 54.402344 227.066406 54.152344 C 226.65625 53.695312 225.984375 53.554688 225.480469 53.628906 C 224.882812 53.714844 224.320312 54.039062 223.660156 54.507812 C 220.722656 56.601562 219.941406 58.027344 219.609375 58.636719 C 219.601562 58.652344 219.441406 58.9375 219.429688 58.953125 C 218.730469 60.105469 217.429688 62.253906 218.273438 63.410156 C 218.546875 63.792969 218.996094 64.082031 219.417969 64.152344 C 220.078125 64.261719 220.519531 64.882812 220.410156 65.542969 C 220.304688 66.15625 219.738281 66.636719 219.023438 66.535156 Z M 219.023438 66.535156 " fill-opacity="1" fill-rule="nonzero"/><path fill="#4a4b67" d="M 216.734375 55.617188 C 218.25 54.421875 219.425781 52.820312 221.039062 51.664062 C 222.785156 50.40625 224.925781 49.476562 227.054688 49.804688 C 229.183594 50.128906 231.148438 52.066406 230.898438 54.207031 C 230.792969 55.09375 230.347656 55.894531 229.910156 56.671875 C 227.039062 61.777344 224.066406 66.53125 220.742188 71.335938 C 219.769531 72.738281 220.140625 75.207031 222.253906 73.703125 C 223.5625 72.769531 223.578125 70.683594 224.925781 69.789062 C 226.039062 69.050781 227.667969 69.441406 228.710938 68.605469 C 229.519531 67.957031 229.679688 66.8125 229.929688 65.804688 C 230.851562 62.085938 235.757812 60.316406 238.753906 62.570312 C 243.164062 65.886719 249.585938 67.535156 255.011719 66.09375 C 257.355469 65.472656 258.34375 61.960938 258.910156 59.816406 C 262.671875 45.5 249.5625 31.15625 234.089844 28.449219 C 210.292969 24.285156 197.757812 44.804688 183.039062 62.15625 C 186.984375 60.59375 192.042969 60.273438 196.285156 60.332031 C 201.035156 60.398438 205.796875 59.6875 210.328125 58.253906 C 212.339844 57.617188 215.066406 56.933594 216.734375 55.617188 Z M 216.734375 55.617188 " fill-opacity="1" fill-rule="nonzero"/><path fill="#98a0ff" d="M 226.128906 37.417969 C 219.179688 37.28125 213.839844 39.175781 208.972656 34.210938 C 206.398438 31.265625 197.25 39.273438 199.824219 42.21875 C 209.46875 50.445312 221.4375 49.792969 233.863281 47.304688 C 231.78125 43.597656 229.070312 40.488281 226.128906 37.417969 Z M 226.128906 37.417969 " fill-opacity="1" fill-rule="nonzero"/><path fill="#ffbd64" d="M 211.828125 20.800781 C 226.808594 3.941406 253.039062 3.171875 268.980469 19.132812 C 276.523438 26.6875 280.777344 37.417969 280.460938 48.089844 C 280.363281 51.265625 278.875 54.863281 275.964844 56.128906 C 274.550781 64.28125 270.140625 71.960938 263.792969 77.261719 C 264.554688 81.664062 265.3125 86.066406 266.074219 90.46875 C 266.292969 91.722656 266.15625 95.386719 264.113281 93.511719 C 262.53125 92.0625 261.160156 89.175781 260.023438 87.335938 C 258.714844 85.21875 257.859375 82.722656 256.660156 80.527344 C 248.402344 65.4375 236.242188 52.976562 224.304688 40.78125 C 217.597656 33.925781 201.09375 22.625 201.09375 22.625 C 201.09375 22.625 206.648438 19.019531 207.414062 19.210938 C 209.027344 19.613281 210.210938 20.398438 211.828125 20.800781 Z M 211.828125 20.800781 " fill-opacity="1" fill-rule="nonzero"/><path fill="#b59473" d="M 72.191406 173.613281 C 77.03125 170.3125 80.1875 163.589844 83.183594 158.746094 C 94.957031 139.722656 102.535156 118.3125 108.109375 96.84375 C 108.765625 94.328125 112.054688 68.726562 112.8125 68.636719 C 124.128906 67.261719 142.035156 67.726562 153.375 69.027344 C 154.410156 69.148438 163.027344 69.660156 163.28125 70.714844 C 163.386719 71.144531 162.863281 86.390625 167.1875 91.785156 C 170.792969 96.28125 176.421875 100.773438 181.449219 103.570312 C 186.546875 106.40625 193.722656 106.425781 197.546875 102.015625 C 198.804688 100.5625 223.824219 134.109375 225.722656 137.085938 C 229.011719 142.230469 232.113281 147.492188 235.027344 152.859375 C 237.011719 156.519531 239.007812 162.25 242.164062 165.046875 C 243.214844 165.980469 244.648438 166.558594 245.289062 167.808594 C 246.300781 169.785156 244.765625 172.125 244.921875 174.335938 C 245.140625 177.460938 248.296875 179.253906 249.804688 181.796875 C 251.050781 183.902344 250.851562 186.679688 249.433594 188.847656 C 248.875 189.699219 247.429688 191.25 246.054688 192.179688 C 246.765625 189.097656 247.570312 187.378906 245.582031 185.992188 C 243.210938 184.335938 240.277344 185.308594 237.429688 185.785156 C 225.921875 187.710938 211.953125 196.183594 210.160156 204.84375 C 208.074219 205.085938 205.628906 201.179688 206.035156 199.117188 C 206.4375 197.054688 207.058594 194.472656 205.382812 193.203125 C 204.46875 192.515625 203.21875 192.5625 202.109375 192.277344 C 199.921875 191.722656 198.398438 189.542969 198.191406 187.355469 C 197.894531 184.210938 199.148438 183.886719 197.476562 180.789062 C 195.105469 176.34375 192.117188 173.023438 189.109375 169.078125 C 175.894531 187.285156 174.445312 188.820312 173.582031 192.160156 C 173.042969 194.246094 173.144531 196.460938 172.582031 198.539062 C 171.367188 203.042969 166.289062 203.113281 163.785156 206.621094 C 162.460938 208.480469 162.085938 210.839844 161.078125 212.886719 C 158.152344 218.832031 146.394531 225.613281 139.535156 233.609375 C 111.890625 239.074219 87.578125 227.960938 64.007812 212.992188 C 61.988281 211.707031 60.195312 210.097656 58.261719 208.773438 C 53.394531 205.429688 43.707031 200.964844 52.191406 195.488281 C 53.242188 194.808594 54.230469 193.667969 53.96875 192.445312 C 53.632812 190.890625 51.585938 190.355469 50.851562 188.945312 C 50.285156 187.863281 50.648438 186.484375 51.410156 185.53125 C 53.5625 182.84375 64.574219 178.800781 72.191406 173.613281 Z M 72.191406 173.613281 " fill-opacity="1" fill-rule="nonzero"/><path fill="#b59473" d="M 67.132812 113.839844 C 66.070312 117.847656 64.972656 121.902344 61.449219 124.558594 C 58.234375 126.984375 53.167969 128.226562 52.71875 132.222656 C 52.457031 134.542969 54.054688 136.734375 53.9375 139.0625 C 53.691406 144.003906 47.90625 145.675781 45.265625 148.9375 C 37.394531 158.667969 41.5625 172.683594 52.554688 177.011719 C 48.355469 167.78125 51.199219 157.738281 55.992188 154.101562 C 60.507812 150.675781 67.632812 153.15625 72.582031 154.417969 C 79.039062 156.0625 85.367188 158.414062 91.046875 161.945312 C 95.9375 164.984375 100.4375 160.75 103.226562 156.933594 C 109.414062 148.46875 112.777344 137.710938 115.804688 127.792969 C 117.179688 123.285156 118.414062 118.734375 119.570312 114.167969 C 120.847656 109.109375 123.433594 105.289062 124.113281 99.957031 C 125.640625 87.980469 126.078125 67.433594 109.140625 68.503906 C 102.613281 68.917969 96.15625 73.691406 91.171875 77.925781 C 78.476562 88.71875 69.910156 103.394531 67.132812 113.839844 Z M 67.132812 113.839844 " fill-opacity="1" fill-rule="nonzero"/><path fill="#997458" d="M 90.234375 159.601562 C 92.339844 156.5625 103.253906 144.410156 110.304688 123.457031 C 111.5 119.902344 112.835938 117.601562 114.683594 114.445312 C 114.546875 130.363281 107.949219 147.164062 99.203125 160.238281 C 113.382812 174.65625 125.558594 189.675781 154.746094 204.199219 C 142.988281 202.292969 130.304688 199.992188 119.375 195.261719 C 111.539062 191.867188 103.886719 187.691406 97.875 181.625 C 94.867188 178.59375 92.5625 175.054688 90.730469 171.210938 C 88.765625 167.09375 86.417969 165.113281 90.234375 159.601562 Z M 90.234375 159.601562 " fill-opacity="1" fill-rule="nonzero"/><path fill="#ff5280" d="M 191.957031 221.164062 C 191.773438 223.546875 191.402344 228.492188 191.402344 228.828125 L 181.121094 224.707031 L 181.582031 223.25 C 181.871094 222.324219 181.445312 221.328125 180.570312 220.894531 C 178.535156 219.886719 160.914062 211.175781 162.027344 211.726562 C 149.992188 228.953125 144.664062 236.574219 144.933594 236.191406 C 144.957031 236.515625 145.308594 241.601562 145.289062 241.277344 C 145.359375 242.367188 146.09375 243.292969 147.136719 243.605469 L 158.25 247.011719 L 155.121094 257.546875 C 154.910156 258.253906 154.164062 258.648438 153.460938 258.425781 L 122.816406 248.621094 C 119.796875 247.425781 124.75 234.886719 127.773438 236.078125 L 133.082031 236.078125 C 133.683594 236.078125 134.261719 235.804688 134.628906 235.316406 C 134.890625 234.980469 141.410156 226.601562 140.996094 227.136719 C 141.25 226.808594 159.949219 202.777344 158.765625 204.296875 C 159.554688 203.28125 160.957031 202.992188 162.085938 203.601562 C 198.167969 223.21875 189.59375 218.554688 190.933594 219.285156 C 191.617188 219.652344 192.015625 220.386719 191.957031 221.164062 Z M 191.957031 221.164062 " fill-opacity="1" fill-rule="nonzero"/><path fill="#e83866" d="M 177.730469 219.488281 L 162.027344 211.726562 L 161.292969 212.777344 C 160.128906 211.398438 157.710938 208.207031 157.007812 206.554688 L 158.765625 204.296875 C 159.554688 203.28125 160.957031 202.992188 162.085938 203.601562 L 162.828125 204 C 167.800781 209.167969 172.765625 214.324219 177.730469 219.488281 Z M 177.730469 219.488281 " fill-opacity="1" fill-rule="nonzero"/><path fill="#e83866" d="M 144.933594 236.191406 L 145.148438 239.316406 C 142.21875 237.242188 139.277344 235.175781 136.398438 233.042969 L 140.996094 227.136719 C 142.925781 229.453125 144.613281 231.976562 146.015625 234.640625 Z M 144.933594 236.191406 " fill-opacity="1" fill-rule="nonzero"/><path fill="#fec3a5" d="M 55.613281 151.855469 C 50.222656 152.636719 44.527344 154.660156 43.90625 160.082031 C 43.496094 163.65625 46.339844 168.863281 47.945312 171.921875 C 52.027344 179.699219 58.324219 186.285156 66.253906 189.925781 C 71.039062 192.121094 75.511719 195.214844 80.238281 197.582031 C 85.03125 199.984375 89.914062 202.214844 94.828125 204.363281 C 103.460938 207.992188 112.292969 211.144531 121.214844 213.980469 C 127.132812 215.859375 124.878906 214.011719 133.25 223.269531 C 146.128906 237.511719 146.316406 237.917969 147.855469 238.839844 C 148.988281 239.519531 150.40625 239.847656 151.644531 239.394531 C 152.882812 238.941406 153.8125 237.5625 153.472656 236.285156 C 153.890625 237.859375 156.828125 237.675781 157.847656 237.164062 C 159.996094 236.09375 159.941406 234.550781 159.394531 232.53125 C 160.394531 232.921875 161.417969 233.320312 162.492188 233.386719 C 169.621094 233.839844 163.839844 224.640625 161.949219 222.425781 C 169.527344 226.496094 175.480469 230.050781 177.539062 230.230469 C 178.496094 230.3125 179.554688 229.96875 180.058594 229.152344 C 180.878906 227.816406 179.890625 226.128906 178.910156 224.902344 C 173.113281 217.636719 166.28125 211.273438 159.207031 205.300781 C 153.476562 200.464844 145.644531 200.480469 138.855469 197.292969 C 111.234375 184.332031 107.101562 168.5 87.691406 157.636719 C 77.761719 152.074219 66.265625 150.316406 55.613281 151.855469 Z M 55.613281 151.855469 " fill-opacity="1" fill-rule="nonzero"/><path fill="#4a4b67" d="M 174.628906 262.257812 L 174.792969 267.667969 C 174.804688 267.972656 175.023438 268.230469 175.320312 268.292969 C 266.097656 286.527344 260.492188 285.625 260.871094 285.0625 L 263.808594 280.703125 C 263.988281 280.433594 264.339844 280.335938 264.628906 280.472656 L 266.816406 281.496094 C 267.179688 281.664062 267.308594 282.117188 267.089844 282.449219 L 261.4375 291.03125 C 261.289062 291.257812 261.015625 291.371094 260.75 291.3125 L 170.6875 271.660156 C 170.386719 271.59375 170.171875 271.328125 170.171875 271.019531 L 170.171875 261.542969 C 170.171875 261.121094 170.5625 260.808594 170.976562 260.902344 L 174.125 261.636719 C 174.414062 261.707031 174.621094 261.960938 174.628906 262.257812 Z M 174.628906 262.257812 " fill-opacity="1" fill-rule="nonzero"/><path fill="#e8ddd9" d="M 268.5 282.949219 C 268.625 282.851562 237.914062 274.910156 237.914062 274.910156 L 241.089844 267.984375 L 270.484375 277.738281 C 272.121094 278.359375 270.136719 283.574219 268.5 282.949219 Z M 268.5 282.949219 " fill-opacity="1" fill-rule="nonzero"/><path fill="#e4f0ff" d="M 247.1875 268.753906 C 247.1875 284.5 234.421875 297.269531 218.679688 297.269531 C 202.9375 297.269531 190.179688 284.5 190.179688 268.753906 C 190.179688 253.003906 202.9375 240.238281 218.679688 240.238281 C 234.421875 240.238281 247.1875 253.003906 247.1875 268.753906 Z M 247.1875 268.753906 " fill-opacity="1" fill-rule="nonzero"/><path fill="#c9d4f2" d="M 246.65625 274.359375 C 246.527344 258.730469 233.796875 246.09375 218.144531 246.09375 C 204.320312 246.09375 192.78125 255.933594 190.175781 269.023438 L 190.175781 268.765625 C 190.175781 253.007812 202.9375 240.238281 218.691406 240.238281 C 236.539062 240.238281 250.15625 256.542969 246.65625 274.359375 Z M 246.65625 274.359375 " fill-opacity="1" fill-rule="nonzero"/><path fill="#ffffff" d="M 225.359375 270.472656 C 225.359375 274.15625 222.375 277.140625 218.695312 277.140625 C 215.011719 277.140625 212.027344 274.15625 212.027344 270.472656 C 212.027344 266.789062 215.011719 263.804688 218.695312 263.804688 C 222.375 263.804688 225.359375 266.789062 225.359375 270.472656 Z M 225.359375 270.472656 " fill-opacity="1" fill-rule="nonzero"/><path fill="#4a4b67" d="M 221.183594 270.472656 C 221.183594 271.847656 220.070312 272.960938 218.695312 272.960938 C 217.320312 272.960938 216.207031 271.847656 216.207031 270.472656 C 216.207031 269.097656 217.320312 267.984375 218.695312 267.984375 C 220.070312 267.984375 221.183594 269.097656 221.183594 270.472656 Z M 221.183594 270.472656 " fill-opacity="1" fill-rule="nonzero"/><path fill="#ff5280" d="M 199.59375 235.632812 C 199.59375 235.632812 236.109375 215.808594 256.304688 261.503906 C 257.339844 264.757812 247.910156 267.769531 246.875 264.515625 C 246.875 264.515625 235.914062 234.6875 208.941406 244.316406 Z M 199.59375 235.632812 " fill-opacity="1" fill-rule="nonzero"/><path fill="#98a0ff" d="M 181.121094 224.707031 L 179.574219 229.390625 C 179.359375 230.035156 178.6875 230.410156 178.027344 230.253906 L 173.578125 229.199219 C 172.964844 229.054688 172.332031 229.371094 172.078125 229.949219 L 170.324219 233.921875 C 170.066406 234.5 169.433594 234.8125 168.816406 234.667969 L 166.980469 234.226562 C 164.148438 233.691406 159.402344 258.835938 162.234375 259.371094 L 208.023438 273.527344 C 211.929688 274.742188 221.683594 243.351562 217.777344 242.136719 L 191.808594 232.847656 C 191.207031 232.632812 190.847656 232.015625 190.957031 231.386719 L 191.402344 228.828125 Z M 181.121094 224.707031 " fill-opacity="1" fill-rule="nonzero"/><path fill="#6f7ff0" d="M 208.253906 273.898438 C 207.988281 273.898438 212.421875 275.222656 162.136719 259.691406 C 159.859375 259.273438 161.71875 248.65625 162.148438 246.363281 C 162.59375 244.011719 164.683594 233.578125 167.042969 233.894531 L 168.894531 234.339844 C 169.324219 234.445312 169.175781 235.09375 168.738281 234.992188 C 166.171875 234.375 167.058594 234.589844 166.863281 234.542969 C 165.25 234.542969 162.007812 247.503906 161.71875 255.164062 C 161.578125 258.863281 162.265625 259.039062 162.296875 259.039062 L 208.121094 273.207031 C 208.394531 273.285156 209.386719 273.238281 211.445312 269.160156 C 215.71875 260.65625 220.136719 243.21875 217.679688 242.457031 L 199.484375 236.375 C 199.054688 236.230469 199.292969 235.59375 199.699219 235.738281 L 217.886719 241.820312 C 220.890625 242.761719 217.082031 255.847656 216.148438 258.855469 C 215.269531 261.679688 211.230469 273.898438 208.253906 273.898438 Z M 208.253906 273.898438 " fill-opacity="1" fill-rule="nonzero"/><path fill="#64677a" d="M 155.738281 255.46875 L 168.410156 259.335938 C 169.164062 259.5625 169.945312 259.085938 170.085938 258.316406 L 170.730469 254.769531 C 170.847656 254.109375 170.453125 253.464844 169.8125 253.273438 L 166.246094 252.214844 C 165.546875 252.007812 165.152344 251.269531 165.367188 250.570312 L 165.414062 250.421875 C 165.632812 249.714844 165.226562 248.96875 164.515625 248.769531 L 158.25 247.011719 Z M 155.738281 255.46875 " fill-opacity="1" fill-rule="nonzero"/><path fill="#ffffff" d="M 177.503906 246.101562 C 177.503906 248.761719 175.34375 250.914062 172.6875 250.914062 C 170.03125 250.914062 167.878906 248.761719 167.878906 246.101562 C 167.878906 243.445312 170.03125 241.292969 172.6875 241.292969 C 175.34375 241.292969 177.503906 243.445312 177.503906 246.101562 Z M 177.503906 246.101562 " fill-opacity="1" fill-rule="nonzero"/><path fill="#ffffff" d="M 168.964844 255.453125 C 168.964844 256.175781 168.378906 256.761719 167.652344 256.761719 C 166.929688 256.761719 166.34375 256.175781 166.34375 255.453125 C 166.34375 254.726562 166.929688 254.140625 167.652344 254.140625 C 168.378906 254.140625 168.964844 254.726562 168.964844 255.453125 Z M 168.964844 255.453125 " fill-opacity="1" fill-rule="nonzero"/><path fill="#ffffff" d="M 204.9375 257.441406 L 177.078125 248.125 L 177.285156 247.503906 L 205.144531 256.820312 C 206.667969 257.332031 208.363281 256.757812 209.273438 255.425781 L 216.953125 244.132812 L 217.492188 244.503906 L 209.8125 255.796875 C 208.753906 257.351562 206.757812 258.054688 204.9375 257.441406 Z M 204.9375 257.441406 " fill-opacity="1" fill-rule="nonzero"/><path fill="#f8a24d" d="M 31.320312 315.210938 C 34.015625 300.445312 35.757812 282.84375 38.832031 264.664062 C 41.050781 251.539062 50.542969 240.207031 61.273438 231.992188 C 62.894531 230.746094 66.242188 228.890625 66.242188 228.890625 C 66.242188 228.890625 60.609375 223.679688 59.296875 222.539062 C 54.945312 218.753906 50.535156 214.484375 49.585938 208.515625 C 32.367188 223.808594 18.875 260.390625 24.578125 296.574219 C 25.089844 299.820312 31.882812 312.136719 31.320312 315.210938 Z M 31.320312 315.210938 " fill-opacity="1" fill-rule="nonzero"/><path fill="#ffbd64" d="M 40.96875 257.066406 C 39.972656 259.6875 39.574219 262.011719 38.832031 264.664062 C 32.757812 265.476562 25.660156 265.710938 19.585938 266.527344 C 10.964844 267.695312 3.5625 265.710938 0.902344 257.386719 C -0.078125 254.273438 -0.121094 252.359375 0.128906 249.109375 C 0.792969 253.519531 5.15625 255.1875 9.570312 255.8125 C 13.984375 256.441406 18.417969 255.167969 22.695312 253.90625 C 27.726562 252.425781 36.160156 252.996094 40.96875 257.066406 Z M 40.96875 257.066406 " fill-opacity="1" fill-rule="nonzero"/><path fill="#f8a24d" d="M 38.832031 264.664062 L 31.320312 315.210938 C 31.320312 315.210938 13.933594 306.585938 9.402344 284.867188 L 0.902344 257.386719 C 1.894531 260.488281 3.882812 263.378906 6.75 264.925781 C 13.242188 268.40625 19.949219 264.394531 38.832031 264.664062 Z M 38.832031 264.664062 " fill-opacity="1" fill-rule="nonzero"/><path fill="#64677a" d="M 40.964844 257.066406 C 40.644531 257.09375 14.570312 259.375 16.222656 259.230469 C 15.902344 259.132812 -0.015625 260.679688 0.09375 248.507812 C 0.09375 239.507812 5.074219 230.554688 14.984375 225.855469 C 22.09375 222.457031 30.605469 221.667969 38.511719 221.945312 C 36.367188 234.6875 35.199219 245.304688 40.964844 257.066406 Z M 40.964844 257.066406 " fill-opacity="1" fill-rule="nonzero"/><path fill="#444b68" d="M 38.511719 221.945312 C 38.195312 223.820312 37.902344 225.652344 37.644531 227.441406 C 10.089844 228.894531 5.851562 246.554688 5.851562 253.96875 C 5.839844 255.472656 6.070312 256.769531 6.496094 257.878906 C 3.058594 256.496094 0.046875 253.777344 0.101562 248.507812 C 0.101562 240.535156 4.988281 220.730469 38.511719 221.945312 Z M 38.511719 221.945312 " fill-opacity="1" fill-rule="nonzero"/><path fill="#ff90b0" d="M 17.652344 259.109375 C 14.195312 259.414062 10.773438 259.371094 7.375 258.203125 C 7.347656 257.855469 5.246094 231.777344 5.375 233.375 L 3.480469 209.746094 C 3.265625 207.082031 13.40625 206.261719 13.621094 208.925781 C 13.644531 209.246094 15.765625 235.613281 15.632812 233.960938 Z M 17.652344 259.109375 " fill-opacity="1" fill-rule="nonzero"/><path fill="#f8a24d" d="M 263.101562 77.046875 C 253.1875 53.351562 234.46875 32.898438 211.75 20.925781 C 211.28125 20.675781 211.65625 19.972656 212.125 20.214844 C 235.007812 32.269531 253.859375 52.871094 263.84375 76.742188 C 264.046875 77.234375 263.300781 77.539062 263.101562 77.046875 Z M 263.101562 77.046875 " fill-opacity="1" fill-rule="nonzero"/><path fill="#f8a24d" d="M 274.113281 55.320312 C 266.933594 37.066406 251.613281 22.273438 233.125 15.742188 C 232.632812 15.558594 232.886719 14.8125 233.394531 14.980469 C 252.097656 21.589844 267.597656 36.5625 274.863281 55.027344 C 275.058594 55.523438 274.3125 55.8125 274.113281 55.320312 Z M 274.113281 55.320312 " fill-opacity="1" fill-rule="nonzero"/><path fill="#273454" d="M 246.800781 84.546875 C 246.632812 84.546875 246.492188 84.410156 246.492188 84.242188 C 246.441406 80.085938 244.027344 77.285156 239.699219 76.363281 C 239.433594 76.308594 239.367188 75.957031 239.589844 75.808594 C 241.292969 74.644531 243.8125 74.492188 245.320312 75.457031 C 245.65625 75.664062 245.355469 76.191406 244.988281 75.976562 C 244 75.347656 242.15625 75.210938 240.589844 75.945312 C 244.746094 77.09375 247.054688 80.011719 247.109375 84.234375 C 247.113281 84.402344 246.976562 84.546875 246.804688 84.546875 Z M 246.800781 84.546875 " fill-opacity="1" fill-rule="nonzero"/><path fill="#273454" d="M 241.304688 83.121094 C 241.761719 83.957031 243.199219 84.007812 244.507812 83.234375 C 245.820312 82.457031 246.515625 81.15625 246.070312 80.308594 C 244.875 77.984375 240.296875 81.308594 241.304688 83.121094 Z M 241.304688 83.121094 " fill-opacity="1" fill-rule="nonzero"/><path fill="#273454" d="M 243.21875 70.246094 C 245.105469 70.402344 248.734375 72.921875 250.246094 74.234375 C 250.625 74.5625 250.558594 74.585938 251.578125 78.109375 C 251.734375 78.644531 252.121094 79.460938 252.117188 79.992188 C 252.117188 80.792969 250.800781 81.316406 250.199219 80.597656 C 249.878906 80.207031 249.714844 79.386719 249.546875 78.929688 C 249.070312 77.636719 248.304688 75.480469 248.167969 75.207031 C 247.519531 73.890625 244.175781 71.699219 241.976562 70.785156 C 241.375 70.535156 241.53125 70.109375 243.21875 70.246094 Z M 243.21875 70.246094 " fill-opacity="1" fill-rule="nonzero"/><path fill="#273454" d="M 227.097656 102.804688 C 226.265625 100.988281 226.066406 98.925781 226.539062 96.988281 C 226.59375 96.742188 226.960938 96.640625 227.109375 96.914062 C 228.199219 98.949219 230.304688 100.414062 232.59375 100.730469 C 232.761719 100.753906 232.882812 100.910156 232.855469 101.078125 C 232.835938 101.246094 232.664062 101.386719 232.511719 101.339844 C 230.296875 101.035156 228.246094 99.742188 226.984375 97.902344 C 226.761719 99.476562 226.992188 101.097656 227.65625 102.546875 C 227.832031 102.917969 227.261719 103.171875 227.097656 102.804688 Z M 227.097656 102.804688 " fill-opacity="1" fill-rule="nonzero"/><path fill="#fcaa86" d="M 200.289062 96.191406 C 198.550781 98.117188 196.71875 99.953125 194.8125 101.699219 C 188.015625 90.488281 187.746094 76.679688 193.828125 65.34375 C 193.828125 68.523438 193.085938 71.636719 193.265625 74.878906 C 193.679688 82.417969 195.972656 89.480469 200.289062 96.191406 Z M 200.289062 96.191406 " fill-opacity="1" fill-rule="nonzero"/><path fill="#997458" d="M 85.847656 149.535156 C 77.027344 138.949219 61.566406 137.445312 50.894531 145.519531 C 50.496094 145.847656 49.972656 145.210938 50.410156 144.878906 C 55.75 140.839844 62.617188 138.960938 69.269531 139.730469 C 75.914062 140.496094 82.183594 143.878906 86.464844 149.023438 C 86.808594 149.421875 86.191406 149.949219 85.847656 149.535156 Z M 85.847656 149.535156 " fill-opacity="1" fill-rule="nonzero"/><path fill="#997458" d="M 85.664062 132.785156 C 79.933594 125.542969 69.761719 122.3125 60.917969 124.933594 C 60.402344 125.066406 60.183594 124.308594 60.691406 124.160156 C 69.835938 121.457031 80.367188 124.792969 86.292969 132.289062 C 86.625 132.703125 85.992188 133.203125 85.664062 132.785156 Z M 85.664062 132.785156 " fill-opacity="1" fill-rule="nonzero"/><path fill="#997458" d="M 165.613281 106.738281 C 156.074219 98.070312 152.015625 83.910156 155.519531 71.503906 C 155.671875 71 156.4375 71.210938 156.292969 71.726562 C 152.871094 83.839844 156.832031 97.675781 166.152344 106.144531 C 175.472656 114.613281 189.613281 117.21875 201.34375 112.65625 C 201.84375 112.464844 202.121094 113.21875 201.632812 113.402344 C 189.671875 118.070312 175.191406 115.441406 165.613281 106.738281 Z M 165.613281 106.738281 " fill-opacity="1" fill-rule="nonzero"/><path fill="#997458" d="M 205.671875 195.898438 C 213.210938 183.667969 227.878906 176.203125 242.21875 177.242188 C 242.714844 177.285156 242.726562 178.054688 242.15625 178.046875 C 228.160156 176.949219 213.738281 184.339844 206.355469 196.320312 C 206.074219 196.773438 205.394531 196.347656 205.671875 195.898438 Z M 205.671875 195.898438 " fill-opacity="1" fill-rule="nonzero"/><path fill="#997458" d="M 207.339844 181.8125 C 214.648438 170.914062 227.847656 164.195312 240.957031 164.582031 C 241.519531 164.597656 241.421875 165.46875 240.929688 165.382812 C 228.070312 164.96875 215.164062 171.582031 208.007812 182.257812 C 207.71875 182.703125 207.039062 182.25 207.339844 181.8125 Z M 207.339844 181.8125 " fill-opacity="1" fill-rule="nonzero"/><path fill="#ff9b78" d="M 175.160156 93.371094 C 175.4375 92.378906 176.058594 91.585938 176.554688 90.949219 C 176.96875 90.421875 177.726562 90.332031 178.246094 90.738281 C 178.773438 91.148438 178.867188 91.90625 178.457031 92.429688 C 178.050781 92.953125 177.628906 93.492188 177.476562 94.03125 C 177.070312 95.480469 178.417969 95.089844 179.703125 94.199219 L 191.21875 86.183594 C 191.769531 85.804688 192.515625 85.9375 192.894531 86.484375 C 193.273438 87.03125 193.140625 87.78125 192.59375 88.164062 L 181.078125 96.179688 C 177.003906 99.007812 174.335938 96.28125 175.160156 93.371094 Z M 175.160156 93.371094 " fill-opacity="1" fill-rule="nonzero"/><path fill="#ff9b78" d="M 114.515625 182.503906 C 106.648438 176.015625 94.96875 157.570312 75.246094 154.007812 C 57.058594 150.722656 51.753906 153.664062 48.253906 155.613281 L 47.320312 156.125 C 44.386719 157.675781 45.511719 163.507812 45.523438 163.566406 C 45.660156 164.21875 45.242188 164.855469 44.589844 164.996094 C 43.957031 165.109375 43.300781 164.71875 43.164062 164.0625 C 43.097656 163.75 41.609375 156.417969 46.191406 153.992188 L 47.085938 153.503906 C 50.886719 151.394531 56.636719 148.195312 75.671875 151.632812 C 91.257812 154.453125 101.867188 165.859375 109.617188 174.1875 C 112.078125 176.835938 114.207031 179.125 116.046875 180.636719 C 116.5625 181.0625 116.636719 181.820312 116.214844 182.335938 C 115.796875 182.84375 115.042969 182.929688 114.515625 182.503906 Z M 114.515625 182.503906 " fill-opacity="1" fill-rule="nonzero"/><path fill="#ff9b78" d="M 105.949219 191.714844 C 88.902344 186.367188 72.613281 177.519531 58.851562 166.132812 C 58.339844 165.707031 58.265625 164.949219 58.691406 164.433594 C 59.109375 163.914062 59.871094 163.847656 60.386719 164.273438 C 73.914062 175.464844 89.917969 184.160156 106.671875 189.417969 C 108.171875 189.882812 107.496094 192.203125 105.949219 191.714844 Z M 105.949219 191.714844 " fill-opacity="1" fill-rule="nonzero"/><path fill="#ff9b78" d="M 84.683594 189.632812 C 80.867188 188.886719 77.175781 187.316406 74 185.085938 C 73.457031 184.703125 73.324219 183.953125 73.707031 183.40625 C 74.09375 182.859375 74.847656 182.734375 75.386719 183.113281 C 78.285156 185.152344 81.660156 186.585938 85.140625 187.265625 C 85.796875 187.394531 86.21875 188.023438 86.09375 188.679688 C 85.960938 189.355469 85.296875 189.761719 84.683594 189.632812 Z M 84.683594 189.632812 " fill-opacity="1" fill-rule="nonzero"/><path fill="#ff9b78" d="M 214.472656 197.617188 C 214 197.152344 213.988281 196.386719 214.457031 195.910156 C 221.800781 188.410156 232.3125 186.105469 242.269531 184.035156 C 242.925781 183.90625 243.558594 184.320312 243.695312 184.96875 C 243.832031 185.621094 243.414062 186.261719 242.761719 186.394531 C 233.386719 188.339844 223.113281 190.519531 216.179688 197.601562 C 215.707031 198.078125 214.941406 198.078125 214.472656 197.617188 Z M 214.472656 197.617188 " fill-opacity="1" fill-rule="nonzero"/><path fill="#ff9b78" d="M 262.839844 263.539062 C 262.1875 263.410156 261.761719 262.773438 261.890625 262.121094 C 262.386719 259.613281 262.351562 256.976562 261.785156 254.488281 C 261.640625 253.835938 262.042969 253.191406 262.695312 253.046875 C 263.359375 252.878906 263.988281 253.304688 264.136719 253.953125 C 264.777344 256.769531 264.820312 259.757812 264.257812 262.59375 C 264.125 263.242188 263.496094 263.667969 262.839844 263.539062 Z M 262.839844 263.539062 " fill-opacity="1" fill-rule="nonzero"/><path fill="#ff9b78" d="M 254.367188 227.851562 L 238.523438 198.011719 C 238.207031 197.425781 238.433594 196.691406 239.023438 196.382812 C 239.601562 196.066406 240.335938 196.289062 240.652344 196.882812 L 256.496094 226.71875 C 256.808594 227.308594 256.582031 228.039062 255.996094 228.351562 C 255.433594 228.65625 254.6875 228.457031 254.367188 227.851562 Z M 254.367188 227.851562 " fill-opacity="1" fill-rule="nonzero"/><path fill="#ff9b78" d="M 248.597656 221.839844 L 235.695312 205.132812 C 235.285156 204.605469 235.382812 203.847656 235.910156 203.4375 C 236.441406 203.035156 237.195312 203.132812 237.601562 203.65625 L 250.503906 220.363281 C 250.914062 220.890625 250.816406 221.648438 250.289062 222.054688 C 249.769531 222.457031 249.011719 222.375 248.597656 221.839844 Z M 248.597656 221.839844 " fill-opacity="1" fill-rule="nonzero"/><path fill="#77a6e8" d="M 32.617188 196.230469 L 32.617188 257.796875 L 22.554688 258.679688 L 22.554688 196.230469 C 22.554688 194.125 32.617188 194.125 32.617188 196.230469 Z M 32.617188 196.230469 " fill-opacity="1" fill-rule="nonzero"/><path fill="#426fc4" d="M 22.226562 255.777344 L 22.226562 216.402344 C 22.226562 215.96875 22.882812 215.96875 22.882812 216.402344 L 22.882812 255.777344 C 22.882812 256.210938 22.226562 256.210938 22.226562 255.777344 Z M 22.226562 255.777344 " fill-opacity="1" fill-rule="nonzero"/><path fill="#f16997" d="M 16.949219 255.367188 L 13.484375 212.289062 C 13.445312 211.742188 14.238281 211.726562 14.289062 212.226562 L 17.75 255.304688 C 17.789062 255.835938 16.996094 255.898438 16.949219 255.367188 Z M 16.949219 255.367188 " fill-opacity="1" fill-rule="nonzero"/><path fill="#426fc4" d="M 27.9375 253.164062 L 27.9375 200.664062 C 27.9375 200.132812 28.742188 200.132812 28.742188 200.664062 L 28.742188 253.164062 C 28.742188 253.695312 27.9375 253.695312 27.9375 253.164062 Z M 27.9375 253.164062 " fill-opacity="1" fill-rule="nonzero"/><path fill="#f16997" d="M 9.183594 253.203125 L 5.363281 212.949219 C 5.3125 212.441406 6.113281 212.316406 6.160156 212.875 L 9.980469 253.125 C 10.03125 253.648438 9.230469 253.742188 9.183594 253.203125 Z M 9.183594 253.203125 " fill-opacity="1" fill-rule="nonzero"/><path fill="#ff9b78" d="M 152.195312 236.863281 L 145.367188 229.210938 C 144.921875 228.714844 144.964844 227.953125 145.460938 227.507812 C 145.957031 227.0625 146.726562 227.105469 147.164062 227.601562 L 153.992188 235.253906 C 154.4375 235.75 154.394531 236.511719 153.898438 236.957031 C 153.402344 237.402344 152.632812 237.355469 152.195312 236.863281 Z M 152.195312 236.863281 " fill-opacity="1" fill-rule="nonzero"/><path fill="#ff9b78" d="M 160.058594 234.316406 C 159.152344 234.316406 159.382812 233.964844 150.882812 226.074219 C 150.398438 225.613281 150.378906 224.851562 150.835938 224.367188 C 151.296875 223.882812 152.0625 223.867188 152.542969 224.320312 L 160.886719 232.234375 C 161.679688 232.988281 161.140625 234.316406 160.058594 234.316406 Z M 160.058594 234.316406 " fill-opacity="1" fill-rule="nonzero"/><path fill="#ff9b78" d="M 162.167969 223.789062 C 161.507812 223.789062 161.578125 223.558594 154.550781 219.183594 C 153.984375 218.828125 153.820312 218.082031 154.175781 217.523438 C 154.535156 216.957031 155.289062 216.789062 155.835938 217.148438 L 162.816406 221.566406 C 163.832031 222.207031 163.371094 223.789062 162.167969 223.789062 Z M 162.167969 223.789062 " fill-opacity="1" fill-rule="nonzero"/><path fill="#997458" d="M 130.175781 330.457031 C 129.761719 330.457031 129.753906 329.84375 130.15625 329.824219 C 133.457031 329.636719 136.695312 328.945312 139.773438 327.769531 C 140.898438 327.34375 140.511719 326.683594 139.570312 326.152344 C 137.261719 324.859375 134.78125 323.9375 132.195312 323.402344 C 132.023438 323.371094 131.914062 323.199219 131.949219 323.03125 C 131.984375 322.859375 132.175781 322.726562 132.320312 322.78125 C 134.972656 323.324219 137.515625 324.273438 139.878906 325.597656 C 141.273438 326.378906 141.691406 327.710938 140.003906 328.363281 C 136.859375 329.566406 133.558594 330.269531 130.195312 330.457031 C 130.1875 330.457031 130.179688 330.457031 130.175781 330.457031 Z M 130.175781 330.457031 " fill-opacity="1" fill-rule="nonzero"/><path fill="#997458" d="M 127.894531 336.039062 C 127.742188 336.039062 127.605469 335.929688 127.582031 335.773438 C 127.480469 335.164062 127.464844 335.613281 146.289062 332.398438 C 147.984375 332.121094 149.789062 331.648438 150.332031 330.214844 C 150.753906 329.097656 150.171875 327.894531 149.539062 327.203125 C 148.449219 326.007812 147.867188 325.902344 133.265625 318.601562 C 132.886719 318.414062 133.171875 317.851562 133.550781 318.03125 L 146.914062 324.714844 C 147.964844 325.238281 149.152344 325.832031 150.011719 326.777344 C 151 327.863281 151.359375 329.300781 150.925781 330.4375 C 150.269531 332.175781 148.261719 332.722656 146.386719 333.027344 C 145.449219 333.179688 126.703125 336.234375 127.894531 336.039062 Z M 127.894531 336.039062 " fill-opacity="1" fill-rule="nonzero"/><path fill="#997458" d="M 127.042969 342.574219 C 126.660156 342.574219 126.609375 342.011719 126.992188 341.941406 C 158.605469 336.582031 158.472656 336.792969 160.40625 335.816406 C 163.828125 334.089844 164.1875 330.652344 161.570312 328.066406 C 159.960938 326.480469 160.160156 326.761719 137.335938 315.890625 C 136.949219 315.710938 137.238281 315.132812 137.605469 315.320312 C 159.644531 325.808594 160.292969 325.917969 162.015625 327.613281 C 164.910156 330.464844 164.554688 334.4375 160.695312 336.382812 C 158.699219 337.390625 159.25 337.121094 127.097656 342.570312 C 127.078125 342.574219 127.058594 342.574219 127.042969 342.574219 Z M 127.042969 342.574219 " fill-opacity="1" fill-rule="nonzero"/><path fill="#997458" d="M 151.402344 343.753906 C 151.023438 343.753906 150.964844 343.207031 151.332031 343.128906 C 158.207031 341.601562 164.894531 339.265625 171.210938 336.191406 C 172.710938 335.460938 174.144531 334.589844 174.503906 333.171875 C 174.757812 332.179688 174.410156 331.003906 173.570312 330.03125 C 172.480469 328.757812 171.890625 328.578125 150.203125 315.503906 C 149.835938 315.285156 150.175781 314.742188 150.527344 314.960938 C 172.695312 328.320312 172.855469 328.222656 174.054688 329.617188 C 175.027344 330.746094 175.425781 332.136719 175.121094 333.328125 C 174.699219 335 173.125 335.964844 171.488281 336.761719 C 165.128906 339.859375 158.390625 342.210938 151.46875 343.75 C 151.449219 343.753906 151.421875 343.753906 151.402344 343.753906 Z M 151.402344 343.753906 " fill-opacity="1" fill-rule="nonzero"/><path fill="#997458" d="M 160.875 315.894531 C 160.488281 315.753906 160.683594 315.15625 161.09375 315.296875 C 175.679688 320.59375 190.902344 336.464844 208.515625 327.851562 C 214.230469 325.054688 218.75 320.03125 222.738281 315.597656 C 223.023438 315.28125 223.492188 315.710938 223.210938 316.023438 C 219.183594 320.5 214.617188 325.570312 208.792969 328.421875 C 190.824219 337.203125 175.15625 321.078125 160.875 315.894531 Z M 160.875 315.894531 " fill-opacity="1" fill-rule="nonzero"/><path fill="#997458" d="M 173.289062 315.945312 C 172.917969 315.777344 173.160156 315.195312 173.554688 315.367188 C 193.183594 324.214844 194.71875 325.242188 198.035156 325.242188 C 203.1875 325.242188 206.96875 321.09375 210.144531 317.507812 C 210.421875 317.1875 210.902344 317.609375 210.621094 317.925781 C 207.28125 321.703125 203.507812 325.777344 198.222656 325.875 C 194.640625 326.054688 191.226562 324.019531 173.289062 315.945312 Z M 173.289062 315.945312 " fill-opacity="1" fill-rule="nonzero"/><path fill="#997458" d="M 188.574219 316.898438 C 188.242188 316.644531 188.617188 316.132812 188.957031 316.386719 C 190.992188 317.910156 195.582031 320.460938 197.878906 320.214844 C 199.800781 320.027344 201.207031 318.359375 202.480469 316.667969 C 202.734375 316.328125 203.234375 316.710938 202.988281 317.050781 C 201.6875 318.773438 200.117188 320.632812 197.941406 320.847656 C 195.332031 321.085938 190.691406 318.476562 188.574219 316.898438 Z M 188.574219 316.898438 " fill-opacity="1" fill-rule="nonzero"/><path fill="#997458" d="M 224.859375 346.605469 C 212.855469 340.515625 210.496094 339.195312 207.460938 338.226562 C 204.199219 337.191406 200.441406 336.78125 195.699219 336.972656 C 185.886719 337.339844 176.070312 339.886719 167.316406 344.335938 C 167.160156 344.421875 166.972656 344.355469 166.890625 344.199219 C 166.808594 344.042969 166.871094 343.847656 167.027344 343.769531 C 175.863281 339.28125 185.769531 336.707031 195.671875 336.335938 C 200.515625 336.148438 204.320312 336.5625 207.65625 337.625 C 210.558594 338.546875 212.042969 339.390625 225.148438 346.039062 C 225.527344 346.226562 225.226562 346.800781 224.859375 346.605469 Z M 224.859375 346.605469 " fill-opacity="1" fill-rule="nonzero"/><path fill="#997458" d="M 186.621094 343.617188 C 192.296875 339.269531 200.402344 338.753906 206.722656 343.070312 C 207.078125 343.316406 206.695312 343.835938 206.363281 343.597656 C 200.320312 339.46875 192.523438 339.90625 187.007812 344.121094 C 186.675781 344.375 186.289062 343.871094 186.621094 343.617188 Z M 186.621094 343.617188 " fill-opacity="1" fill-rule="nonzero"/><path fill="#997458" d="M 179.316406 335.039062 C 178.953125 335.039062 178.875 334.515625 179.234375 334.417969 C 180.324219 334.109375 181.425781 333.734375 181.875 332.839844 C 182.34375 331.910156 181.878906 330.726562 181.179688 330.035156 C 180.386719 329.257812 179.300781 328.851562 178.25 328.457031 C 177.878906 328.3125 178.050781 327.730469 178.476562 327.859375 C 179.535156 328.257812 180.738281 328.707031 181.625 329.585938 C 182.464844 330.410156 183.074219 331.871094 182.441406 333.128906 C 181.875 334.25 180.578125 334.699219 179.402344 335.027344 C 179.375 335.035156 179.347656 335.039062 179.316406 335.039062 Z M 179.316406 335.039062 " fill-opacity="1" fill-rule="nonzero"/><path fill="#997458" d="M 239.804688 347.003906 L 214.484375 337.886719 C 212.097656 337.039062 209.753906 335.929688 210.125 333.335938 C 210.921875 327.753906 224.484375 320.371094 226.792969 319.457031 C 232.179688 317.320312 238.234375 316.957031 243.851562 318.421875 C 244.246094 318.523438 244.117188 319.128906 243.6875 319.035156 C 238.207031 317.601562 232.289062 317.957031 227.027344 320.046875 C 224.121094 321.199219 211.453125 328.53125 210.753906 333.429688 C 210.441406 335.625 212.636719 336.558594 214.695312 337.292969 L 240.015625 346.40625 C 240.410156 346.546875 240.199219 347.144531 239.804688 347.003906 Z M 239.804688 347.003906 " fill-opacity="1" fill-rule="nonzero"/><path fill="#997458" d="M 245.796875 343.449219 C 243.097656 342.832031 236.496094 342.117188 226.5 337.761719 C 224.617188 336.941406 222.414062 335.722656 222.070312 333.515625 C 221.808594 331.828125 222.792969 330.03125 224.925781 328.328125 C 230.023438 324.242188 236.660156 322.1875 243.203125 322.722656 C 243.582031 322.757812 243.625 323.351562 243.152344 323.355469 C 236.832031 322.847656 230.296875 324.839844 225.320312 328.824219 C 223.964844 329.910156 222.414062 331.582031 222.699219 333.417969 C 222.988281 335.320312 225.019531 336.425781 226.75 337.179688 C 232.851562 339.839844 239.277344 341.734375 245.847656 342.820312 C 246.234375 342.882812 246.183594 343.449219 245.796875 343.449219 Z M 245.796875 343.449219 " fill-opacity="1" fill-rule="nonzero"/><path fill="#997458" d="M 246.003906 338.292969 C 244.421875 338.128906 240.707031 338.324219 235.007812 336.214844 C 226.757812 333.144531 236.066406 325.496094 244.636719 327.980469 C 245.046875 328.09375 244.855469 328.710938 244.460938 328.589844 C 236.855469 326.402344 227.832031 332.875 235.226562 335.617188 C 238.6875 336.898438 242.316406 337.585938 246.007812 337.660156 C 246.425781 337.667969 246.421875 338.292969 246.003906 338.292969 Z M 246.003906 338.292969 " fill-opacity="1" fill-rule="nonzero"/><path fill="#997458" d="M 243.722656 334.570312 C 241.386719 333.773438 239.824219 333.066406 239.796875 332.179688 C 239.78125 331.523438 240.589844 331.195312 240.859375 331.089844 C 242.199219 330.542969 243.496094 331.472656 244.679688 331.285156 C 245.0625 331.199219 245.21875 331.84375 244.777344 331.914062 C 243.527344 332.136719 242.160156 331.25 241.097656 331.679688 C 240.605469 331.878906 240.429688 332.0625 240.433594 332.164062 C 240.449219 332.875 244 333.976562 244.398438 334.132812 C 244.5625 334.195312 244.644531 334.378906 244.578125 334.542969 C 244.445312 334.894531 244.082031 334.691406 243.722656 334.570312 Z M 243.722656 334.570312 " fill-opacity="1" fill-rule="nonzero"/><path fill="#e83866" d="M 155.417969 255.375 L 157.929688 246.917969 C 158.054688 246.488281 158.695312 246.6875 158.566406 247.105469 L 156.058594 255.5625 C 155.929688 255.996094 155.289062 255.792969 155.417969 255.375 Z M 155.417969 255.375 " fill-opacity="1" fill-rule="nonzero"/><path fill="#e83866" d="M 151.601562 255.320312 L 125.753906 246.417969 C 125.335938 246.273438 125.554688 245.632812 125.972656 245.785156 L 151.820312 254.6875 C 152.230469 254.828125 152.03125 255.464844 151.601562 255.320312 Z M 151.601562 255.320312 " fill-opacity="1" fill-rule="nonzero"/><path fill="#273454" d="M 92.003906 296.90625 L 95.671875 260.195312 C 95.71875 259.664062 96.523438 259.746094 96.46875 260.277344 L 92.800781 296.988281 C 92.75 297.519531 91.949219 297.441406 92.003906 296.90625 Z M 92.003906 296.90625 " fill-opacity="1" fill-rule="nonzero"/><path fill="#273454" d="M 94.699219 284.074219 L 101.855469 279.699219 C 102.058594 273.308594 102.382812 265.648438 102.585938 259.113281 C 102.601562 258.578125 103.40625 258.601562 103.390625 259.136719 C 103.191406 265.601562 102.863281 273.226562 102.652344 279.941406 L 102.648438 280.15625 L 95.121094 284.757812 C 94.671875 285.035156 94.242188 284.355469 94.699219 284.074219 Z M 94.699219 284.074219 " fill-opacity="1" fill-rule="nonzero"/><path fill="#273454" d="M 35.746094 290.949219 L 49.582031 284.175781 C 53.417969 274.421875 55.902344 262.996094 56.964844 250.203125 C 57.007812 249.703125 57.808594 249.71875 57.769531 250.273438 C 56.691406 263.203125 54.167969 274.757812 50.273438 284.613281 L 50.21875 284.757812 L 36.097656 291.671875 C 35.617188 291.910156 35.269531 291.179688 35.746094 290.949219 Z M 35.746094 290.949219 " fill-opacity="1" fill-rule="nonzero"/><path fill="#273454" d="M 143.640625 288.972656 C 139.257812 287.550781 134.976562 284.921875 131.59375 281.570312 L 131.488281 281.46875 L 131.476562 281.324219 L 129.148438 256.4375 C 129.097656 255.933594 129.898438 255.792969 129.945312 256.363281 L 132.261719 281.101562 C 135.542969 284.316406 139.667969 286.839844 143.886719 288.207031 C 144.394531 288.371094 144.148438 289.128906 143.640625 288.972656 Z M 143.640625 288.972656 " fill-opacity="1" fill-rule="nonzero"/><path fill="#997458" d="M 120.09375 224.601562 C 96.152344 218.675781 73.175781 207.582031 53.648438 192.507812 C 53.226562 192.1875 53.71875 191.546875 54.136719 191.875 C 73.578125 206.878906 96.453125 217.921875 120.289062 223.820312 C 120.808594 223.953125 120.601562 224.738281 120.09375 224.601562 Z M 120.09375 224.601562 " fill-opacity="1" fill-rule="nonzero"/><path fill="#997458" d="M 172.269531 191.949219 C 171.820312 191.859375 158.820312 192.066406 146.398438 182.957031 C 145.972656 182.644531 146.441406 181.992188 146.875 182.308594 C 154.195312 187.675781 163.21875 190.8125 172.285156 191.144531 C 172.804688 191.164062 172.792969 191.949219 172.269531 191.949219 Z M 172.269531 191.949219 " fill-opacity="1" fill-rule="nonzero"/><path fill="#997458" d="M 189.152344 170.585938 C 185.132812 160.753906 184.25 149.648438 186.664062 139.304688 C 186.789062 138.800781 187.570312 138.960938 187.449219 139.488281 C 185.070312 149.667969 185.9375 160.605469 189.894531 170.285156 C 190.097656 170.769531 189.351562 171.082031 189.152344 170.585938 Z M 189.152344 170.585938 " fill-opacity="1" fill-rule="nonzero"/></svg>